<?xml version="1.0" standalone="no"?>
<!DOCTYPE svg PUBLIC "-//W3C//DTD SVG 20010904//EN"
 "http://www.w3.org/TR/2001/REC-SVG-20010904/DTD/svg10.dtd">
<svg version="1.0" xmlns="http://www.w3.org/2000/svg"
 width="1323.000000pt" height="1083.000000pt" viewBox="0 0 1323.000000 1083.000000"
 preserveAspectRatio="xMidYMid meet">
<metadata>
Created by potrace 1.10, written by Peter Selinger 2001-2011
</metadata>
<g transform="translate(0.000000,1083.000000) scale(0.100000,-0.100000)"
fill="#000000" stroke="none">
<path d="M11630 9663 c-24 -32 -75 -85 -114 -118 -38 -33 -98 -86 -132 -118
-58 -53 -140 -115 -206 -155 -16 -10 -28 -24 -28 -33 0 -29 42 -31 93 -4 27
14 59 25 71 25 12 0 32 7 44 16 23 16 42 12 42 -9 0 -9 -45 -83 -60 -97 -3 -3
-11 -16 -18 -30 -7 -14 -21 -38 -32 -55 -11 -16 -23 -37 -27 -45 -4 -8 -28
-49 -54 -90 -25 -41 -71 -122 -101 -180 -31 -58 -90 -163 -133 -235 -98 -165
-109 -184 -157 -275 -22 -41 -51 -93 -63 -115 -39 -66 -50 -86 -105 -185 -52
-94 -100 -149 -131 -150 -9 0 -22 -7 -29 -15 -7 -8 -18 -15 -24 -15 -7 0 -29
-9 -51 -20 -22 -11 -46 -20 -55 -20 -8 0 -32 -9 -53 -20 -20 -11 -45 -20 -54
-20 -10 0 -27 -7 -37 -15 -11 -8 -32 -15 -47 -15 -15 0 -30 -4 -33 -9 -3 -4
-27 -11 -53 -15 -48 -6 -81 -34 -68 -56 4 -6 53 -10 111 -10 117 0 129 -9 66
-50 -20 -13 -59 -41 -86 -62 -32 -25 -55 -36 -67 -33 -11 4 -54 30 -97 58 -42
29 -94 61 -115 71 -20 11 -37 23 -37 27 0 4 13 27 29 51 15 24 48 79 72 123
23 44 53 98 66 120 12 22 26 47 30 55 4 8 28 46 53 85 53 80 61 97 51 113 -9
14 -53 24 -67 15 -6 -5 -34 -51 -62 -103 -84 -160 -87 -165 -94 -170 -4 -3
-12 -17 -18 -30 -5 -14 -24 -47 -41 -75 -31 -49 -67 -113 -101 -178 -12 -24
-14 -35 -5 -43 21 -19 191 -120 235 -139 24 -11 42 -26 42 -35 0 -9 -39 -42
-92 -77 -51 -34 -129 -92 -174 -130 -44 -37 -143 -116 -220 -175 -322 -247
-647 -500 -659 -514 -5 -6 -32 -26 -60 -45 -49 -32 -195 -147 -205 -160 -3 -4
-63 -50 -135 -104 -71 -53 -150 -115 -175 -136 -25 -21 -110 -88 -190 -149
-80 -61 -173 -132 -208 -160 -35 -27 -77 -59 -94 -72 -17 -13 -56 -43 -87 -68
-31 -25 -85 -67 -121 -95 -36 -27 -71 -55 -79 -63 -7 -7 -72 -58 -145 -113
-72 -54 -202 -154 -288 -222 -87 -67 -204 -158 -260 -202 -128 -98 -100 -77
-253 -197 -71 -57 -191 -150 -266 -208 -289 -222 -397 -306 -487 -379 -52 -42
-123 -97 -159 -123 -65 -46 -154 -116 -222 -174 -20 -17 -70 -56 -111 -87 -81
-59 -368 -284 -386 -301 -6 -6 -22 -18 -34 -26 -13 -8 -69 -51 -125 -95 -183
-143 -199 -156 -300 -233 -55 -43 -111 -87 -125 -99 -14 -12 -89 -70 -166
-130 -322 -246 -532 -409 -581 -450 -29 -24 -73 -59 -97 -76 -85 -62 -197
-148 -216 -167 -10 -10 -81 -66 -157 -124 -76 -58 -208 -160 -293 -227 -85
-66 -186 -144 -225 -174 -38 -29 -79 -61 -90 -71 -11 -11 -43 -37 -70 -58 -28
-22 -58 -48 -67 -57 -17 -17 -58 -16 -58 1 0 5 -26 25 -58 45 -31 21 -68 45
-82 55 -14 9 -58 23 -97 30 -39 7 -77 16 -84 20 -8 6 -10 35 -8 96 2 49 4
1491 4 3204 0 3208 0 3199 -36 3163 -6 -6 -15 -28 -20 -49 -5 -23 -9 -1366 -9
-3228 0 -1754 -1 -3191 -3 -3192 -2 -2 -30 -9 -63 -16 -42 -8 -83 -26 -144
-66 -47 -31 -89 -61 -95 -67 -15 -16 -50 -68 -58 -85 -4 -8 -19 -35 -34 -60
-17 -29 -30 -73 -37 -124 -14 -100 -20 -104 -121 -87 -44 7 -107 10 -153 6
-42 -3 -128 -2 -190 2 -133 10 -152 5 -152 -36 0 -40 24 -46 137 -33 48 6 91
8 95 6 15 -10 8 -44 -19 -86 -43 -66 -50 -78 -83 -145 -18 -35 -36 -65 -41
-68 -5 -4 -9 -13 -9 -21 0 -15 -29 -60 -63 -98 -20 -23 -21 -30 -7 -57 20 -35
44 -22 73 38 15 32 31 65 36 73 5 8 12 22 16 30 7 17 15 31 65 110 19 30 46
76 58 102 13 26 27 50 33 53 5 4 9 15 9 25 0 30 31 40 130 44 104 4 119 -6 81
-52 -12 -15 -26 -38 -32 -52 -6 -13 -13 -27 -17 -30 -4 -3 -27 -43 -51 -90
-49 -97 -54 -106 -98 -172 -37 -53 -40 -70 -18 -88 13 -11 20 -9 40 10 14 13
25 27 25 31 0 12 19 52 40 84 11 17 23 37 27 45 3 8 18 33 32 55 37 60 111
206 111 220 0 12 21 25 41 25 5 0 9 -17 9 -38 0 -25 14 -67 40 -119 43 -84 44
-111 6 -142 -9 -7 -16 -18 -16 -23 0 -5 -16 -30 -35 -55 -19 -25 -35 -53 -35
-62 0 -19 19 -41 35 -41 12 0 55 73 55 94 0 9 4 16 10 16 5 0 13 12 16 28 8
33 22 52 38 52 7 0 36 -18 65 -40 30 -21 57 -40 62 -42 5 -2 5 -18 -1 -38 -8
-26 -7 -38 4 -48 18 -19 36 -7 36 23 0 33 14 39 49 21 16 -9 62 -18 103 -22
40 -3 86 -10 102 -15 22 -7 33 -5 45 5 9 8 36 22 61 32 41 16 106 57 168 105
54 41 131 179 147 261 7 38 15 71 17 73 5 5 47 8 81 7 30 -2 35 -17 13 -41 -7
-9 -26 -41 -42 -71 -16 -30 -32 -57 -36 -60 -4 -3 -12 -17 -18 -30 -6 -14 -26
-52 -45 -85 -19 -33 -40 -71 -47 -85 -7 -14 -23 -39 -35 -56 -32 -43 -31 -74
2 -74 18 0 28 8 36 28 6 15 15 34 20 42 5 8 12 22 15 30 3 8 10 22 15 30 5 8
14 24 19 35 6 11 24 40 40 65 16 25 40 68 55 95 14 28 37 70 50 94 14 24 25
50 25 58 0 7 1 14 3 15 1 2 1377 6 3057 9 1680 3 3069 8 3085 10 53 7 35 -23
-55 -95 -47 -38 -89 -72 -93 -76 -4 -3 -5 -14 -1 -23 9 -23 56 -22 87 3 14 11
31 20 39 20 7 0 30 9 51 20 20 11 48 20 61 20 13 0 29 7 36 15 7 8 27 15 44
15 17 1 42 7 56 15 14 8 34 14 45 15 11 0 33 7 49 15 15 8 41 15 56 15 15 0
44 7 63 15 20 8 50 15 66 15 30 0 45 19 35 44 -4 10 -28 16 -77 19 -99 7 -144
17 -158 33 -6 8 -24 14 -40 14 -16 0 -46 9 -66 20 -21 11 -50 20 -64 20 -15 0
-32 7 -39 15 -7 8 -25 15 -40 15 -15 0 -33 6 -39 14 -7 8 -27 18 -44 21 -18 4
-39 14 -48 22 -9 7 -29 15 -45 16 -48 3 -44 -32 8 -71 24 -17 63 -49 88 -71
39 -34 43 -41 31 -55 -9 -11 -20 -14 -30 -9 -9 4 -774 10 -1701 13 l-1685 5
-5 140 c-4 77 -11 153 -18 168 -7 16 -12 46 -12 68 0 22 -5 50 -11 62 -7 11
-18 42 -25 67 -23 79 -51 152 -62 159 -6 3 -13 24 -17 45 -8 38 -8 39 21 33
16 -3 40 -8 52 -12 42 -13 23 34 -28 73 -77 58 -161 144 -158 161 2 9 14 17
28 19 40 4 283 81 435 137 39 15 84 30 100 34 17 4 40 13 52 19 12 7 29 12 38
12 9 0 31 6 48 14 40 18 124 46 157 53 14 2 39 11 57 19 17 8 38 14 47 14 8 0
30 6 48 14 18 8 69 25 113 39 44 14 132 44 195 67 63 23 129 45 145 50 17 5
48 15 70 24 22 8 47 15 56 16 9 0 30 7 45 15 16 8 40 15 54 15 14 0 34 7 44
15 11 8 31 15 44 15 13 0 33 5 45 12 12 6 35 15 52 19 39 10 124 38 150 50 31
13 136 49 173 58 18 5 38 13 45 19 7 5 28 12 48 16 21 4 42 13 49 21 21 25 38
17 66 -32 56 -97 86 -133 140 -170 96 -65 137 -85 199 -94 33 -5 79 -12 101
-15 26 -4 44 -2 48 5 4 6 26 11 48 11 44 0 133 43 212 103 55 41 150 185 171
260 18 64 23 142 12 197 -15 76 -15 75 28 80 35 4 40 9 43 33 3 21 -1 27 -17
27 -11 0 -23 -4 -26 -10 -3 -5 -17 -10 -31 -10 -19 0 -33 13 -64 63 -50 80
-98 137 -116 137 -8 0 -19 10 -25 23 -9 20 -2 37 50 124 34 55 61 104 61 108
0 3 15 30 33 58 38 58 59 95 108 182 18 33 43 78 56 100 12 22 27 49 32 61 5
12 38 70 74 130 35 60 76 133 91 162 14 28 31 52 36 52 5 0 40 -33 77 -73 107
-114 154 -157 174 -157 25 0 24 9 -8 70 -22 43 -24 53 -12 61 8 5 21 9 29 9 9
0 33 14 53 31 51 42 37 56 -68 64 -133 10 -159 15 -194 36 l-33 20 25 32 c13
18 27 42 31 55 4 12 11 22 16 22 4 0 13 12 19 28 5 15 37 72 70 127 33 55 71
120 84 145 14 25 34 61 46 80 11 19 27 49 35 65 9 17 30 55 48 86 18 31 60
103 93 160 33 57 65 111 70 121 6 9 29 52 52 95 54 101 140 252 191 333 9 14
31 54 50 90 18 36 49 90 68 121 19 31 34 59 34 63 0 3 23 43 50 87 28 44 50
83 50 86 0 3 8 17 19 31 10 15 35 59 55 97 21 39 48 88 60 110 13 22 34 60 47
85 14 25 38 64 53 88 15 24 30 51 34 60 3 9 18 35 33 57 15 22 46 78 70 125
24 47 45 87 48 90 4 3 22 36 41 74 19 38 41 71 48 73 7 3 32 -8 55 -23 23 -16
49 -32 57 -37 8 -4 29 -16 45 -27 17 -11 41 -25 55 -30 13 -6 27 -14 30 -18 3
-4 39 -27 80 -52 41 -24 105 -63 142 -87 37 -24 71 -43 76 -43 11 0 118 181
205 345 59 111 129 225 139 225 6 0 35 -16 64 -35 29 -19 57 -35 62 -35 5 0
19 -9 32 -20 13 -11 29 -20 36 -20 7 0 14 -4 16 -8 2 -4 19 -17 38 -28 19 -12
98 -59 175 -106 77 -46 147 -87 155 -91 8 -4 35 -19 60 -34 25 -14 86 -47 135
-72 67 -35 91 -53 93 -69 4 -26 9 -24 -88 -27 -85 -3 -153 -22 -158 -46 -3
-17 71 -36 188 -48 36 -4 75 -12 87 -19 12 -7 41 -12 65 -12 24 0 56 -7 72
-15 15 -8 43 -15 60 -15 17 0 49 -9 69 -19 46 -24 134 -47 143 -38 11 10 -5
57 -19 57 -32 0 -287 293 -359 413 -35 58 -54 75 -87 76 -20 1 -6 -60 30 -136
32 -68 38 -113 14 -113 -8 0 -41 20 -72 43 -32 24 -80 57 -106 73 -72 44 -78
47 -137 85 -30 20 -62 39 -70 42 -8 4 -28 16 -45 27 -16 11 -39 24 -50 29 -11
5 -74 41 -140 81 -200 121 -316 190 -320 190 -2 0 -23 12 -47 28 -24 15 -52
32 -63 39 -11 6 -85 51 -165 99 -80 48 -155 93 -167 101 -30 18 -29 30 9 89
17 27 50 85 73 129 23 44 67 121 97 170 31 50 69 115 86 145 47 87 93 172 119
215 12 22 26 47 30 55 4 8 30 53 58 100 29 47 66 110 82 140 90 164 109 200
137 255 16 33 34 78 41 100 9 28 18 41 34 43 11 2 21 0 22 -5 0 -4 2 -24 3
-43 11 -131 21 -191 33 -202 8 -6 17 -7 22 -2 15 16 41 121 41 167 0 24 7 61
15 80 8 20 15 58 15 84 0 26 7 57 15 67 8 11 15 40 15 66 0 26 8 61 20 83 11
20 20 48 20 62 0 14 8 29 20 35 22 12 26 40 8 58 -18 18 -21 16 -68 -45z
m-963 -1906 c15 -13 91 -61 168 -106 77 -45 147 -86 155 -91 8 -6 36 -21 63
-35 53 -29 61 -55 27 -98 -11 -14 -20 -28 -20 -31 0 -4 -39 -73 -86 -154 -48
-81 -100 -173 -117 -204 -16 -31 -35 -59 -42 -62 -7 -2 -31 9 -54 25 -22 17
-62 42 -88 56 -26 14 -67 38 -91 54 -24 16 -45 29 -48 29 -3 0 -35 20 -72 44
-37 24 -89 54 -114 66 -57 26 -77 47 -55 56 9 3 30 30 49 61 18 30 42 69 53
86 12 18 32 52 45 77 14 25 31 49 38 53 6 4 12 15 12 23 0 8 8 27 19 42 100
146 107 151 158 109z m-378 -229 c4 -12 4 -42 -1 -67 -5 -25 -12 -66 -16 -90
-7 -44 -39 -80 -49 -54 -2 7 -29 24 -59 38 -30 14 -54 28 -54 32 0 8 153 160
163 162 4 0 11 -9 16 -21z m-168 -223 c30 -19 58 -35 63 -35 16 0 46 -32 46
-50 0 -10 -8 -28 -19 -41 -10 -13 -32 -47 -47 -75 -34 -59 -109 -188 -132
-224 -9 -14 -31 -54 -50 -90 -18 -36 -49 -90 -68 -121 -19 -31 -34 -59 -34
-63 0 -3 -22 -42 -50 -86 -27 -44 -50 -83 -50 -86 0 -3 -8 -18 -19 -32 -10
-15 -35 -58 -55 -97 -20 -38 -41 -77 -46 -85 -5 -8 -57 -98 -115 -200 -58
-102 -110 -192 -115 -200 -5 -8 -21 -40 -36 -70 -15 -30 -30 -57 -33 -60 -4
-3 -12 -16 -19 -30 -7 -14 -18 -34 -25 -45 -46 -76 -186 -321 -211 -370 -9
-16 -31 -57 -51 -90 -19 -33 -38 -67 -42 -75 -4 -8 -21 -37 -38 -65 -18 -27
-49 -81 -70 -120 -21 -38 -49 -88 -61 -110 -12 -22 -31 -56 -41 -75 -73 -135
-97 -177 -109 -191 -8 -8 -14 -19 -14 -23 0 -4 -8 -20 -19 -34 -10 -15 -31
-49 -45 -77 -15 -27 -36 -63 -47 -80 -10 -16 -21 -36 -24 -42 -16 -41 -28 -62
-105 -192 -83 -139 -96 -162 -121 -211 -12 -25 -44 -81 -69 -125 -25 -44 -59
-105 -74 -135 -45 -87 -45 -87 -118 -63 -86 29 -123 33 -209 22 -154 -19 -309
-134 -380 -282 -12 -23 -26 -51 -32 -62 -6 -12 -11 -73 -11 -148 -1 -145 -3
-150 -79 -163 -23 -3 -51 -13 -62 -20 -11 -8 -33 -14 -50 -14 -16 0 -39 -7
-49 -15 -11 -8 -31 -15 -46 -15 -14 0 -34 -6 -45 -14 -11 -7 -33 -16 -50 -19
-31 -6 -116 -32 -150 -48 -11 -5 -63 -22 -115 -39 -52 -17 -99 -36 -104 -41
-6 -5 -22 -9 -36 -9 -14 0 -34 -6 -45 -14 -11 -7 -37 -16 -57 -20 -20 -4 -50
-13 -65 -21 -15 -8 -37 -15 -48 -15 -11 -1 -31 -7 -45 -15 -14 -8 -36 -15 -50
-15 -14 0 -34 -7 -44 -15 -11 -8 -31 -15 -45 -15 -14 -1 -37 -7 -51 -15 -14
-8 -34 -14 -45 -15 -11 0 -33 -7 -49 -15 -16 -9 -46 -20 -65 -25 -20 -5 -67
-21 -106 -35 -38 -15 -84 -30 -100 -34 -17 -4 -39 -12 -50 -18 -11 -6 -54 -21
-95 -33 -41 -12 -90 -29 -108 -36 -18 -8 -43 -14 -55 -14 -12 0 -31 -7 -41
-15 -11 -8 -31 -15 -44 -15 -13 0 -33 -5 -45 -12 -12 -6 -35 -15 -52 -19 -43
-11 -125 -39 -160 -54 -72 -31 -142 -55 -161 -55 -11 0 -29 -7 -40 -15 -10 -8
-28 -15 -39 -15 -11 0 -33 -7 -48 -15 -15 -8 -45 -17 -65 -21 -20 -4 -42 -10
-47 -15 -6 -4 -29 -12 -50 -18 -38 -9 -56 -14 -135 -41 -19 -6 -48 -16 -65
-20 -46 -13 -128 -41 -150 -51 -35 -15 -138 -50 -180 -60 -22 -6 -44 -14 -50
-20 -5 -5 -18 -9 -28 -9 -10 0 -33 -6 -50 -14 -44 -19 -125 -46 -167 -55 -19
-4 -45 -13 -57 -19 -12 -7 -32 -12 -45 -12 -13 0 -29 -5 -35 -11 -6 -6 -29
-15 -50 -19 -21 -5 -90 -27 -153 -50 -63 -23 -137 -48 -165 -57 -27 -8 -54
-19 -59 -24 -6 -5 -19 -9 -29 -9 -10 0 -33 -6 -50 -14 -40 -18 -124 -46 -157
-53 -14 -2 -39 -11 -57 -19 -17 -8 -39 -14 -48 -14 -9 0 -26 -5 -38 -12 -12
-6 -38 -15 -57 -19 -31 -6 -132 -42 -320 -110 -121 -44 -177 -49 -190 -15 -5
13 -14 27 -19 31 -26 15 -9 45 47 81 89 60 365 272 436 336 11 10 38 30 60 45
23 15 43 31 46 34 3 3 32 25 64 49 33 24 76 58 95 75 20 18 99 80 176 138 77
59 210 161 295 228 85 66 189 146 230 178 41 32 86 68 100 80 43 36 45 37 62
47 9 5 33 23 54 41 54 45 156 124 314 245 74 56 171 132 215 168 95 77 79 65
186 144 47 35 121 94 165 130 43 37 102 83 129 102 28 19 95 70 150 114 55 43
143 112 195 152 78 60 308 240 345 270 6 5 51 38 100 75 50 36 117 90 150 118
33 28 85 69 115 90 30 21 71 51 90 67 147 119 226 180 356 279 82 62 174 133
204 158 63 53 50 43 165 128 50 37 120 92 156 122 37 31 79 65 94 76 104 76
186 139 257 197 46 36 187 147 313 244 127 98 232 181 235 185 3 3 30 23 60
44 30 21 82 61 116 89 104 87 137 113 201 158 34 24 104 77 155 119 88 72 152
122 483 376 169 130 291 226 325 257 14 12 48 38 75 56 28 19 93 69 145 112
52 42 106 86 120 97 14 11 75 57 135 102 61 46 139 109 175 141 37 33 74 58
86 58 12 0 46 -16 75 -35z m-2096 -3832 c47 -11 71 -25 141 -78 46 -35 104
-103 104 -122 0 -4 6 -14 13 -22 45 -53 65 -249 33 -323 -8 -18 -17 -40 -21
-48 -6 -15 -11 -24 -50 -86 -42 -65 -170 -151 -250 -166 -73 -13 -93 -13 -169
2 -80 15 -187 85 -233 154 -15 23 -41 57 -56 78 -38 48 -54 164 -38 269 10 60
20 83 69 157 46 69 72 96 127 134 39 26 81 48 95 49 14 0 34 4 45 9 23 11 132
7 190 -7z m-3018 -1435 c10 -17 23 -104 29 -205 9 -121 31 -131 69 -30 22 59
45 63 45 8 0 -22 4 -42 9 -45 4 -3 11 -28 15 -55 4 -28 10 -53 15 -55 5 -3 12
-27 16 -53 4 -27 11 -53 17 -60 5 -6 12 -38 15 -70 3 -32 11 -76 18 -98 7 -22
15 -92 16 -155 l4 -115 -1395 -5 c-767 -3 -1403 -3 -1412 -1 -11 2 -20 20 -28
54 -12 59 -6 67 53 67 21 0 48 5 60 12 12 6 38 15 57 19 19 4 51 13 70 19 90
32 110 39 185 63 44 15 112 38 150 52 39 15 84 30 100 34 17 4 40 13 52 19 12
7 29 12 38 12 9 0 31 6 48 14 40 18 124 46 157 53 14 2 39 11 57 19 17 8 38
14 47 14 8 0 30 6 48 14 18 8 69 25 113 39 44 14 132 44 195 67 63 23 129 45
145 50 59 17 131 42 163 56 18 8 43 14 55 14 13 0 27 4 33 9 5 6 27 14 49 20
22 5 54 14 70 20 17 6 84 29 150 51 66 22 152 51 190 66 39 14 84 30 100 34
50 15 135 47 142 54 10 10 31 7 40 -6z m-2952 -539 c5 -5 18 -9 28 -9 19 0 69
-27 112 -60 68 -52 165 -175 165 -208 0 -11 7 -36 16 -57 29 -70 32 -69 -181
-66 -241 3 -224 -11 -224 196 0 83 -4 163 -10 178 -8 21 -7 28 7 37 18 10 71
4 87 -11z m-134 -14 c-2 -11 -6 -115 -8 -232 l-5 -212 26 -7 c14 -3 41 -4 59
-1 17 4 113 7 212 8 172 2 180 1 178 -17 -3 -33 -31 -123 -43 -136 -6 -7 -27
-37 -48 -67 -36 -52 -105 -110 -184 -151 -55 -30 -243 -29 -302 1 -153 77
-276 252 -276 394 0 105 66 251 148 327 44 41 130 98 149 98 10 0 25 5 33 10
8 6 26 9 40 8 19 -2 24 -8 21 -23z"/>
<path d="M8345 5548 c-43 -15 -62 -35 -90 -94 -32 -68 -32 -114 1 -170 l26
-45 102 4 101 3 -3 44 c-1 24 5 66 14 94 39 122 41 140 23 152 -6 3 -21 1 -33
-6 -19 -10 -28 -8 -57 9 -38 23 -42 24 -84 9z m73 -64 c18 -12 22 -25 22 -69
0 -47 -4 -58 -34 -89 -35 -37 -54 -43 -86 -26 -43 23 -26 133 28 177 32 27 40
28 70 7z"/>
<path d="M8540 5327 c0 -8 -9 -22 -20 -32 -11 -10 -20 -24 -20 -32 0 -23 30
-27 45 -7 16 21 18 16 15 -35 -1 -18 4 -37 11 -41 21 -14 39 1 39 30 0 33 24
45 71 35 56 -13 49 -50 -17 -91 -21 -13 -50 -28 -65 -34 -18 -8 -30 -26 -44
-65 -10 -30 -15 -58 -11 -62 4 -4 23 -6 42 -4 19 1 40 -2 47 -7 7 -5 31 -12
54 -15 54 -7 93 20 93 64 0 32 -14 37 -44 14 -29 -22 -93 -19 -106 4 -5 11
-10 22 -10 25 0 6 84 46 98 46 4 0 20 13 35 28 33 35 36 82 6 123 -19 28 -24
29 -99 29 -69 0 -78 2 -83 20 -6 22 -37 28 -37 7z"/>
<path d="M4970 2888 c-34 -36 -60 -98 -60 -142 0 -42 28 -115 45 -116 6 0 23
-7 38 -15 25 -13 32 -13 57 0 37 19 54 19 91 -1 36 -18 59 -12 99 27 24 25 28
34 20 50 -14 26 -34 24 -54 -6 -18 -27 -41 -33 -49 -12 -2 6 4 37 14 67 10 30
18 63 18 73 1 11 9 32 18 48 24 40 7 57 -42 42 -20 -7 -37 -7 -41 -2 -3 5 -34
9 -69 9 -54 0 -68 -4 -85 -22z m144 -49 c15 -42 -2 -114 -34 -149 -51 -54
-100 -32 -100 46 0 49 11 76 43 112 29 32 78 27 91 -9z"/>
<path d="M5376 2730 c-40 -36 -46 -65 -16 -75 18 -6 20 -15 20 -82 0 -61 -4
-81 -22 -105 -21 -30 -21 -31 -3 -44 32 -24 125 -15 125 12 0 7 -10 22 -21 33
-20 18 -21 29 -19 128 1 59 3 119 3 133 3 36 -25 36 -67 0z"/>
<path d="M7893 3110 c-51 -21 -50 -72 3 -106 24 -16 26 -16 49 6 31 29 32 52
3 85 -24 28 -24 27 -55 15z"/>
<path d="M10670 9545 c-7 -9 -10 -27 -7 -44 3 -15 -1 -52 -8 -82 -8 -30 -15
-78 -15 -106 0 -62 16 -77 92 -86 l46 -6 31 48 c45 70 39 161 -13 175 -26 7
-44 -10 -28 -26 7 -7 12 -35 12 -63 0 -44 -3 -53 -24 -65 -39 -20 -56 -7 -56
43 0 29 7 53 20 70 51 64 1 204 -50 142z"/>
<path d="M10293 9267 c-49 -18 -76 -75 -77 -164 -1 -62 2 -75 23 -97 19 -20
34 -26 67 -26 25 0 49 6 58 15 8 8 21 15 29 15 8 0 20 -7 27 -15 7 -9 29 -15
54 -15 35 0 46 5 64 30 43 58 18 90 -32 41 -37 -36 -73 -34 -61 3 4 11 10 39
15 61 4 22 15 58 24 79 19 42 14 86 -8 86 -7 0 -25 -9 -39 -20 l-26 -20 -33
20 c-37 23 -41 23 -85 7z m87 -56 c19 -36 12 -116 -12 -147 -37 -48 -48 -53
-72 -28 -29 28 -14 130 24 172 26 27 46 28 60 3z"/>
<path d="M10670 8971 c-40 -16 -47 -25 -67 -74 -26 -66 -21 -90 27 -130 45
-38 123 -35 136 5 9 29 -11 46 -36 30 -24 -15 -60 -16 -60 -2 0 6 17 19 38 28
53 24 92 62 92 88 0 16 -13 32 -37 49 -44 29 -36 29 -93 6z m63 -47 c8 -8 -33
-84 -45 -84 -4 0 -10 11 -14 25 -9 38 36 82 59 59z"/>
<path d="M1933 8628 c-6 -7 -14 -46 -18 -86 -4 -39 -11 -75 -16 -78 -5 -3 -9
-22 -9 -42 0 -21 -6 -47 -14 -58 -8 -11 -18 -38 -22 -60 -4 -21 -13 -48 -20
-59 -8 -11 -14 -34 -14 -51 0 -17 -7 -37 -15 -44 -8 -7 -15 -24 -15 -39 0 -15
-7 -36 -15 -47 -13 -20 -45 -100 -45 -116 0 -5 11 -8 24 -8 23 0 51 33 119
141 11 16 24 29 30 29 6 0 20 9 32 20 12 11 29 18 37 15 8 -3 41 -43 72 -89
56 -81 116 -130 131 -105 8 12 -24 109 -36 109 -5 0 -12 18 -15 40 -4 22 -13
45 -20 51 -8 6 -14 29 -14 50 0 21 -6 41 -14 46 -7 4 -15 29 -18 55 -3 26 -13
54 -22 63 -9 9 -16 32 -16 51 0 19 -4 42 -10 52 -5 9 -13 51 -17 92 -7 66 -11
75 -29 78 -11 2 -25 -3 -31 -10z"/>
<path d="M1045 7933 c-58 -59 -40 -93 25 -48 54 38 80 15 45 -39 -9 -13 -18
-46 -22 -74 -6 -50 -6 -50 36 -76 47 -30 76 -33 89 -10 5 9 14 14 21 10 35
-22 -29 -116 -79 -116 -25 0 -29 4 -32 33 -3 28 -7 32 -33 35 -42 3 -59 -10
-51 -41 16 -65 133 -95 194 -51 29 22 82 116 82 147 0 11 6 33 14 50 30 65 66
164 66 179 0 21 -45 28 -70 11 -12 -9 -20 -25 -20 -44 0 -59 -75 -189 -109
-189 -40 0 -54 60 -26 110 8 14 14 48 15 76 0 45 -3 52 -25 62 -47 22 -81 15
-120 -25z"/>
<path d="M1478 7759 c-20 -11 -24 -44 -8 -54 15 -9 12 -61 -4 -74 -16 -13 -28
-145 -16 -177 6 -15 20 -23 49 -28 48 -7 77 3 114 39 24 25 27 35 27 96 0 77
-10 89 -74 89 l-36 0 0 48 c0 26 -5 53 -12 60 -14 14 -18 14 -40 1z m100 -194
c2 -33 -2 -45 -23 -65 -33 -31 -59 -18 -63 33 -4 43 27 80 61 75 18 -2 23 -11
25 -43z"/>
<path d="M11603 6624 c-3 -8 -1 -20 6 -27 13 -13 15 -54 2 -61 -18 -12 -34
-140 -22 -177 15 -47 58 -66 112 -50 53 16 83 60 83 123 0 42 -4 53 -30 74
-16 13 -41 27 -56 30 -29 7 -32 15 -19 49 5 11 4 28 -1 38 -11 22 -66 23 -75
1z m113 -159 c8 -32 -1 -64 -26 -94 -30 -35 -50 -21 -50 34 0 55 17 85 47 85
16 0 25 -8 29 -25z"/>
<path d="M11305 6377 c-34 -19 -40 -28 -43 -61 -4 -50 15 -77 77 -107 59 -27
67 -56 25 -84 -33 -21 -51 -14 -62 26 -15 61 -73 65 -80 6 -5 -41 13 -63 65
-80 44 -14 53 -14 95 0 36 11 50 23 62 48 9 18 16 39 16 47 0 17 -58 88 -72
88 -6 0 -26 9 -44 21 -33 20 -33 21 -17 45 22 34 52 27 82 -19 20 -30 30 -37
50 -35 20 2 27 10 29 30 5 44 -14 65 -72 82 -67 20 -63 20 -111 -7z"/>
<path d="M11592 6038 c-12 -6 -25 -23 -28 -37 -3 -14 -12 -38 -20 -53 -19 -35
-18 -46 8 -95 22 -41 25 -43 71 -43 38 0 53 5 73 25 30 30 28 54 -4 66 -19 7
-25 5 -29 -11 -6 -22 -40 -37 -54 -23 -14 14 0 43 20 44 45 2 68 12 94 39 15
17 27 37 27 44 0 26 -31 46 -70 46 -21 0 -44 2 -52 4 -7 3 -23 0 -36 -6z m92
-56 c6 -9 -46 -52 -63 -52 -12 0 -19 21 -13 43 3 12 14 17 38 17 18 0 35 -4
38 -8z"/>
<path d="M5285 4979 c-4 -6 -2 -31 5 -55 11 -39 11 -47 -4 -62 -12 -14 -16
-39 -16 -99 0 -70 3 -82 23 -101 33 -31 83 -29 113 4 13 14 24 30 24 35 0 6 7
17 15 25 8 9 15 33 15 55 0 42 -31 82 -77 100 -18 7 -23 16 -23 47 0 21 -5 43
-12 50 -15 15 -55 16 -63 1z m103 -161 c29 -29 0 -118 -38 -118 -17 0 -40 38
-40 66 0 16 43 64 58 64 4 0 13 -5 20 -12z"/>
<path d="M4865 4772 c-27 -23 -49 -67 -41 -81 13 -20 46 -12 56 14 11 29 37
42 52 27 7 -7 6 -25 -6 -58 -9 -26 -16 -59 -16 -74 0 -14 -6 -34 -14 -45 -7
-11 -16 -38 -20 -60 -5 -24 -20 -53 -38 -71 -47 -49 -36 -69 39 -70 68 -2 79
8 62 53 -7 18 -6 42 2 80 7 29 14 53 15 53 2 0 23 -11 48 -25 43 -24 45 -24
90 -9 25 9 48 23 51 34 3 10 15 28 26 41 18 20 20 34 17 88 -4 58 -7 66 -39
92 -45 38 -93 39 -131 2 l-28 -27 -28 27 c-32 31 -68 34 -97 9z m239 -54 c23
-32 20 -73 -10 -124 -21 -36 -31 -44 -55 -44 -19 0 -34 8 -45 25 -15 24 -15
29 1 72 20 51 55 93 79 93 8 0 22 -10 30 -22z"/>
<path d="M9464 4693 c-20 -47 -5 -107 43 -174 18 -26 33 -55 33 -65 -1 -25
-66 -114 -85 -114 -24 0 -30 22 -35 135 l-5 110 -43 3 c-36 3 -47 -1 -73 -27
-36 -36 -37 -74 -1 -79 14 -2 22 2 22 11 0 16 49 65 51 51 1 -5 2 -52 3 -104
1 -81 5 -101 25 -132 14 -24 31 -38 43 -38 32 0 99 60 119 107 11 25 29 48 44
55 30 14 32 37 4 61 -19 17 -20 20 -5 36 24 26 21 107 -6 159 -22 40 -25 42
-71 42 -46 0 -49 -2 -63 -37z m104 -61 c16 -41 23 -92 13 -92 -26 0 -43 16
-61 57 -24 56 -25 61 -2 65 27 6 39 -1 50 -30z"/>
<path d="M5294 4396 c-78 -34 -112 -146 -60 -195 34 -32 109 -40 136 -16 22
20 26 50 9 60 -5 4 -18 0 -28 -9 -19 -18 -47 -21 -55 -7 -7 10 54 51 75 51 21
0 49 37 49 63 0 30 -39 67 -71 67 -13 -1 -38 -7 -55 -14z m61 -56 c8 -12 -34
-60 -53 -60 -21 0 -25 30 -7 50 20 22 50 26 60 10z"/>
<path d="M9665 4362 c-51 -20 -56 -28 -53 -77 3 -45 25 -54 43 -19 28 57 64
69 105 36 28 -23 19 -46 -28 -69 -20 -10 -56 -31 -79 -46 -41 -26 -43 -30 -43
-76 0 -55 19 -81 40 -56 16 19 25 19 46 -2 12 -13 33 -18 70 -18 29 0 55 2 57
5 12 12 16 56 7 70 -8 13 -13 13 -41 -2 -38 -22 -52 -22 -89 -3 -40 21 -38 41
8 55 68 23 121 62 128 97 11 55 -6 83 -61 104 -58 22 -58 22 -110 1z"/>
<path d="M9020 4333 c1 -10 13 -27 27 -38 74 -56 263 -272 289 -330 8 -16 18
-37 22 -45 26 -46 42 -83 42 -93 0 -7 6 -24 14 -38 7 -14 17 -48 21 -75 9 -64
26 -95 69 -127 39 -30 77 -35 96 -12 7 8 23 15 36 15 30 0 51 35 33 56 -16 19
-37 18 -82 -6 -20 -11 -41 -20 -47 -20 -15 0 -40 55 -40 87 0 28 -48 155 -83
218 -9 17 -21 41 -27 55 -6 13 -14 27 -18 30 -4 3 -18 25 -31 49 -31 58 -35
63 -106 135 -80 81 -116 111 -164 135 -49 25 -51 26 -51 4z"/>
<path d="M10598 3977 c-8 -8 -28 -18 -46 -22 -38 -8 -46 -18 -38 -52 6 -21 11
-24 34 -18 54 13 127 59 127 80 0 25 -55 33 -77 12z"/>
<path d="M10396 3913 c-4 -4 -26 -13 -49 -18 -79 -20 -50 -84 31 -67 39 9 84
48 80 70 -3 18 -48 29 -62 15z"/>
<path d="M10151 3839 c-50 -26 -68 -46 -54 -60 16 -16 51 -14 103 6 58 21 64
28 51 54 -14 26 -52 26 -100 0z"/>
<path d="M9990 3766 c-6 -8 -26 -16 -43 -18 -24 -2 -32 -8 -32 -23 0 -16 8
-21 43 -23 68 -5 145 53 96 72 -26 10 -51 7 -64 -8z"/>
<path d="M9752 3699 c-34 -16 -43 -25 -40 -42 4 -28 40 -34 73 -13 13 9 30 16
38 16 7 0 22 6 32 14 16 12 17 16 6 30 -18 21 -57 20 -109 -5z"/>
<path d="M9357 3565 c-49 -34 -51 -65 -3 -65 19 0 38 5 41 10 3 6 14 10 24 10
9 0 25 6 35 13 15 11 17 17 7 35 -16 30 -57 28 -104 -3z"/>
<path d="M9205 3521 c-53 -9 -65 -17 -65 -46 0 -28 16 -41 33 -27 7 5 32 12
56 15 53 7 70 20 55 45 -13 20 -25 22 -79 13z"/>
<path d="M9034 3465 c-10 -8 -27 -15 -36 -15 -27 0 -72 -44 -65 -63 8 -21 50
-22 67 -3 6 8 23 16 38 18 28 3 54 41 45 64 -7 18 -24 18 -49 -1z"/>
<path d="M8762 3383 c-19 -4 -23 -10 -20 -36 3 -32 3 -32 53 -28 74 5 116 31
93 58 -10 13 -76 15 -126 6z"/>
<path d="M8623 3339 c-6 -6 -26 -14 -45 -18 -25 -5 -34 -13 -36 -30 -5 -31 15
-43 58 -35 61 10 92 32 88 62 -2 20 -9 28 -28 30 -14 2 -30 -2 -37 -9z"/>
<path d="M5640 1882 c-36 -37 -41 -93 -10 -132 11 -14 20 -28 20 -32 0 -4 13
-26 29 -49 28 -42 28 -43 12 -78 -27 -58 -52 -91 -71 -91 -26 0 -43 77 -34
159 5 59 4 68 -15 85 -46 42 -131 0 -131 -65 0 -44 20 -46 53 -6 16 21 33 34
38 31 13 -7 11 -61 -2 -70 -18 -11 9 -160 32 -175 8 -5 32 -9 55 -9 33 0 45 5
60 26 10 14 24 32 30 38 6 7 15 27 19 44 5 25 11 32 24 27 10 -3 24 1 31 10
10 12 10 19 -3 38 -21 33 -27 109 -8 123 13 10 13 18 -2 66 -14 44 -23 56 -50
68 -17 7 -35 15 -39 18 -5 2 -21 -10 -38 -26z m79 -89 c12 -33 12 -47 3 -68
-13 -28 -32 -26 -32 4 0 10 -7 24 -15 31 -18 15 -20 51 -3 68 19 19 32 9 47
-35z"/>
<path d="M5810 1571 c-22 -29 -28 -42 -18 -45 50 -15 48 -11 48 -105 0 -82 -2
-92 -26 -120 -14 -17 -23 -35 -19 -41 3 -5 35 -10 71 -10 56 0 64 2 64 19 0
10 -7 24 -15 31 -11 9 -15 44 -17 159 l-3 146 -26 3 c-21 2 -33 -6 -59 -37z"/>
<path d="M8023 732 c-63 -67 -67 -82 -26 -82 18 0 35 10 48 27 23 28 45 25 45
-8 0 -36 -34 -141 -47 -146 -7 -3 -24 2 -38 11 -23 15 -25 15 -35 -4 -6 -12
-10 -35 -8 -53 3 -27 8 -33 32 -35 16 -2 40 2 53 9 19 10 28 10 43 1 11 -7 40
-12 64 -12 37 0 48 5 71 31 17 21 25 41 23 58 -4 38 -33 39 -46 1 -13 -36 -33
-46 -62 -30 -16 9 -20 17 -16 33 4 12 12 43 19 70 7 26 21 55 30 64 15 16 18
16 35 0 33 -30 72 -15 72 29 0 52 -63 72 -100 32 l-20 -22 -29 22 c-50 37 -77
38 -108 4z"/>
<path d="M8356 538 c-6 -19 -18 -99 -19 -133 -2 -27 1 -30 28 -28 75 5 92 5
117 -2 21 -6 29 -3 34 10 8 21 -27 52 -68 61 -25 6 -28 11 -28 45 0 28 -5 41
-19 49 -26 13 -41 13 -45 -2z"/>
</g>
</svg>
