<?xml version="1.0" standalone="no"?>
<!DOCTYPE svg PUBLIC "-//W3C//DTD SVG 20010904//EN"
 "http://www.w3.org/TR/2001/REC-SVG-20010904/DTD/svg10.dtd">
<svg version="1.0" xmlns="http://www.w3.org/2000/svg"
 width="1854.000000pt" height="1311.000000pt" viewBox="0 0 1854.000000 1311.000000"
 preserveAspectRatio="xMidYMid meet">
<metadata>
Created by potrace 1.10, written by Peter Selinger 2001-2011
</metadata>
<g transform="translate(0.000000,1311.000000) scale(0.100000,-0.100000)"
fill="#000000" stroke="none">
<path d="M7273 12479 c-29 -11 -29 -33 -1 -53 25 -18 48 -6 48 24 0 26 -21 39
-47 29z"/>
<path d="M413 12464 c-3 -8 -1 -20 6 -27 14 -14 15 -197 1 -197 -5 0 -10 12
-10 26 0 22 -4 25 -27 22 -37 -4 -43 -44 -12 -77 18 -19 29 -22 57 -17 19 3
39 11 44 18 4 7 8 58 8 112 0 77 4 103 16 117 23 25 9 39 -37 39 -27 0 -42 -5
-46 -16z"/>
<path d="M605 12472 c-35 -24 -50 -69 -50 -145 0 -76 1 -80 33 -108 66 -59
144 -28 173 68 15 51 -1 120 -39 164 -19 24 -32 29 -65 29 -23 0 -47 -4 -52
-8z m85 -64 c27 -45 27 -117 -1 -152 -11 -14 -27 -26 -34 -26 -25 0 -55 56
-55 102 0 48 31 108 55 108 8 0 24 -15 35 -32z"/>
<path d="M819 12475 c0 -3 -1 -67 -1 -142 l-1 -138 24 -3 c37 -4 53 11 40 36
-15 27 -14 195 0 209 19 19 2 43 -31 43 -16 0 -30 -2 -31 -5z"/>
<path d="M936 12471 c-8 -13 29 -79 57 -101 14 -11 45 -54 69 -95 50 -87 78
-100 78 -35 0 48 -18 90 -39 90 -15 0 -29 19 -74 100 -11 19 -25 38 -31 42
-15 10 -54 10 -60 -1z"/>
<path d="M1085 12469 c-4 -5 0 -18 9 -28 9 -10 16 -33 16 -52 0 -25 3 -30 10
-19 5 8 7 22 4 32 -3 10 4 22 17 32 29 20 18 46 -20 46 -16 0 -33 -5 -36 -11z"/>
<path d="M1193 12465 c-13 -22 -3 -85 12 -85 7 0 16 11 19 25 4 16 13 25 27
25 19 0 20 -5 18 -92 -2 -52 -8 -104 -16 -118 -7 -14 -13 -30 -13 -37 0 -17
52 -25 84 -13 26 10 27 12 13 33 -9 15 -16 57 -18 122 -4 99 5 131 26 87 22
-48 55 -37 55 18 0 47 -7 50 -115 50 -65 0 -86 -4 -92 -15z"/>
<path d="M1694 12465 c-9 -23 3 -45 24 -45 25 0 46 25 38 45 -7 19 -55 20 -62
0z"/>
<path d="M2191 12461 c-22 -22 -28 -65 -11 -76 14 -9 13 -138 -1 -152 -7 -7
-9 -19 -6 -27 7 -18 81 -22 106 -7 16 10 6 31 -14 31 -11 0 -15 25 -17 122 -3
106 -5 123 -20 126 -9 2 -26 -6 -37 -17z"/>
<path d="M5993 12472 c-9 -6 -10 -25 -2 -77 9 -65 6 -126 -9 -150 -3 -5 -9 1
-12 15 -4 16 -14 26 -28 28 -19 3 -22 -1 -22 -32 0 -60 69 -88 110 -44 16 18
20 35 20 97 0 42 5 92 10 111 8 29 7 37 -7 48 -19 14 -42 15 -60 4z"/>
<path d="M6388 12473 c-22 -5 -22 -13 -3 -49 21 -41 20 -162 -1 -193 -14 -19
-14 -25 -3 -32 8 -5 25 -8 39 -7 l24 3 1 137 c0 152 -1 156 -57 141z"/>
<path d="M6660 12470 c-12 -7 -12 -15 -3 -42 18 -50 27 -118 16 -118 -14 0
-34 26 -77 98 -32 53 -41 62 -67 62 -16 0 -29 -5 -29 -10 0 -20 40 -89 58
-102 10 -7 38 -46 62 -86 34 -58 47 -72 64 -70 20 3 21 10 26 133 3 82 1 133
-5 137 -13 10 -27 10 -45 -2z"/>
<path d="M11001 12471 c-9 -6 -11 -16 -6 -27 10 -27 24 -162 17 -186 -6 -25
-37 -19 -37 7 0 25 -40 33 -49 10 -9 -25 4 -64 24 -75 30 -16 75 -12 93 8 13
14 17 38 17 98 0 43 5 96 11 118 8 31 8 41 -3 47 -17 11 -49 11 -67 0z"/>
<path d="M11395 12470 c-4 -6 -7 -70 -7 -143 l-1 -132 33 0 33 0 0 134 c0 102
-4 135 -14 142 -19 12 -36 11 -44 -1z"/>
<path d="M11670 12470 c-13 -8 -13 -14 4 -42 24 -42 33 -128 14 -128 -7 0 -38
37 -69 83 -43 63 -62 83 -83 85 -21 3 -26 -1 -26 -18 0 -31 25 -74 52 -88 23
-12 42 -39 82 -114 20 -38 47 -55 66 -43 6 4 8 37 4 88 -4 49 -2 98 4 121 16
55 -8 82 -48 56z"/>
<path d="M12812 12457 c-23 -24 -29 -61 -12 -72 6 -3 10 -39 10 -79 0 -60 -3
-76 -20 -91 -37 -33 -26 -45 44 -45 79 0 100 22 41 43 -6 2 -9 47 -7 115 4
154 -7 181 -56 129z"/>
<path d="M6159 12452 c-88 -92 -48 -262 60 -262 46 0 79 23 97 66 28 68 10
164 -37 198 -31 21 -99 20 -120 -2z m79 -31 c20 -12 42 -60 42 -90 -1 -36 -32
-95 -52 -99 -9 -2 -26 6 -37 17 -31 31 -30 132 1 161 24 22 27 23 46 11z"/>
<path d="M6758 12446 c-21 -47 19 -80 43 -35 9 17 13 19 20 8 12 -20 11 -156
-2 -202 -12 -45 -12 -45 27 -53 37 -7 74 17 57 37 -6 8 -14 57 -18 110 -5 76
-4 98 8 107 11 10 16 7 25 -13 14 -30 28 -32 42 -6 7 13 7 28 0 45 -9 25 -12
26 -100 26 -86 0 -91 -1 -102 -24z"/>
<path d="M11169 12457 c-28 -22 -49 -75 -49 -127 0 -87 42 -140 111 -140 31 0
43 6 68 37 27 32 31 46 31 96 0 59 -19 111 -49 134 -9 7 -34 12 -56 12 -22 0
-47 -5 -56 -12z m102 -75 c24 -63 -14 -162 -57 -148 -29 9 -55 90 -42 130 23
67 76 77 99 18z"/>
<path d="M11762 12458 c-17 -17 -15 -58 4 -65 8 -3 25 4 38 16 18 17 25 19 29
9 7 -20 -4 -192 -14 -202 -26 -28 -3 -56 46 -56 37 0 49 23 31 59 -22 42 -23
201 -1 201 8 0 22 -11 31 -25 13 -20 19 -23 30 -14 15 12 18 46 8 73 -5 13
-23 16 -98 16 -58 0 -96 -4 -104 -12z"/>
<path d="M12285 12460 c-14 -22 6 -50 36 -50 26 0 29 3 29 30 0 27 -3 30 -29
30 -17 0 -33 -5 -36 -10z"/>
<path d="M12556 12414 c-3 -9 -6 -27 -6 -40 0 -21 -4 -24 -39 -24 -41 0 -67
-20 -57 -45 4 -10 19 -15 50 -15 l45 0 3 -47 c3 -40 6 -48 23 -48 16 0 20 7
22 35 1 19 2 40 2 47 1 6 18 13 39 15 29 2 38 7 40 25 3 22 -4 26 -63 35 -14
2 -20 11 -21 28 0 14 -1 31 -2 38 -3 17 -29 15 -36 -4z"/>
<path d="M1629 12369 c-25 -25 -20 -44 12 -44 23 0 24 -3 24 -65 0 -55 3 -65
18 -68 54 -11 104 35 73 66 -14 14 -16 14 -22 -1 -3 -9 -10 -17 -15 -17 -12 0
-11 37 1 45 6 3 10 26 10 49 0 37 -4 45 -22 50 -39 10 -57 7 -79 -15z"/>
<path d="M7200 12370 c-11 -11 -20 -25 -20 -30 0 -17 31 -24 40 -9 16 24 24
-1 12 -34 -7 -19 -12 -47 -12 -64 0 -32 17 -43 66 -43 27 0 68 44 61 64 -8 20
-26 21 -33 1 -4 -8 -12 -15 -20 -15 -10 0 -12 14 -7 66 5 51 3 68 -8 75 -24
15 -58 10 -79 -11z"/>
<path d="M12233 12382 c-7 -4 -14 -19 -15 -32 -2 -19 2 -26 19 -28 19 -3 21
-7 16 -62 -6 -57 -5 -59 21 -66 37 -9 74 3 81 27 9 28 -9 46 -30 29 -24 -20
-29 -4 -11 34 20 43 20 70 0 90 -16 17 -61 21 -81 8z"/>
<path d="M1847 12343 c-4 -3 -7 -17 -7 -30 0 -23 1 -23 110 -23 l110 0 0 30 0
30 -103 0 c-57 0 -107 -3 -110 -7z"/>
<path d="M11527 12334 c-4 -4 -7 -26 -7 -48 0 -23 -4 -48 -10 -56 -12 -19 6
-40 35 -40 26 0 38 20 24 41 -5 8 -9 25 -9 39 -1 30 -23 73 -33 64z"/>
<path d="M960 12290 c0 -20 -7 -46 -16 -59 -14 -19 -14 -25 -3 -32 17 -10 32
-11 53 -3 20 8 21 33 1 40 -8 4 -15 18 -15 33 0 14 -5 33 -10 41 -7 11 -10 6
-10 -20z"/>
<path d="M6541 12273 c0 -7 -11 -21 -22 -32 -27 -25 -18 -51 16 -51 28 0 43
23 27 43 -5 6 -12 21 -15 32 -2 11 -5 15 -6 8z"/>
<path d="M11931 11817 c-6 -6 -11 -19 -11 -28 0 -10 -4 -20 -9 -24 -5 -3 -13
-20 -17 -38 -3 -17 -17 -54 -30 -80 -12 -26 -25 -61 -29 -77 -3 -15 -12 -31
-19 -33 -7 -3 -46 5 -87 18 -137 43 -181 55 -199 55 -10 0 -34 7 -53 15 -20 8
-52 15 -70 15 -19 0 -47 5 -63 10 -77 27 -524 28 -558 1 -6 -4 -24 -11 -41
-15 -16 -4 -44 -21 -61 -37 l-31 -30 -242 20 c-132 12 -313 21 -401 21 -279 0
-741 -45 -980 -95 -41 -9 -106 -22 -145 -30 -134 -27 -168 -35 -179 -44 -6 -4
-29 -12 -51 -15 -22 -4 -53 -11 -70 -16 -115 -36 -166 -54 -171 -61 -3 -5 -14
-9 -24 -9 -25 0 -92 -22 -245 -80 -53 -20 -132 -52 -150 -60 -11 -5 -42 -18
-70 -30 -77 -33 -176 -82 -218 -109 -45 -29 -64 -20 -47 23 17 47 12 152 -10
196 -31 61 -156 181 -235 226 -142 81 -304 145 -405 160 -25 4 -50 11 -57 16
-15 12 -102 29 -193 36 l-75 7 -1 35 c-1 54 -3 60 -18 60 -16 0 -26 -21 -26
-55 0 -30 -28 -39 -77 -25 -76 23 -534 -2 -587 -32 -32 -17 -140 -22 -178 -8
-31 12 -92 21 -358 50 -58 6 -127 15 -155 21 -108 19 -573 39 -930 39 -357 0
-833 -20 -940 -40 -48 -8 -110 -16 -365 -45 -165 -19 -259 -33 -273 -42 -7 -5
-48 -13 -92 -20 -180 -25 -214 -31 -246 -41 -109 -34 -268 -59 -314 -49 -55
11 -349 10 -410 -2 -120 -24 -156 -33 -258 -67 -60 -19 -114 -33 -121 -31 -8
3 -16 21 -20 41 -4 19 -13 48 -21 63 -8 15 -15 36 -15 45 0 9 -4 19 -9 22 -5
4 -12 24 -16 46 -4 22 -11 42 -16 46 -5 3 -9 13 -9 23 0 25 -22 42 -39 31 -16
-9 -9 -96 9 -114 6 -6 10 -16 10 -24 0 -8 6 -28 14 -45 73 -163 73 -169 4
-192 -29 -9 -74 -30 -101 -46 -26 -16 -50 -29 -53 -29 -9 0 -127 -72 -142 -87
-7 -7 -16 -13 -20 -13 -7 0 -61 -46 -121 -103 -48 -46 -110 -131 -133 -185
-22 -48 -21 -129 1 -168 9 -17 33 -96 62 -209 18 -67 50 -169 59 -190 5 -11
14 -38 19 -60 21 -86 28 -111 38 -130 16 -31 34 -86 45 -135 5 -25 13 -54 18
-65 5 -11 11 -29 14 -40 16 -56 158 -165 216 -165 9 0 31 -7 49 -16 27 -13 58
-15 179 -11 81 2 161 9 177 15 17 6 55 16 85 22 123 24 155 32 165 40 6 5 27
11 47 15 32 6 39 4 44 -11 11 -37 21 -49 43 -52 26 -4 29 27 5 63 -18 27 -13
32 61 55 59 19 159 68 256 126 47 29 100 55 117 59 18 3 32 10 32 15 0 5 20
12 45 16 25 3 48 10 51 15 3 5 16 9 30 9 14 0 35 5 47 12 12 6 35 15 52 19 16
4 66 17 110 29 44 12 105 28 135 35 30 8 82 21 115 31 33 9 94 22 135 30 41 7
100 18 130 23 30 6 64 15 75 20 21 10 122 25 282 41 51 6 104 15 118 20 15 6
50 10 78 10 29 0 97 7 152 16 82 14 182 16 550 16 296 0 466 -4 498 -11 26 -6
89 -14 140 -17 51 -3 103 -10 117 -15 14 -5 74 -13 133 -18 60 -5 111 -12 114
-15 3 -3 5 -79 4 -169 -2 -137 0 -166 13 -177 9 -7 16 -19 16 -28 0 -22 137
-152 195 -186 28 -16 52 -32 55 -36 3 -4 28 -17 55 -30 28 -12 73 -33 101 -46
28 -13 69 -28 90 -33 106 -27 131 -33 149 -41 23 -9 221 -44 340 -60 104 -13
451 -13 529 1 180 31 235 47 346 98 31 14 117 68 130 81 3 3 26 16 53 30 26
13 47 28 47 32 0 5 6 8 13 8 6 0 23 6 37 13 69 37 154 80 235 117 50 23 122
58 161 76 39 19 74 34 79 34 5 0 36 13 69 29 34 17 84 37 111 46 43 14 93 32
180 65 74 28 319 102 354 107 23 3 44 10 47 14 3 5 14 9 26 9 11 0 34 6 51 14
18 8 59 19 92 26 138 25 157 29 188 39 82 25 170 40 422 71 44 5 112 14 150
20 39 6 194 15 345 21 308 12 769 -1 925 -26 50 -8 107 -14 127 -15 40 0 122
-17 149 -30 8 -4 36 -6 62 -3 30 4 60 0 87 -11 22 -9 56 -16 75 -16 18 0 36
-4 39 -9 3 -5 27 -12 53 -16 27 -3 67 -13 91 -21 23 -8 60 -14 80 -14 21 0 44
-6 50 -12 17 -17 452 -18 473 -2 8 7 33 15 57 19 30 5 54 17 77 40 34 34 65
88 65 111 0 16 37 131 49 154 5 9 12 31 16 50 3 19 18 67 31 107 50 147 30
190 -164 358 -45 40 -149 105 -242 152 -41 21 -76 41 -78 46 -2 4 -8 7 -13 7
-9 0 -35 11 -134 55 -16 7 -55 21 -85 30 -75 23 -100 36 -100 52 0 7 15 46 34
85 58 125 66 145 66 176 0 32 -20 48 -39 29z m-6981 -77 c287 -18 571 -46 711
-70 30 -6 74 -10 97 -10 46 0 64 -15 30 -26 -32 -10 -151 -84 -165 -103 -30
-38 -63 -115 -63 -147 0 -77 64 -173 162 -243 62 -44 51 -70 -16 -36 -15 8
-33 15 -38 15 -6 0 -24 6 -41 14 -18 8 -75 24 -127 36 -52 13 -104 26 -115 30
-11 5 -72 18 -135 30 -63 12 -131 25 -150 30 -19 5 -66 12 -105 15 -38 4 -95
13 -125 21 -30 8 -74 14 -98 14 -24 0 -62 4 -85 10 -60 14 -447 32 -682 32
-230 0 -590 -16 -685 -31 -36 -5 -99 -15 -140 -21 -199 -30 -259 -40 -310 -49
-56 -10 -196 -40 -305 -67 -33 -8 -86 -20 -117 -27 -31 -7 -60 -16 -64 -20 -4
-4 -14 -7 -23 -7 -9 0 -28 -6 -42 -14 -14 -7 -43 -16 -65 -20 -40 -8 -114 -30
-149 -45 -11 -5 -49 -19 -85 -32 -36 -12 -78 -31 -94 -42 -15 -11 -72 -41
-125 -67 -213 -105 -228 -109 -246 -50 -6 19 -16 45 -23 57 -18 33 -15 41 26
60 96 45 152 115 152 189 0 68 -71 130 -159 141 -76 9 -221 -47 -272 -104 -65
-73 -77 -150 -31 -200 42 -47 82 -63 161 -63 64 0 70 -2 76 -22 4 -13 16 -43
27 -68 l20 -44 -21 -17 c-11 -9 -48 -20 -81 -24 -33 -4 -63 -11 -66 -16 -3 -5
-18 -9 -33 -9 -16 0 -48 -7 -72 -16 -65 -24 -361 -25 -404 -1 -16 9 -35 17
-41 17 -5 0 -28 9 -51 19 -53 26 -78 86 -62 146 39 144 236 316 513 449 43 21
86 36 96 33 11 -3 26 3 35 13 9 10 42 25 73 35 31 9 75 23 97 30 22 7 56 18
76 24 19 6 64 14 100 17 35 4 72 11 83 16 23 12 295 11 310 -1 22 -17 65 -21
112 -10 27 5 70 14 95 19 26 5 55 13 65 18 19 10 96 24 227 42 37 5 76 14 87
20 10 5 35 10 54 10 19 0 55 6 78 14 24 8 90 19 148 25 153 16 184 20 300 36
394 55 1196 77 1700 45z m1658 -56 c17 -3 22 -9 17 -24 -3 -10 -6 -66 -7 -124
-1 -108 -7 -123 -43 -110 -35 14 -122 -7 -178 -43 l-57 -36 0 -54 c0 -50 3
-57 38 -89 92 -85 269 -127 412 -97 61 13 101 35 139 78 35 40 39 68 13 106
-51 75 -124 115 -245 134 l-39 6 7 107 c9 143 10 145 48 138 18 -4 70 -13 117
-20 94 -16 159 -32 207 -52 17 -8 39 -14 48 -14 20 0 118 -32 125 -41 3 -4 30
-17 60 -30 99 -41 197 -107 268 -178 39 -39 82 -115 82 -145 0 -69 -46 -138
-117 -176 -21 -12 -45 -25 -53 -30 -124 -74 -346 -112 -635 -108 l-180 3 0 38
c0 36 -19 62 -37 51 -4 -3 -8 -23 -8 -44 0 -46 -9 -54 -45 -40 -15 6 -66 17
-114 25 -171 28 -278 53 -321 75 -9 4 -31 11 -50 15 -19 4 -41 11 -50 16 -8 5
-46 23 -85 40 -72 33 -177 109 -230 167 -42 47 -85 123 -85 150 0 61 84 158
175 203 28 13 52 27 55 31 3 3 19 10 35 14 17 4 35 10 40 14 6 5 33 11 60 14
28 4 66 11 85 16 84 24 458 33 548 14z m4652 -74 c8 -4 40 -11 70 -14 69 -9
199 -36 225 -47 21 -9 75 -23 160 -41 60 -13 90 -35 74 -54 -13 -15 -5 -44 11
-44 6 0 22 12 35 26 26 28 28 28 110 -6 11 -5 76 -32 145 -61 69 -29 142 -63
163 -76 21 -14 46 -27 55 -31 34 -14 159 -100 214 -148 108 -93 146 -163 124
-230 -21 -67 -307 -99 -551 -61 -148 23 -248 42 -320 62 -33 9 -78 20 -100 23
-46 8 -56 29 -31 67 21 32 20 55 -2 55 -18 0 -35 -24 -47 -67 -8 -28 -22 -29
-77 -4 -24 10 -68 26 -98 36 -30 9 -69 23 -87 31 -17 8 -34 14 -39 14 -9 0
-113 47 -134 61 -8 5 -27 14 -42 20 -16 6 -28 15 -28 20 0 5 -5 9 -11 9 -11 0
-128 67 -139 79 -3 4 -23 18 -45 32 -58 37 -176 158 -192 196 -7 18 -13 42
-13 54 0 32 54 76 103 84 23 4 47 11 52 16 6 4 38 10 70 12 82 6 327 -4 345
-13z m-960 -65 c96 -8 210 -18 252 -21 l78 -6 9 -34 c16 -59 56 -117 128 -185
66 -62 222 -168 271 -183 12 -4 22 -12 22 -17 0 -14 -64 -11 -112 6 -192 64
-820 104 -1183 75 -223 -18 -496 -53 -517 -66 -7 -4 -46 -13 -87 -20 -126 -21
-165 -30 -186 -41 -11 -6 -65 -21 -120 -34 -55 -12 -107 -26 -115 -30 -8 -4
-80 -28 -160 -54 -80 -26 -164 -55 -187 -66 -23 -10 -45 -19 -48 -19 -3 0 -30
-11 -58 -24 -29 -13 -74 -34 -102 -46 -79 -34 -120 -54 -123 -62 -2 -5 -9 -8
-16 -8 -6 0 -43 -16 -81 -36 -168 -88 -209 -111 -297 -171 -26 -17 -50 -28
-52 -25 -2 4 0 41 5 82 19 161 28 268 29 345 l1 80 37 17 c20 9 66 30 102 46
150 69 190 86 285 123 55 22 108 44 117 49 10 6 23 10 30 10 7 0 26 7 41 15
15 8 43 17 63 21 19 3 37 10 40 15 3 5 16 9 29 9 13 0 30 6 37 13 7 7 33 18
58 24 43 11 83 22 218 58 71 20 163 40 267 60 44 9 114 23 155 31 41 8 116 19
165 25 50 5 115 14 146 19 30 6 84 10 120 11 35 1 116 7 179 14 165 18 359 18
560 0z m-3555 -183 c160 -55 198 -135 88 -183 -44 -19 -112 -25 -223 -19 -65
3 -174 52 -208 93 -8 9 -12 28 -10 44 2 22 14 33 58 55 49 24 66 28 150 28 64
-1 111 -6 145 -18z m-2215 -81 c25 -6 101 -15 170 -20 69 -6 161 -17 205 -25
44 -9 96 -18 115 -21 192 -33 268 -48 282 -56 10 -5 26 -9 35 -9 10 0 63 -12
118 -26 55 -14 125 -30 155 -36 30 -5 69 -16 87 -24 17 -8 37 -14 44 -14 23 0
275 -87 295 -102 6 -4 33 -11 60 -15 26 -3 59 -12 74 -20 14 -7 37 -13 51 -13
14 0 29 -3 33 -7 11 -12 151 -34 245 -40 l83 -5 -7 -91 c-16 -211 -12 -244 27
-215 14 11 18 39 24 148 l7 135 216 0 c211 0 268 5 426 41 85 19 222 84 273
130 61 55 64 51 57 -93 -4 -71 -11 -142 -16 -158 -5 -17 -11 -86 -14 -153 -2
-67 -8 -130 -13 -139 -5 -10 -12 -35 -16 -55 -5 -30 -16 -43 -59 -71 -46 -30
-91 -53 -162 -82 -192 -79 -623 -92 -960 -29 -49 9 -99 20 -110 25 -11 4 -58
18 -105 30 -47 11 -94 25 -105 29 -11 5 -54 18 -95 30 -41 12 -85 25 -96 30
-12 5 -43 11 -70 15 -27 4 -71 13 -98 21 -27 8 -67 14 -88 14 -22 0 -47 4 -56
9 -20 11 -141 27 -307 42 -66 5 -133 14 -150 20 -39 12 -448 34 -630 33 -183
-1 -541 -20 -556 -30 -7 -4 -71 -13 -143 -20 -246 -25 -317 -34 -336 -44 -10
-5 -34 -10 -52 -10 -18 0 -49 -5 -68 -11 -19 -5 -73 -17 -120 -24 -97 -17
-189 -36 -275 -60 -33 -9 -87 -23 -120 -30 -114 -26 -155 -38 -155 -47 0 -4
-8 -8 -18 -8 -34 0 -173 -45 -235 -76 -16 -8 -36 -14 -45 -14 -9 -1 -35 -12
-57 -25 -74 -46 -320 -165 -352 -171 -29 -6 -33 -4 -38 22 -4 16 -10 38 -15
49 -27 68 -39 104 -45 130 -8 38 -23 55 -47 55 -37 0 -32 -35 18 -133 8 -16
14 -34 14 -40 0 -7 9 -29 20 -50 27 -51 19 -75 -28 -82 -20 -4 -47 -10 -60
-16 -13 -5 -34 -9 -47 -9 -13 0 -36 -5 -52 -12 -48 -20 -224 -47 -306 -48 -84
0 -187 21 -254 52 -53 25 -133 120 -133 159 0 15 -4 31 -10 34 -5 3 -10 15
-10 27 0 11 -6 32 -14 46 -7 15 -21 54 -30 87 -42 151 -79 269 -114 370 -13
39 -26 83 -29 99 -5 28 -4 29 23 22 16 -4 43 -14 59 -23 31 -15 137 -35 190
-35 69 -1 256 20 268 30 6 5 37 12 67 16 59 8 149 34 164 47 6 5 13 9 18 9 11
0 35 -51 43 -91 8 -43 47 -95 63 -85 20 12 13 58 -18 119 -30 60 -30 87 0 87
34 0 303 116 320 139 3 3 28 16 55 29 28 13 57 27 65 31 9 5 30 12 48 15 17 4
34 12 37 17 4 5 14 9 24 9 20 0 110 25 151 42 14 6 50 17 80 24 30 7 107 25
170 39 63 15 124 31 135 35 11 5 79 18 150 30 72 12 146 25 165 30 19 5 58 12
85 15 28 4 66 11 85 16 34 9 188 23 430 39 158 11 854 4 910 -9z m-2947 -37
c50 -25 77 -55 77 -84 0 -35 -66 -111 -122 -140 -58 -30 -180 -34 -221 -7 -39
25 -50 60 -33 100 14 35 79 97 101 97 7 0 15 4 17 9 4 10 93 38 126 40 13 1
37 -6 55 -15z m8727 -115 c91 -5 206 -14 255 -19 50 -5 137 -13 195 -19 58 -6
120 -16 138 -22 35 -11 104 -24 207 -38 58 -8 137 -30 202 -58 17 -7 40 -13
51 -13 12 0 24 -4 27 -10 3 -5 16 -10 28 -10 12 0 34 -6 48 -14 14 -7 42 -16
62 -20 21 -4 37 -12 37 -18 0 -6 -13 -39 -29 -72 -54 -115 -61 -134 -61 -160
0 -19 5 -26 19 -26 26 0 35 14 66 105 31 92 54 145 61 145 3 0 20 -6 37 -14
46 -20 196 -58 302 -77 33 -6 85 -16 115 -22 31 -6 135 -12 235 -12 146 1 188
4 224 18 80 31 114 15 78 -38 -8 -11 -19 -38 -25 -60 -10 -38 -25 -84 -43
-130 -4 -11 -10 -33 -14 -49 -7 -33 -19 -46 -60 -68 -57 -30 -120 -41 -260
-45 -138 -5 -319 14 -370 38 -19 9 -46 15 -200 42 -38 7 -75 16 -82 20 -18 11
-219 40 -468 67 -55 6 -128 16 -163 22 -86 14 -825 13 -916 -2 -39 -6 -108
-13 -155 -16 -47 -3 -99 -9 -116 -14 -16 -5 -70 -11 -120 -15 -49 -3 -106 -10
-125 -14 -19 -5 -60 -14 -90 -20 -30 -6 -86 -18 -125 -26 -38 -8 -99 -19 -134
-25 -36 -6 -69 -14 -75 -19 -6 -5 -24 -11 -41 -13 -48 -8 -210 -50 -280 -73
-22 -7 -74 -23 -115 -35 -98 -30 -163 -52 -175 -60 -5 -4 -35 -15 -65 -24 -56
-18 -92 -33 -166 -67 -23 -10 -46 -19 -52 -19 -5 0 -32 -11 -59 -24 -26 -13
-73 -34 -103 -46 -69 -28 -303 -142 -310 -151 -3 -3 -16 -10 -30 -14 -14 -4
-27 -10 -30 -14 -3 -3 -23 -15 -44 -26 -22 -11 -44 -24 -50 -30 -6 -5 -27 -18
-46 -28 -19 -9 -56 -31 -83 -47 -26 -16 -71 -39 -100 -51 -28 -11 -61 -25 -72
-30 -20 -8 -95 -24 -190 -39 -27 -5 -158 -9 -290 -9 -208 0 -258 3 -375 23
-175 31 -374 83 -455 120 -164 75 -232 122 -323 221 l-62 68 -2 118 c-1 66 -2
136 -2 157 l-1 37 50 -3 c28 -2 55 -8 60 -13 6 -4 35 -13 65 -18 83 -15 153
-31 175 -41 11 -5 52 -18 90 -30 39 -12 90 -27 115 -35 25 -7 79 -21 120 -30
41 -10 97 -23 124 -31 26 -8 70 -14 96 -14 66 0 113 -18 104 -39 -8 -16 -21
-194 -25 -334 -2 -82 9 -110 34 -89 15 13 31 188 32 349 l0 92 165 -5 c252 -9
423 11 583 67 146 51 240 115 253 172 3 17 12 36 18 42 14 13 114 75 122 75 4
0 45 23 93 51 168 98 404 215 531 261 30 11 74 29 97 39 23 11 47 19 53 19 5
0 18 4 28 9 9 5 49 19 87 31 39 12 75 26 80 30 6 4 30 11 55 15 25 4 50 11 55
15 6 4 28 11 50 15 22 4 44 10 50 13 17 11 96 32 175 47 162 30 182 34 213 44
44 15 345 47 552 60 192 12 282 12 465 0z"/>
<path d="M11450 11334 c-24 -10 -60 -46 -60 -61 0 -20 30 -64 70 -100 52 -48
133 -85 297 -133 25 -8 70 -11 113 -8 61 5 76 10 101 34 16 15 29 38 29 50 0
29 -95 125 -147 148 -148 67 -153 68 -273 72 -63 2 -122 1 -130 -2z m205 -55
c5 -5 20 -9 33 -9 63 0 262 -122 262 -160 0 -17 -49 -23 -143 -18 -91 5 -113
12 -247 76 -19 9 -51 32 -71 50 -43 38 -43 69 0 75 39 5 155 -4 166 -14z"/>
<path d="M3702 10924 c-12 -8 -22 -23 -22 -33 0 -24 -29 -56 -58 -65 -23 -8
-24 -6 -20 46 3 51 2 53 -22 53 l-25 0 0 -105 c-1 -58 -5 -122 -9 -143 l-9
-38 39 3 c33 2 38 6 36 23 -14 84 -14 85 3 91 19 8 64 -39 65 -68 0 -37 12
-48 50 -48 22 0 41 4 44 8 9 15 -6 51 -23 57 -23 7 -82 86 -79 104 2 8 23 29
48 46 47 33 61 62 38 76 -19 12 -31 11 -56 -7z"/>
<path d="M2945 10808 c0 -68 -4 -133 -9 -145 -8 -23 -8 -23 82 -23 82 0 91 2
104 23 10 15 13 29 7 45 -11 29 -33 28 -53 -3 -9 -14 -25 -25 -35 -25 -36 0
-43 24 -40 137 l4 108 -30 3 -31 3 1 -123z"/>
<path d="M3159 10923 c0 -5 -1 -69 -1 -143 l0 -135 32 -3 c32 -3 33 -3 26 29
-3 17 -6 83 -6 145 l0 114 -25 0 c-14 0 -25 -3 -26 -7z"/>
<path d="M3283 10913 c-3 -9 -2 -32 3 -52 9 -34 4 -117 -11 -188 -7 -33 -7
-33 30 -33 35 0 37 1 32 28 -33 157 -26 189 23 114 68 -104 93 -133 104 -122
6 6 12 54 13 113 1 56 3 113 5 127 2 21 -1 25 -22 25 -25 0 -25 -1 -21 -77 2
-46 -1 -78 -6 -78 -11 0 -83 112 -83 127 0 9 -42 33 -56 33 -2 0 -7 -7 -11
-17z"/>
<path d="M4113 10923 c-23 -9 -14 -42 13 -49 31 -8 48 7 39 35 -6 20 -25 25
-52 14z"/>
<path d="M4600 10908 c-21 -23 -27 -58 -10 -58 14 0 13 -163 -1 -177 -23 -23
-2 -43 46 -43 50 0 73 24 42 42 -14 7 -17 27 -17 121 0 107 -7 137 -32 137 -4
0 -16 -10 -28 -22z"/>
<path d="M4045 10830 c-24 -27 -13 -54 20 -46 20 5 25 3 25 -13 0 -11 -4 -23
-10 -26 -14 -9 -12 -89 2 -103 22 -22 65 -14 87 17 22 30 28 61 12 61 -6 0
-13 -4 -16 -10 -3 -5 -13 -10 -21 -10 -12 0 -13 10 -8 49 10 77 0 101 -40 101
-20 0 -40 -8 -51 -20z"/>
<path d="M4252 10788 c-8 -8 -9 -15 -1 -25 17 -19 212 -18 228 1 10 12 8 17
-8 25 -27 15 -204 14 -219 -1z"/>
<path d="M1683 10403 c-25 -9 -14 -33 15 -33 34 0 43 7 35 26 -5 14 -27 17
-50 7z"/>
<path d="M6555 10340 c-9 -15 14 -40 31 -33 22 8 18 43 -5 43 -11 0 -23 -5
-26 -10z"/>
<path d="M10037 10926 c-8 -8 -19 -27 -26 -43 -6 -15 -28 -39 -48 -52 l-36
-23 7 62 7 61 -33 -3 c-33 -3 -33 -3 -28 -48 7 -61 4 -168 -5 -207 -7 -32 -7
-33 28 -33 20 0 38 3 41 8 2 4 -1 27 -7 50 -10 36 -9 45 6 59 21 21 28 14 66
-58 24 -47 32 -54 57 -54 37 0 43 26 12 57 -35 35 -68 87 -68 107 0 10 20 32
45 50 46 33 54 48 33 69 -16 16 -33 15 -51 -2z"/>
<path d="M10430 10921 c-14 -27 -2 -51 26 -51 32 0 41 26 19 50 -23 25 -32 25
-45 1z"/>
<path d="M9267 10918 c-2 -7 0 -25 5 -40 10 -29 5 -165 -7 -210 l-7 -28 87 0
c72 0 90 3 100 17 13 17 14 17 32 0 11 -9 31 -17 44 -17 l24 0 -1 143 -2 142
-28 0 -29 0 4 -117 c3 -117 -2 -136 -29 -103 -16 20 -27 19 -57 -5 -36 -28
-73 -27 -74 3 -2 67 3 201 8 213 4 10 -4 14 -30 14 -19 0 -37 -6 -40 -12z"/>
<path d="M9619 10923 c-1 -5 -3 -60 -4 -123 -1 -63 -4 -124 -6 -135 -3 -16 2
-21 30 -23 31 -3 33 -2 27 20 -13 45 -18 135 -9 153 9 15 13 12 32 -26 38 -76
76 -124 96 -124 18 0 20 8 22 100 1 55 3 114 5 130 3 26 0 30 -22 30 -25 0
-25 -1 -21 -77 2 -51 -1 -78 -7 -78 -6 0 -30 32 -53 70 -43 72 -86 111 -90 83z"/>
<path d="M10362 10820 c-39 -52 -26 -76 24 -44 34 23 39 13 20 -38 -20 -51
-10 -92 24 -103 30 -9 91 33 87 60 -1 12 -8 18 -17 16 -8 -2 -24 -6 -34 -9
-16 -4 -18 -2 -12 14 18 44 18 84 2 109 -23 36 -66 34 -94 -5z"/>
<path d="M10766 10412 c-2 -4 -8 -120 -11 -257 -4 -138 -11 -254 -15 -260 -4
-5 -11 -91 -14 -190 -4 -99 -11 -214 -16 -255 -6 -41 -12 -218 -14 -394 -3
-175 -7 -320 -10 -323 -7 -7 -37 26 -78 87 -21 30 -53 73 -72 95 -20 22 -36
43 -36 46 0 6 -15 25 -64 79 -12 14 -37 37 -55 52 -37 31 -33 48 10 48 46 0
35 21 -44 77 -39 29 -96 75 -125 103 -29 27 -57 50 -62 50 -25 0 -20 -34 13
-82 33 -51 68 -120 101 -200 18 -46 31 -48 45 -7 l11 32 20 -26 c11 -14 20
-29 20 -33 0 -7 85 -121 100 -134 3 -3 16 -18 28 -35 48 -65 79 -100 115 -137
60 -60 52 -71 -45 -66 -46 3 -119 -1 -164 -8 -44 -7 -125 -13 -180 -13 -54 0
-115 -5 -134 -10 -19 -6 -71 -11 -115 -11 -44 0 -123 -6 -175 -14 -52 -8 -176
-17 -275 -20 -99 -4 -207 -11 -240 -16 -75 -12 -432 -41 -630 -51 -163 -8
-354 -22 -565 -40 -443 -37 -539 -39 -640 -14 -115 29 -110 29 -110 11 0 -9
11 -28 25 -42 31 -31 31 -39 0 -80 -14 -18 -25 -35 -25 -38 0 -11 38 -6 67 8
95 47 183 66 354 75 81 5 151 11 155 14 5 3 70 8 144 11 74 4 156 9 181 12 82
10 122 13 279 19 85 4 169 11 185 16 17 5 87 11 157 13 82 3 139 10 164 21 44
18 79 11 68 -13 -4 -10 -12 -39 -18 -65 -9 -45 -9 -50 11 -65 20 -16 21 -22
13 -77 -15 -112 -30 -183 -46 -221 -35 -88 -75 -175 -84 -184 -3 -3 -23 -33
-45 -67 -38 -59 -42 -62 -81 -63 -22 0 -44 3 -48 8 -4 4 -33 12 -64 19 -71 14
-141 32 -167 43 -11 4 -65 18 -120 30 -55 13 -109 26 -120 30 -19 7 -115 32
-200 52 -22 5 -67 14 -100 19 -33 5 -72 16 -87 24 -14 8 -36 15 -47 15 -12 0
-29 4 -39 10 -9 5 -42 13 -72 19 -67 12 -138 30 -165 42 -24 11 -91 27 -165
40 -30 6 -64 14 -75 19 -28 12 -117 36 -205 55 -75 16 -209 49 -265 65 -16 5
-77 19 -135 31 -58 11 -112 27 -121 35 -8 8 -21 14 -27 14 -7 0 -12 5 -12 10
0 7 22 8 63 4 56 -5 172 0 522 25 61 4 119 12 129 18 16 9 16 11 1 23 -11 9
-39 12 -93 10 -42 -2 -102 -4 -132 -4 l-55 -1 3 35 c1 19 9 83 17 141 14 109
12 145 -8 151 -7 2 -59 1 -117 -3 -263 -18 -382 -29 -401 -40 -32 -17 -38 2
-36 113 2 86 4 98 20 98 9 0 26 -5 37 -12 30 -19 35 -3 17 54 -29 97 -37 148
-37 228 0 63 -3 82 -15 87 -23 8 -27 1 -35 -69 -8 -70 -29 -148 -60 -229 -30
-81 -26 -107 12 -72 10 9 21 14 24 11 3 -3 0 -80 -7 -169 -6 -90 -14 -198 -16
-239 -3 -41 -8 -78 -12 -83 -4 -4 -25 19 -47 50 -21 32 -43 63 -47 68 -4 6
-39 51 -78 100 -38 50 -88 107 -110 128 -49 45 -48 71 2 57 38 -11 40 -10 33
15 -3 11 -29 34 -57 50 -29 17 -82 59 -119 94 -37 34 -71 60 -77 56 -20 -12
-11 -52 20 -95 17 -24 49 -82 71 -129 39 -84 40 -85 55 -63 16 23 33 29 33 12
0 -6 4 -16 10 -23 5 -7 52 -69 103 -138 93 -125 120 -158 185 -228 l34 -36 -6
-85 c-3 -47 -8 -124 -12 -172 l-7 -88 25 0 c24 0 25 3 31 83 4 45 7 114 7 153
0 52 4 73 14 77 16 6 117 -17 163 -39 17 -7 40 -14 50 -14 10 0 23 -4 28 -8 6
-5 57 -19 115 -31 58 -13 114 -27 125 -31 48 -19 124 -39 173 -46 29 -4 55
-11 58 -15 3 -5 17 -9 32 -9 15 0 53 -9 85 -20 31 -11 69 -20 85 -20 16 0 32
-3 36 -7 4 -5 33 -13 64 -19 81 -16 154 -35 175 -46 17 -8 54 -17 162 -39 28
-6 64 -17 82 -25 17 -7 42 -14 55 -14 14 0 28 -3 32 -7 4 -5 35 -13 69 -19 68
-13 141 -31 172 -43 11 -5 65 -18 120 -31 55 -12 114 -26 130 -31 101 -29 202
-53 290 -69 33 -6 74 -17 92 -25 17 -8 41 -15 52 -15 12 0 29 -4 39 -9 17 -10
132 -39 187 -48 17 -3 35 -9 41 -14 11 -9 55 -20 164 -41 30 -5 59 -14 65 -19
5 -5 22 -9 38 -9 25 0 28 3 25 28 -3 24 -9 28 -58 39 -30 7 -84 19 -120 28
-36 9 -90 22 -120 28 -30 7 -60 15 -67 20 -11 7 -76 22 -161 37 -56 9 -60 15
-30 48 41 44 138 209 138 235 0 5 6 23 14 40 28 64 49 164 51 243 1 44 4 85 8
91 4 6 2 38 -4 72 -6 34 -9 64 -6 67 3 3 83 9 178 14 298 15 483 30 513 40 16
6 63 10 105 10 42 1 110 5 151 10 161 21 180 23 180 14 0 -10 -53 -142 -72
-181 -6 -13 -12 -42 -12 -65 -1 -52 9 -56 108 -34 103 22 229 35 241 24 6 -5
5 -15 -3 -28 -6 -11 -12 -29 -12 -41 0 -16 5 -20 26 -17 23 3 30 12 49 68 12
36 33 90 47 120 13 30 33 84 44 118 19 62 42 89 68 79 7 -3 62 -1 122 5 162
14 184 16 374 24 165 7 229 18 245 43 9 16 -54 23 -155 18 -226 -12 -417 -28
-443 -37 -16 -5 -58 -13 -93 -16 -73 -8 -89 6 -60 51 9 13 16 31 16 39 0 8 6
21 13 28 18 17 47 77 47 95 0 8 6 27 14 41 35 68 58 124 69 171 6 28 17 51 24
51 7 0 13 -3 13 -7 0 -5 4 -14 9 -22 17 -27 41 6 41 55 0 70 21 198 36 215 18
20 18 43 1 58 -19 15 -36 -5 -87 -105 -22 -44 -51 -91 -63 -105 -33 -36 -57
-76 -50 -83 4 -3 15 -6 25 -6 19 0 24 -19 9 -35 -5 -6 -18 -37 -30 -70 -12
-33 -25 -69 -30 -80 -21 -50 -40 -102 -46 -128 -11 -52 -25 -16 -25 63 0 43 6
140 14 216 8 77 15 189 16 249 1 61 5 150 8 198 l7 89 40 15 c78 28 109 33
125 18 9 -8 43 -15 80 -17 63 -3 65 -4 68 -30 4 -34 32 -38 32 -5 0 13 -3 27
-7 31 -4 4 -8 17 -8 29 0 16 -11 25 -45 38 -25 9 -60 23 -78 30 -30 12 -33 12
-48 -9 -11 -15 -25 -22 -50 -22 -19 0 -51 -7 -71 -15 -19 -8 -37 -15 -39 -15
-8 0 -4 97 5 106 5 5 12 97 15 204 4 107 11 218 16 245 5 28 9 71 9 98 1 43
-1 47 -23 47 -14 0 -27 -3 -30 -8z m-3742 -1737 c-1 -11 -7 -45 -13 -75 -7
-31 -9 -80 -6 -112 7 -54 6 -57 -17 -62 -82 -16 -155 -26 -238 -31 -52 -3
-113 -10 -135 -15 -22 -5 -62 -10 -88 -10 l-48 0 5 73 c9 139 19 207 30 216 6
5 61 13 121 16 61 4 164 11 230 15 157 10 160 9 159 -15z m3636 -23 c0 -11 -7
-34 -16 -52 -9 -18 -29 -65 -44 -104 l-27 -71 -49 -8 c-27 -4 -89 -12 -139
-17 -49 -6 -94 -15 -99 -20 -9 -9 -56 -14 -56 -6 0 3 21 57 41 106 6 14 17 38
25 53 8 16 14 35 14 43 0 8 9 23 20 34 18 18 32 20 128 19 92 -1 114 2 148 19
49 26 54 27 54 4z"/>
<path d="M11295 10238 c-8 -27 -32 -86 -45 -110 -6 -10 -10 -23 -10 -29 0 -6
-6 -25 -14 -42 -8 -18 -24 -62 -37 -99 -19 -60 -43 -98 -53 -87 -2 2 -6 25 -8
51 -4 34 -2 48 8 52 16 6 19 42 3 51 -12 8 -49 -23 -49 -42 0 -7 -4 -13 -10
-13 -5 0 -15 -10 -21 -22 -9 -18 -8 -24 6 -34 13 -10 16 -21 12 -42 -11 -53
26 -66 90 -32 29 15 42 31 56 67 10 27 28 71 39 98 11 28 24 59 29 70 4 11 17
42 29 68 24 56 24 110 -2 115 -10 2 -19 -6 -23 -20z"/>
<path d="M10874 10112 c-43 -34 -58 -136 -26 -165 23 -21 45 -21 83 -1 23 11
34 12 44 4 18 -15 30 6 26 48 -1 18 4 44 13 57 18 28 21 61 6 70 -6 3 -13 -1
-16 -9 -8 -20 -28 -20 -44 -1 -17 20 -60 19 -86 -3z m64 -65 c5 -38 -15 -69
-41 -65 -18 2 -22 9 -20 38 3 57 55 80 61 27z"/>
<path d="M1971 9616 c-19 -22 4 -62 25 -45 17 14 15 50 -2 56 -6 2 -16 -3 -23
-11z"/>
<path d="M6507 9493 c-13 -12 -7 -23 12 -23 26 0 35 16 15 24 -19 7 -19 7 -27
-1z"/>
<path d="M11193 9424 c-57 -28 -45 -82 12 -56 15 7 26 8 30 2 9 -15 -2 -28
-46 -56 -29 -18 -39 -31 -39 -50 0 -23 3 -25 24 -20 14 3 28 2 31 -4 3 -5 24
-10 45 -10 29 0 42 5 50 19 18 35 13 44 -24 37 -51 -10 -55 17 -7 45 40 22 68
60 57 77 -3 6 -22 10 -41 10 -20 0 -41 5 -48 10 -9 8 -22 6 -44 -4z"/>
<path d="M2057 9414 c-12 -12 -8 -65 7 -92 8 -15 22 -49 31 -77 9 -27 26 -75
37 -105 11 -30 24 -64 28 -75 26 -71 30 -76 52 -73 26 3 35 31 20 62 -6 11
-20 44 -32 71 -11 28 -25 57 -30 66 -5 9 -12 33 -15 53 -4 20 -11 39 -16 42
-5 3 -9 13 -9 22 0 22 -42 105 -56 109 -5 2 -13 0 -17 -3z"/>
<path d="M6046 9375 c-14 -16 -26 -34 -26 -41 0 -16 46 -19 55 -4 3 6 17 10
31 10 30 0 30 -27 0 -44 -90 -51 -121 -109 -56 -104 16 1 40 -4 55 -12 23 -12
29 -12 53 2 35 21 47 41 39 62 -6 16 -9 16 -29 2 -25 -17 -54 -21 -62 -7 -3 4
15 23 39 40 43 31 83 86 71 99 -3 3 -23 6 -44 7 -20 1 -51 6 -69 10 -27 6 -36
3 -57 -20z"/>
<path d="M9757 9332 c-27 -30 -22 -53 11 -50 29 3 31 -5 17 -63 -10 -39 19
-79 56 -79 33 0 35 -6 13 -35 -15 -20 -16 -20 -40 8 -30 35 -54 29 -54 -12 0
-27 5 -31 40 -41 71 -19 104 7 135 105 10 33 27 79 37 102 19 45 15 73 -11 73
-26 0 -37 -13 -45 -50 -10 -51 -46 -120 -62 -120 -25 0 -28 30 -10 85 16 44
16 55 5 73 -17 28 -69 30 -92 4z"/>
<path d="M11397 9343 c-4 -3 -7 -13 -7 -21 0 -8 -14 -27 -31 -43 -32 -30 -31
-49 2 -49 21 0 25 -10 8 -27 -19 -19 -2 -62 26 -69 45 -11 74 37 40 66 -8 7
-15 25 -15 41 0 15 7 34 15 43 8 8 15 26 15 40 0 21 -5 26 -23 26 -13 0 -27
-3 -30 -7z"/>
<path d="M6375 9259 c-4 -6 -23 -9 -43 -7 -30 2 -37 -1 -40 -17 -3 -11 -15
-31 -28 -44 -28 -28 -29 -34 -9 -51 9 -7 13 -20 10 -28 -7 -19 21 -62 40 -62
8 0 24 9 36 21 19 19 19 22 5 38 -19 21 -26 112 -9 118 7 2 13 -8 15 -24 2
-22 8 -28 27 -28 20 0 27 7 33 34 5 18 7 40 4 47 -6 17 -32 18 -41 3z"/>
<path d="M10035 9230 c-3 -6 -4 -18 -1 -28 4 -12 -1 -21 -17 -28 -12 -5 -20
-16 -18 -24 3 -8 6 -35 7 -59 1 -30 8 -49 20 -58 23 -16 24 -16 53 6 23 17 23
19 7 42 -18 27 -22 99 -5 116 7 7 9 19 6 27 -7 18 -42 22 -52 6z"/>
<path d="M7259 8891 c-23 -13 -35 -27 -37 -45 -4 -31 4 -32 38 -6 35 27 40 25
40 -17 0 -48 -24 -77 -51 -60 -15 9 -22 8 -36 -5 -14 -14 -15 -22 -5 -43 13
-29 37 -32 64 -8 17 15 19 15 36 0 24 -22 55 -21 75 1 26 29 22 54 -7 46 -30
-7 -38 5 -30 44 5 27 11 31 43 34 33 3 36 6 36 33 0 24 -5 31 -23 33 -13 2
-30 -2 -38 -8 -9 -8 -18 -9 -26 -3 -26 20 -47 21 -79 4z"/>
<path d="M8502 8873 c-17 -7 -52 -77 -52 -104 0 -11 9 -34 21 -50 20 -28 23
-29 103 -29 50 0 87 5 94 12 19 19 43 -20 38 -61 -7 -44 8 -71 39 -71 33 0 55
38 31 55 -27 20 -30 67 -7 94 22 26 27 56 11 66 -15 9 -51 -14 -48 -32 2 -8
-5 -20 -15 -27 -15 -9 -20 -7 -28 7 -7 12 -17 16 -30 12 -16 -5 -19 -1 -19 24
0 16 5 33 10 36 16 10 12 62 -6 69 -19 7 -123 7 -142 -1z m88 -71 c0 -50 -40
-93 -66 -71 -12 10 -15 24 -11 53 6 42 19 56 55 56 19 0 22 -5 22 -38z"/>
<path d="M2272 8818 c-18 -18 -14 -38 7 -38 27 0 37 19 19 36 -11 11 -16 12
-26 2z"/>
<path d="M11505 8809 c-4 -5 0 -18 9 -28 9 -10 16 -21 16 -25 0 -4 7 -14 15
-23 14 -13 13 -18 -10 -45 -14 -16 -23 -33 -20 -38 5 -9 72 6 90 20 6 4 26 11
45 14 19 4 53 11 75 16 22 5 57 12 78 15 34 6 38 9 35 33 -3 26 -5 27 -70 28
-91 2 -160 12 -202 29 -42 18 -53 19 -61 4z"/>
<path d="M7546 8774 c-17 -43 0 -101 27 -91 15 6 32 81 22 98 -10 15 -42 10
-49 -7z"/>
<path d="M7484 8753 c-10 -15 -27 -38 -37 -50 -15 -17 -17 -26 -9 -35 6 -7 12
-31 14 -53 3 -37 6 -40 35 -43 25 -3 33 1 38 19 5 14 2 25 -6 30 -16 9 -22 96
-8 105 12 7 11 41 -1 49 -5 3 -17 -7 -26 -22z"/>
<path d="M2334 8597 c-3 -8 6 -35 20 -61 13 -25 28 -60 31 -78 4 -18 11 -39
15 -48 5 -8 24 -58 43 -110 30 -84 37 -95 58 -95 20 0 24 5 22 26 -1 15 -11
47 -22 72 -12 25 -21 50 -21 54 0 9 -54 153 -70 188 -5 11 -10 29 -12 40 -4
24 -55 34 -64 12z"/>
<path d="M10815 8560 c-34 -22 -65 -73 -65 -107 0 -12 -4 -25 -10 -28 -13 -8
-13 -50 2 -78 6 -12 14 -29 18 -37 5 -10 25 -16 58 -18 40 -2 54 1 69 17 38
40 66 112 67 169 0 47 -3 57 -27 78 -34 29 -72 30 -112 4z m82 -58 c19 -77
-75 -223 -101 -156 -11 29 -6 89 10 119 37 72 78 89 91 37z"/>
<path d="M5713 8553 c-28 -19 -33 -69 -5 -58 47 20 52 13 30 -43 -18 -45 -2
-67 48 -68 32 0 40 -4 42 -21 2 -14 -5 -26 -18 -33 -18 -10 -26 -8 -44 9 -35
33 -58 28 -54 -11 3 -32 5 -33 52 -36 27 -2 59 -1 71 2 22 6 57 68 70 124 4
18 13 45 21 60 17 34 18 56 1 70 -23 19 -57 -13 -57 -53 0 -32 -40 -95 -61
-95 -17 0 -31 40 -19 55 6 7 15 27 20 45 16 57 -45 90 -97 53z"/>
<path d="M11416 8518 c-25 -35 3 -65 32 -36 19 19 35 -5 27 -41 -7 -33 -34
-54 -58 -46 -20 8 -37 -17 -30 -43 4 -16 13 -22 34 -22 15 0 31 5 35 11 4 8 9
8 17 0 28 -28 107 -1 107 36 0 19 -24 21 -42 5 -17 -14 -18 -13 -18 21 0 55 8
67 45 67 36 0 51 20 36 49 -8 14 -24 18 -90 18 -71 1 -83 -1 -95 -19z"/>
<path d="M11683 8449 c-14 -5 -21 -14 -17 -23 3 -8 -4 -21 -17 -30 -21 -14
-22 -19 -11 -49 7 -18 12 -43 12 -54 0 -38 11 -53 39 -53 16 1 33 10 44 25 18
25 18 25 -8 35 -24 9 -25 13 -19 47 4 21 11 48 15 61 5 13 9 27 9 32 0 13 -24
18 -47 9z"/>
<path d="M6043 8430 c-5 -19 -7 -20 -23 -5 -16 14 -18 14 -24 0 -11 -30 -7
-37 19 -31 18 5 25 2 25 -8 0 -18 23 -37 36 -28 16 10 34 48 34 71 0 30 -59
30 -67 1z"/>
<path d="M11031 8387 c-6 -6 -11 -19 -11 -28 0 -9 -11 -24 -25 -33 -27 -18
-32 -35 -13 -54 7 -7 13 -28 14 -48 2 -56 42 -72 70 -29 11 17 13 29 7 38 -15
18 -23 86 -12 92 14 9 11 62 -5 68 -7 3 -19 0 -25 -6z"/>
<path d="M5950 8355 c-10 -12 -10 -19 -2 -27 7 -7 12 -29 12 -50 0 -31 5 -41
24 -49 41 -19 85 18 56 47 -5 5 -12 25 -14 44 -2 19 -4 38 -5 43 -2 13 -58 7
-71 -8z"/>
<path d="M9290 8225 c-10 -27 -3 -85 11 -85 5 0 15 -16 24 -36 13 -32 13 -39
0 -65 -10 -18 -23 -29 -37 -29 -20 0 -20 4 -15 59 5 49 3 61 -12 75 -25 22
-44 20 -71 -8 -28 -31 -21 -55 14 -49 25 5 26 4 26 -50 0 -45 4 -58 19 -67 35
-18 69 -12 88 17 10 14 30 38 45 53 26 26 27 30 13 56 -9 18 -12 42 -8 69 8
59 -9 85 -53 85 -28 0 -36 -5 -44 -25z m60 -51 c0 -26 -17 -33 -26 -9 -8 20 3
48 16 40 5 -3 10 -17 10 -31z"/>
<path d="M6603 8129 c-54 -16 -90 -84 -99 -189 -6 -62 20 -91 84 -97 43 -5 50
-2 82 29 86 85 92 245 9 262 -36 7 -34 7 -76 -5z m74 -117 c-6 -54 -42 -117
-75 -129 -27 -11 -44 27 -39 84 6 58 28 97 66 118 38 21 54 -4 48 -73z"/>
<path d="M10447 8113 c-13 -13 -7 -51 10 -57 23 -9 44 14 37 42 -6 21 -33 30
-47 15z"/>
<path d="M9480 8034 c0 -17 -6 -28 -20 -31 -27 -7 -37 -43 -16 -59 12 -8 15
-20 10 -38 -8 -34 10 -56 46 -56 31 0 44 26 27 55 -15 27 -16 84 -1 96 13 11
8 39 -10 51 -22 15 -36 8 -36 -18z"/>
<path d="M2564 8025 c-8 -21 3 -45 20 -45 16 0 31 34 21 50 -9 15 -35 12 -41
-5z"/>
<path d="M6850 7931 c-7 -14 -21 -21 -40 -21 -20 0 -30 -5 -30 -15 0 -9 9 -15
23 -15 13 0 32 -9 42 -20 24 -27 43 -25 51 4 15 63 -20 115 -46 67z"/>
<path d="M10363 7893 c-13 -8 -23 -23 -23 -32 -1 -9 -9 -34 -20 -56 -11 -22
-19 -48 -20 -57 0 -9 -4 -19 -9 -22 -5 -3 -12 -18 -15 -33 -6 -27 -24 -67 -53
-125 -17 -35 -17 -74 2 -82 21 -8 43 18 56 67 7 23 16 47 20 52 5 6 24 54 44
105 19 52 42 108 51 123 9 17 13 38 10 53 -7 28 -13 29 -43 7z"/>
<path d="M6763 7862 c-27 -4 -36 -27 -22 -54 6 -11 8 -31 5 -44 -7 -27 16 -44
59 -44 31 0 45 28 22 45 -10 7 -17 26 -17 47 0 40 -15 56 -47 50z"/>
<path d="M2630 7803 c0 -20 32 -108 43 -119 4 -4 7 -14 7 -22 0 -8 6 -28 14
-45 8 -18 24 -66 37 -107 24 -82 52 -118 75 -99 18 15 18 37 -1 73 -8 15 -15
33 -15 38 0 10 -17 51 -45 113 -8 17 -17 44 -21 60 -4 17 -10 35 -14 40 -4 6
-10 27 -14 48 -6 33 -10 37 -36 37 -22 0 -30 -5 -30 -17z"/>
<path d="M6414 7806 c-8 -22 3 -49 19 -43 6 2 12 14 12 27 0 27 -22 39 -31 16z"/>
<path d="M6405 7578 c-15 -50 -37 -283 -33 -363 3 -52 6 -60 23 -60 18 0 21 9
26 105 4 58 12 145 18 194 7 49 10 100 6 113 -6 24 -33 32 -40 11z"/>
<path d="M6677 7343 c-4 -3 -7 -24 -7 -45 0 -41 -13 -48 -51 -27 -15 8 -27 6
-54 -11 -38 -24 -47 -42 -48 -107 0 -37 4 -49 24 -64 27 -21 74 -25 85 -8 4 8
9 8 17 0 14 -14 54 -14 62 -1 19 30 55 -14 55 -66 0 -38 18 -64 44 -64 29 0
56 44 38 62 -7 7 -12 26 -12 44 0 39 -21 58 -56 50 -20 -5 -27 -3 -31 14 -6
24 -16 25 -33 5 -7 -8 -16 -12 -21 -9 -18 11 -9 46 41 159 10 21 13 41 11 63
-1 12 -53 17 -64 5z m-38 -135 c9 -24 5 -39 -19 -75 -18 -28 -36 -29 -50 -4
-14 26 -13 31 10 69 23 37 47 41 59 10z"/>
<path d="M10134 7316 c-9 -24 3 -47 21 -40 19 8 19 28 0 44 -12 10 -16 9 -21
-4z"/>
<path d="M2840 7216 c0 -21 5 -26 26 -26 21 0 25 4 22 23 -2 14 -11 23 -25 25
-19 3 -23 -1 -23 -22z"/>
<path d="M6803 7163 c-17 -6 -16 -30 1 -36 17 -7 40 18 31 33 -7 11 -13 11
-32 3z"/>
<path d="M10034 7093 c-3 -10 -10 -27 -15 -38 -5 -11 -27 -67 -48 -125 -22
-58 -49 -124 -60 -147 -30 -61 -28 -85 6 -81 21 2 30 11 38 38 6 19 21 57 33
83 12 27 25 60 28 73 3 13 10 27 15 30 5 3 9 13 9 22 0 9 14 44 30 77 17 32
28 65 26 72 -8 20 -56 16 -62 -4z"/>
<path d="M2933 7029 c-17 -17 -16 -40 1 -64 7 -11 17 -36 21 -55 4 -19 11 -41
15 -50 5 -8 18 -44 31 -80 12 -36 25 -69 29 -75 4 -5 10 -26 14 -47 6 -34 21
-48 52 -48 16 0 19 51 4 78 -20 36 -50 112 -50 126 0 8 -4 17 -9 20 -5 3 -12
23 -16 43 -4 21 -10 43 -15 48 -4 6 -10 21 -13 35 -4 14 -17 38 -29 53 -18 22
-25 26 -35 16z"/>
<path d="M6360 6965 c-18 -21 -5 -45 25 -45 20 0 25 5 25 24 0 13 -7 27 -16
30 -21 8 -20 8 -34 -9z"/>
<path d="M6346 6718 c-3 -13 -7 -48 -10 -78 -2 -30 -9 -80 -16 -110 -11 -52
-18 -76 -55 -179 -19 -52 -7 -75 23 -48 10 9 22 17 25 17 12 0 8 -92 -8 -165
-8 -41 -15 -138 -16 -233 -2 -178 -5 -186 -57 -162 -25 11 -91 25 -250 52 -92
15 -88 23 -108 -195 l-6 -69 -32 6 c-76 13 -153 32 -173 44 -12 6 -35 12 -50
12 -16 0 -33 4 -39 9 -5 5 -34 13 -64 19 -62 12 -135 31 -165 42 -27 11 -99
29 -160 41 -27 5 -59 14 -70 18 -11 5 -60 19 -110 31 -49 11 -103 25 -120 29
-16 5 -73 19 -125 31 -52 12 -104 26 -115 31 -11 5 -42 12 -70 17 -70 13 -147
33 -167 43 -22 11 -87 28 -158 40 -30 6 -67 17 -82 25 -14 7 -38 14 -52 14
-15 0 -34 4 -44 9 -9 4 -60 18 -112 31 -52 12 -104 25 -115 30 -11 4 -56 15
-100 24 -44 9 -101 23 -126 31 -26 8 -53 15 -60 15 -12 0 -40 7 -185 51 -17 5
-41 9 -53 9 -13 0 -35 7 -51 16 -41 25 -61 13 -50 -28 6 -18 14 -42 20 -53 9
-18 78 -207 103 -283 8 -25 16 -32 31 -30 17 2 21 10 20 36 -2 37 15 41 81 17
22 -8 57 -14 77 -15 20 0 49 -5 64 -12 23 -11 28 -10 45 10 16 21 17 26 3 64
-8 22 -14 51 -14 63 0 12 -7 28 -15 35 -19 16 -19 39 -1 46 12 5 88 -14 141
-36 11 -4 65 -18 120 -30 55 -13 109 -26 120 -31 11 -4 41 -10 68 -14 26 -3
59 -13 75 -21 15 -7 39 -14 54 -14 15 0 29 -4 32 -9 3 -4 30 -11 59 -15 30 -3
70 -13 90 -21 20 -8 48 -15 62 -15 14 0 25 -4 25 -9 0 -8 59 -24 160 -42 30
-5 64 -14 75 -19 25 -11 82 -27 160 -45 82 -19 165 -39 260 -65 44 -12 96 -26
115 -30 19 -4 60 -13 90 -20 30 -7 69 -19 87 -26 17 -8 42 -14 56 -14 14 0 28
-4 31 -9 3 -4 33 -11 65 -15 33 -4 63 -11 66 -16 3 -5 26 -12 50 -16 25 -3 48
-10 51 -15 3 -5 16 -9 30 -9 28 0 178 -36 209 -50 11 -5 61 -19 110 -30 50
-11 117 -27 151 -35 33 -8 71 -15 85 -15 14 0 29 -4 35 -9 10 -11 71 -28 154
-42 30 -6 67 -17 82 -25 14 -7 38 -14 51 -14 14 0 28 -4 31 -9 3 -5 23 -12 43
-15 80 -14 179 -38 196 -47 25 -14 102 -30 166 -36 63 -6 90 10 45 27 -16 6
-36 13 -44 17 -8 4 -39 12 -67 20 -29 7 -77 19 -105 26 -29 8 -66 19 -81 25
-16 7 -36 12 -45 12 -26 0 -154 31 -177 43 -21 11 -65 21 -177 39 -86 14 -90
33 -15 68 28 13 69 35 90 47 20 13 68 40 105 60 37 20 69 39 72 42 3 4 16 12
30 18 14 7 48 26 75 42 28 17 61 35 74 41 13 6 41 24 61 40 42 34 58 37 66 15
10 -25 26 -17 97 50 38 36 91 77 118 92 86 49 52 83 -46 48 -22 -8 -69 -20
-105 -25 -36 -6 -82 -15 -102 -21 -48 -12 -52 -39 -5 -39 47 0 62 -12 48 -39
-7 -11 -21 -21 -31 -21 -29 0 -156 -64 -308 -157 -40 -24 -103 -60 -140 -80
-37 -20 -95 -55 -129 -79 -34 -24 -65 -40 -68 -35 -2 5 0 76 6 157 14 182 18
274 19 517 0 175 6 209 27 173 4 -7 18 -17 31 -20 26 -8 26 -11 -6 109 -14 54
-17 152 -9 305 2 29 -2 36 -20 38 -16 2 -24 -3 -27 -20z m-3022 -565 c4 -4 31
-13 59 -20 171 -39 192 -50 202 -108 4 -22 13 -55 21 -73 8 -18 12 -37 9 -42
-7 -12 -115 -2 -129 11 -6 5 -26 9 -45 9 -61 0 -79 9 -86 44 -7 34 -27 85 -51
129 -21 38 -5 75 20 50z m2736 -409 c41 -8 102 -18 135 -22 33 -4 66 -11 73
-16 10 -6 12 -36 9 -129 -5 -117 -6 -122 -27 -125 -21 -3 -157 29 -205 49 -11
4 -41 10 -67 14 -61 8 -71 21 -59 76 6 24 11 64 11 89 0 71 9 93 34 85 11 -4
55 -13 96 -21z"/>
<path d="M5504 6533 c-29 -5 -48 -47 -29 -63 10 -9 19 -9 35 0 17 9 25 9 34 0
8 -9 4 -17 -19 -36 -82 -67 -94 -97 -40 -101 17 -1 46 -5 67 -9 29 -5 40 -2
58 16 23 23 23 58 -1 51 -83 -23 -90 -3 -18 52 63 48 65 72 6 80 -24 3 -49 8
-57 10 -8 2 -25 2 -36 0z"/>
<path d="M9811 6531 c-23 -15 -5 -43 26 -39 20 2 28 9 28 23 0 22 -31 31 -54
16z"/>
<path d="M3146 6443 c-10 -10 -7 -41 4 -48 12 -7 40 12 40 26 0 12 -36 30 -44
22z"/>
<path d="M6066 6399 c-26 -21 -27 -24 -21 -84 5 -40 3 -70 -4 -83 -9 -18 -8
-23 9 -32 12 -6 35 -8 51 -5 24 5 29 10 23 23 -5 10 -10 55 -12 102 -2 47 -7
89 -11 93 -4 4 -20 -2 -35 -14z"/>
<path d="M5727 6403 c-4 -3 -7 -14 -7 -24 0 -10 -8 -23 -19 -28 -21 -12 -34
-48 -20 -57 5 -3 9 -20 9 -39 0 -41 31 -68 64 -56 22 9 35 49 18 60 -15 9 -17
73 -4 98 7 12 9 29 6 37 -6 16 -35 22 -47 9z"/>
<path d="M6716 6344 c-33 -32 -4 -71 31 -43 15 13 16 11 8 -11 -5 -14 -9 -48
-9 -76 -1 -28 -7 -58 -14 -67 -28 -33 8 -81 59 -79 52 1 77 34 114 152 29 91
33 118 22 129 -22 22 -37 10 -54 -46 -21 -69 -47 -108 -66 -100 -11 4 -11 16
-4 64 6 33 7 67 4 76 -8 22 -70 23 -91 1z m109 -193 c0 -8 -8 -19 -18 -25 -15
-9 -21 -7 -33 8 -21 30 -17 38 19 34 19 -2 32 -9 32 -17z"/>
<path d="M9738 6329 c-9 -5 -22 -26 -28 -47 -6 -20 -18 -50 -25 -67 -35 -77
-45 -104 -45 -118 0 -9 -4 -18 -9 -22 -5 -3 -13 -20 -16 -37 -4 -18 -14 -38
-22 -46 -19 -19 -13 -66 9 -70 17 -3 28 15 74 123 7 17 20 46 28 67 9 20 16
40 16 45 0 4 14 35 30 68 16 33 30 70 30 81 0 25 -19 36 -42 23z"/>
<path d="M5848 6309 c-29 -17 -22 -46 12 -54 37 -8 107 3 117 17 19 33 -86 63
-129 37z"/>
<path d="M4433 6240 c-64 -38 -85 -136 -39 -179 19 -18 36 -22 87 -23 76 -2
105 6 120 34 12 22 -3 49 -15 29 -4 -6 -16 -11 -28 -11 -18 0 -20 4 -14 31 3
17 13 46 22 66 15 30 15 36 3 44 -8 5 -26 8 -42 6 -15 -2 -32 2 -38 10 -15 17
-18 17 -56 -7z m57 -81 c0 -50 -15 -79 -40 -79 -25 0 -34 33 -20 75 11 34 37
58 52 49 5 -3 8 -23 8 -45z"/>
<path d="M7023 6233 c-7 -2 -13 -11 -13 -18 0 -7 6 -15 13 -18 22 -7 48 5 45
22 -3 17 -24 23 -45 14z"/>
<path d="M7344 6217 c-26 -23 -28 -27 -15 -50 9 -17 12 -41 8 -71 -4 -25 -4
-52 -1 -61 7 -18 63 -20 69 -2 8 24 -10 200 -21 204 -7 2 -25 -7 -40 -20z"/>
<path d="M6969 6153 c-8 -22 -7 -30 6 -39 11 -8 15 -20 10 -33 -4 -13 1 -27
14 -40 18 -18 25 -19 46 -9 25 11 34 41 15 53 -5 3 -10 19 -10 35 0 58 -62 83
-81 33z"/>
<path d="M4672 6138 c-7 -7 -12 -18 -12 -26 0 -8 -9 -25 -20 -39 -21 -28 -26
-53 -10 -53 6 0 10 -15 10 -33 0 -38 15 -57 45 -57 39 0 64 53 31 66 -9 4 -13
25 -12 76 1 71 -8 90 -32 66z"/>
<path d="M7131 6141 c-27 -18 6 -41 58 -41 53 0 77 15 60 37 -13 15 -96 18
-118 4z"/>
<path d="M4996 6121 c-14 -15 -15 -26 -8 -59 6 -23 9 -42 7 -44 -1 -2 -5 -22
-9 -45 -5 -36 -3 -43 14 -48 11 -3 29 -3 40 0 18 6 20 15 20 111 0 102 0 104
-23 104 -13 0 -32 -8 -41 -19z"/>
<path d="M4777 6043 c-4 -3 -7 -14 -7 -24 0 -22 31 -31 91 -27 40 3 44 6 47
31 3 27 3 27 -61 27 -35 0 -67 -3 -70 -7z"/>
<path d="M9501 5746 c-9 -10 -8 -16 4 -26 19 -16 41 1 32 24 -8 20 -21 20 -36
2z"/>
<path d="M3434 5635 c-8 -31 7 -50 31 -41 22 8 16 60 -7 64 -12 2 -19 -5 -24
-23z"/>
<path d="M7140 5577 c-14 -7 -26 -21 -28 -31 -3 -16 1 -18 28 -14 20 3 34 0
37 -8 7 -20 -26 -75 -45 -73 -38 3 -43 -1 -40 -33 l3 -33 75 -2 c79 -1 110 12
110 47 0 28 -13 32 -30 10 -25 -33 -39 -7 -28 48 8 38 12 43 30 38 26 -6 58
10 58 29 0 22 -36 38 -59 25 -13 -7 -28 -7 -46 0 -33 13 -35 12 -65 -3z"/>
<path d="M9412 5538 c-7 -7 -12 -20 -12 -29 0 -10 -4 -21 -10 -24 -5 -3 -10
-13 -10 -21 0 -14 -29 -88 -49 -124 -5 -9 -12 -30 -16 -48 -3 -18 -17 -53 -31
-78 -27 -51 -31 -84 -9 -84 21 0 55 36 55 58 0 10 4 22 10 28 5 5 20 39 34 76
14 37 34 87 45 110 45 99 52 120 40 134 -14 17 -31 18 -47 2z"/>
<path d="M7360 5455 c-7 -8 -10 -22 -6 -30 4 -11 -3 -19 -19 -25 -26 -10 -32
-37 -16 -68 6 -9 12 -29 16 -44 4 -23 11 -28 34 -28 35 0 62 27 40 41 -8 5
-19 9 -25 9 -13 0 -3 74 14 107 22 40 -10 72 -38 38z"/>
<path d="M7672 5448 c-15 -15 -15 -40 0 -73 8 -19 8 -34 0 -61 -17 -56 7 -86
49 -63 18 9 19 19 17 107 -3 95 -3 97 -28 100 -14 2 -31 -3 -38 -10z"/>
<path d="M3521 5441 c-15 -9 -10 -51 14 -111 7 -19 23 -62 36 -95 12 -33 25
-69 30 -80 4 -11 13 -39 19 -62 17 -68 61 -96 68 -44 4 23 -33 137 -50 156 -4
5 -8 16 -8 25 0 8 -6 27 -14 42 -8 15 -17 41 -21 59 -4 19 -11 40 -15 49 -4 8
-13 27 -19 43 -11 29 -18 32 -40 18z"/>
<path d="M7461 5361 c-8 -5 -11 -16 -8 -25 5 -12 20 -16 64 -16 32 0 65 5 73
10 39 27 -88 57 -129 31z"/>
<path d="M6266 5262 c-3 -6 -1 -14 5 -17 15 -10 25 3 12 16 -7 7 -13 7 -17 1z"/>
<path d="M7178 5264 c-3 -3 1 -22 9 -44 14 -36 14 -39 -8 -69 -12 -17 -26 -31
-31 -31 -4 0 -8 -6 -8 -14 0 -11 31 -14 165 -14 152 1 165 2 165 19 0 22 -10
28 -80 52 -30 10 -74 32 -98 48 -24 16 -47 29 -51 29 -5 0 -14 7 -21 15 -13
15 -32 20 -42 9z"/>
<path d="M6369 5221 c-16 -16 -29 -38 -29 -48 0 -11 -5 -24 -11 -30 -5 -5 -13
-36 -16 -67 -5 -52 -4 -59 21 -85 81 -84 210 16 210 163 1 74 -21 96 -96 96
-41 0 -54 -5 -79 -29z m105 -17 c12 -4 16 -20 16 -54 0 -53 -18 -95 -55 -130
-20 -19 -30 -22 -43 -14 -25 16 -39 61 -25 82 6 10 14 32 17 48 12 55 50 83
90 68z"/>
<path d="M6256 5028 c-7 -21 -15 -86 -25 -203 -10 -120 -3 -143 38 -130 21 6
21 11 19 172 -2 122 -6 167 -15 171 -7 2 -15 -2 -17 -10z"/>
<path d="M6560 5025 c-6 -8 -9 -19 -5 -25 9 -15 41 -12 54 4 10 12 8 17 -8 25
-25 14 -26 14 -41 -4z"/>
<path d="M6880 5011 c-12 -18 -16 -32 -10 -36 5 -3 10 -37 10 -75 0 -66 1 -70
26 -76 17 -4 31 -1 42 10 14 14 15 18 0 49 -10 22 -14 49 -11 84 5 44 3 53
-15 62 -18 9 -24 7 -42 -18z"/>
<path d="M6522 4964 c-26 -18 -28 -36 -7 -54 9 -8 13 -21 9 -32 -12 -40 48
-66 76 -33 10 12 10 21 1 41 -6 14 -11 35 -11 47 0 24 -17 47 -35 47 -6 0 -21
-7 -33 -16z"/>
<path d="M9183 4973 c-21 -8 -15 -33 10 -42 26 -11 53 9 44 33 -6 16 -29 20
-54 9z"/>
<path d="M6654 4935 c-11 -28 10 -36 82 -33 61 3 69 5 69 23 0 18 -8 20 -73
23 -59 2 -73 0 -78 -13z"/>
<path d="M3731 4851 c-19 -12 -6 -41 19 -41 16 0 21 5 18 22 -3 25 -17 32 -37
19z"/>
<path d="M9092 4745 c-28 -35 -18 -57 22 -53 28 3 31 6 31 38 0 44 -25 51 -53
15z"/>
<path d="M3794 4635 c-4 -8 1 -26 10 -40 9 -13 16 -29 16 -36 0 -6 6 -25 14
-42 8 -18 25 -63 37 -102 12 -38 26 -74 30 -80 3 -5 10 -24 13 -41 10 -44 43
-79 62 -63 19 16 18 32 -7 87 -34 79 -36 85 -59 157 -12 39 -26 74 -31 80 -5
5 -9 16 -9 26 0 22 -38 69 -56 69 -8 0 -17 -7 -20 -15z"/>
</g>
</svg>
