<?xml version="1.0" standalone="no"?>
<!DOCTYPE svg PUBLIC "-//W3C//DTD SVG 20010904//EN"
 "http://www.w3.org/TR/2001/REC-SVG-20010904/DTD/svg10.dtd">
<svg version="1.0" xmlns="http://www.w3.org/2000/svg"
 width="1410.000000pt" height="1536.000000pt" viewBox="0 0 1410.000000 1536.000000"
 preserveAspectRatio="xMidYMid meet">
<metadata>
Created by potrace 1.10, written by Peter Selinger 2001-2011
</metadata>
<g transform="translate(0.000000,1536.000000) scale(0.100000,-0.100000)"
fill="#000000" stroke="none">
<path d="M12098 14859 c-10 -5 -18 -18 -18 -27 -1 -44 -176 -333 -274 -452
-47 -56 -57 -86 -32 -96 18 -7 50 10 98 50 73 61 97 76 122 76 31 0 44 -19 80
-116 15 -39 33 -80 41 -90 12 -17 15 -17 29 -4 14 13 14 34 5 160 -6 80 -15
159 -21 175 -13 36 -10 256 3 270 14 14 11 65 -3 65 -7 0 -21 -5 -30 -11z"/>
<path d="M11934 14301 c-4 -22 -12 -46 -20 -52 -7 -6 -16 -31 -20 -56 -4 -25
-13 -58 -20 -72 -8 -14 -14 -41 -14 -59 0 -18 -6 -45 -14 -60 -7 -15 -16 -45
-20 -67 -4 -22 -14 -60 -21 -85 -8 -25 -24 -83 -36 -130 -11 -47 -27 -107 -35
-134 -8 -26 -14 -56 -14 -66 0 -10 -7 -34 -15 -53 -8 -20 -15 -51 -15 -70 0
-18 -7 -42 -15 -53 -8 -11 -14 -42 -15 -75 0 -79 -19 -96 -92 -79 -29 7 -65
18 -80 26 -14 8 -38 14 -53 14 -14 0 -39 7 -55 15 -27 14 -85 31 -205 59 -27
6 -60 17 -72 24 -12 6 -31 12 -42 12 -11 0 -32 5 -48 12 -27 11 -66 22 -185
51 -29 7 -63 18 -75 25 -12 6 -35 12 -52 12 -17 0 -45 6 -63 14 -55 23 -176
48 -198 41 -27 -8 -21 -29 9 -33 13 -2 37 -12 55 -23 17 -10 45 -19 62 -19 16
0 35 -5 41 -11 6 -6 37 -17 70 -24 32 -8 81 -21 108 -30 28 -10 64 -22 80 -27
17 -6 48 -14 70 -18 22 -4 53 -12 68 -19 16 -6 42 -11 58 -11 28 0 29 -2 29
-42 0 -67 -8 -73 -102 -74 -46 -1 -90 -2 -98 -2 -8 0 -52 2 -98 5 -57 3 -88 1
-98 -7 -11 -10 -17 -10 -28 -1 -9 8 -45 11 -97 9 -68 -2 -84 -6 -87 -19 -6
-32 26 -49 92 -49 47 0 70 5 88 19 24 19 24 19 36 0 16 -26 120 -27 163 -2 26
15 30 16 46 1 15 -14 27 -15 72 -6 44 8 57 7 69 -6 14 -14 14 -19 -1 -53 -9
-21 -21 -56 -26 -78 -6 -22 -17 -67 -26 -100 -35 -128 -33 -135 43 -154 50
-13 120 -31 205 -55 28 -9 71 -18 94 -22 24 -3 45 -10 49 -15 3 -5 20 -9 38
-9 52 0 57 -15 31 -95 -24 -74 -53 -178 -80 -285 -9 -36 -22 -87 -30 -115 -18
-68 -33 -129 -49 -195 -8 -30 -25 -93 -38 -140 -33 -112 -80 -296 -154 -595
-8 -33 -20 -73 -26 -90 -5 -16 -14 -46 -18 -65 -4 -19 -18 -71 -30 -115 -12
-44 -28 -111 -36 -148 -8 -38 -16 -73 -19 -77 -3 -5 -10 -28 -15 -52 -5 -24
-27 -110 -50 -193 -22 -82 -45 -168 -50 -190 -11 -43 -33 -122 -56 -196 -8
-26 -14 -57 -14 -70 0 -13 -6 -44 -14 -69 -14 -44 -23 -78 -51 -190 -8 -30
-21 -77 -29 -105 -34 -117 -69 -254 -80 -310 l-11 -60 -80 -6 c-102 -8 -136
-19 -206 -69 -31 -22 -65 -40 -74 -40 -10 0 -41 24 -69 53 -28 30 -73 72 -100
93 -28 21 -66 54 -85 72 -44 41 -302 259 -385 326 -34 27 -79 65 -101 85 -23
20 -63 54 -90 76 -48 40 -168 141 -380 321 -60 51 -164 139 -230 194 -66 55
-147 125 -180 154 -117 103 -260 206 -285 206 -5 0 -10 -4 -10 -9 0 -13 144
-158 204 -207 28 -21 70 -58 95 -81 25 -22 74 -64 109 -91 34 -28 92 -76 128
-108 36 -32 75 -65 87 -73 22 -16 38 -29 132 -111 29 -25 87 -74 131 -110 43
-36 95 -80 116 -98 20 -19 49 -43 65 -55 16 -12 42 -34 58 -49 17 -14 82 -70
145 -123 63 -53 140 -119 170 -145 31 -26 80 -67 110 -91 30 -24 60 -47 65
-51 6 -4 37 -33 70 -63 33 -30 93 -78 133 -107 39 -29 72 -57 72 -63 0 -6 -7
-20 -15 -32 -18 -26 -44 -101 -53 -156 -7 -41 -9 -42 -47 -42 -45 0 -65 -10
-65 -31 0 -19 21 -27 73 -28 41 -1 41 -1 58 -58 10 -31 31 -75 48 -99 17 -23
31 -49 31 -57 0 -8 -20 -38 -44 -66 -40 -47 -78 -94 -306 -381 -179 -225 -427
-539 -553 -701 -18 -23 -84 -106 -147 -185 -151 -188 -292 -366 -363 -459 -67
-88 -125 -161 -262 -332 -55 -69 -154 -194 -220 -278 -66 -84 -143 -181 -170
-214 -28 -34 -71 -88 -95 -121 -24 -33 -65 -85 -92 -115 -26 -30 -76 -92 -110
-136 -72 -94 -207 -265 -290 -368 -31 -39 -87 -112 -123 -163 -37 -50 -74 -94
-82 -98 -9 -3 -32 5 -52 18 -51 33 -169 54 -220 39 -81 -25 -118 -14 -127 36
-6 33 -51 141 -75 182 -5 8 -14 26 -19 40 -6 14 -17 40 -26 57 -8 18 -21 47
-29 65 -36 85 -108 229 -116 234 -5 3 -9 16 -9 29 0 13 -7 30 -15 39 -8 8 -15
21 -15 28 0 7 -6 22 -14 33 -7 11 -17 31 -21 45 -4 14 -20 52 -35 85 -15 33
-37 80 -48 105 -11 25 -41 89 -66 143 -25 54 -46 100 -46 102 0 3 -40 90 -117
255 -14 30 -32 69 -39 85 -7 17 -29 65 -48 108 -20 43 -36 82 -36 86 0 5 -6
14 -14 20 -8 7 -18 25 -21 41 -3 16 -13 34 -21 41 -8 6 -14 22 -14 34 0 12 -7
28 -15 35 -8 7 -15 17 -15 22 0 11 -61 153 -82 188 -4 8 -11 22 -15 30 -17 40
-68 110 -80 110 -18 0 -17 -41 2 -66 8 -10 15 -29 15 -41 0 -12 6 -34 14 -50
8 -15 40 -82 71 -148 32 -66 61 -127 66 -135 5 -8 14 -26 19 -40 6 -14 15 -33
20 -42 6 -10 10 -22 10 -28 0 -12 31 -80 144 -323 25 -53 46 -100 46 -103 0
-4 25 -59 56 -123 30 -64 64 -136 75 -161 12 -25 28 -61 37 -80 8 -19 22 -51
30 -70 8 -19 19 -42 24 -50 4 -8 11 -22 14 -30 16 -40 68 -142 76 -146 4 -3 8
-13 8 -23 0 -10 7 -24 15 -31 8 -7 15 -19 15 -27 0 -18 28 -83 113 -263 25
-52 64 -135 87 -185 23 -49 51 -100 62 -112 24 -26 15 -47 -37 -87 -50 -38
-125 -155 -125 -194 0 -18 -7 -49 -15 -70 -15 -36 -15 -42 5 -92 18 -46 19
-55 6 -74 -8 -12 -74 -47 -162 -85 -153 -66 -224 -98 -377 -170 -48 -22 -90
-41 -93 -41 -3 0 -72 -32 -152 -70 -217 -104 -221 -106 -342 -158 -117 -51
-277 -127 -291 -139 -8 -7 -21 -13 -28 -13 -14 0 -70 -24 -276 -120 -49 -23
-135 -62 -190 -87 -55 -24 -140 -64 -190 -88 -139 -66 -224 -105 -230 -105 -3
0 -54 -23 -113 -51 -170 -81 -308 -145 -374 -174 -79 -34 -142 -62 -271 -121
-75 -35 -139 -64 -141 -64 -2 0 -55 -24 -117 -54 -188 -89 -265 -124 -329
-151 -59 -25 -223 -104 -302 -146 -20 -10 -43 -19 -50 -19 -7 0 -40 -13 -73
-29 -33 -16 -89 -43 -125 -59 -36 -17 -96 -45 -135 -62 -38 -18 -104 -47 -145
-65 -41 -18 -113 -51 -160 -73 -47 -22 -107 -50 -135 -63 -27 -12 -100 -46
-161 -76 -62 -29 -118 -51 -126 -48 -7 3 -24 22 -37 43 -42 67 -129 122 -211
133 -59 9 -85 30 -76 64 10 35 6 4738 -3 4779 -9 35 -27 67 -33 56 -2 -3 -5
-1105 -8 -2450 l-5 -2445 -52 -5 c-76 -8 -168 -75 -229 -167 -38 -56 -54 -101
-54 -150 0 -17 -6 -35 -12 -40 -7 -4 -126 -6 -264 -4 -223 3 -252 1 -257 -13
-7 -19 1 -46 14 -46 17 0 9 -17 -40 -91 -26 -41 -59 -94 -72 -119 -13 -24 -39
-67 -56 -94 -36 -55 -40 -77 -20 -94 20 -17 52 -4 64 26 7 15 32 63 57 107 26
44 64 116 87 160 22 43 45 85 51 92 13 16 174 18 183 3 4 -6 -4 -23 -17 -38
-24 -29 -122 -185 -171 -274 -29 -51 -29 -88 -1 -88 29 0 77 72 153 227 17 34
35 64 41 68 5 3 10 15 10 26 0 10 4 19 10 19 5 0 12 11 16 25 3 14 14 29 23
34 14 8 108 15 154 12 26 -2 21 -33 -11 -63 -16 -15 -61 -81 -100 -149 -74
-125 -90 -179 -54 -179 25 0 54 34 83 95 13 28 28 57 35 65 6 8 22 42 35 75
29 73 49 106 59 100 5 -3 14 -22 21 -43 7 -20 27 -59 46 -87 33 -49 41 -75 24
-75 -5 0 -28 -25 -51 -55 -45 -59 -47 -85 -6 -85 30 0 63 40 72 87 9 48 28 51
81 14 70 -50 169 -66 279 -44 58 11 110 40 171 97 43 38 103 131 103 157 0 8
5 31 11 51 l10 38 2364 2 c1300 2 2367 6 2371 11 4 4 0 15 -9 25 -16 16 -69
17 -691 20 -532 2 -676 5 -685 15 -7 9 -6 21 6 43 25 44 31 383 9 508 -16 88
-36 168 -58 231 -5 17 -15 44 -20 60 -6 17 -25 62 -43 100 -19 39 -36 77 -40
85 -17 41 -68 113 -122 172 -24 26 -43 51 -43 57 0 5 16 9 36 9 43 0 73 23 52
39 -7 6 -40 20 -74 31 -90 31 -162 77 -164 103 0 4 24 14 53 23 64 20 107 38
217 89 47 21 155 70 240 109 85 38 198 90 250 115 52 25 109 51 125 58 17 8
59 27 95 43 135 62 246 113 260 123 8 5 22 12 30 16 8 3 35 15 60 25 25 11 60
26 77 34 18 8 47 21 65 29 18 7 67 29 108 49 41 19 152 69 245 111 94 42 210
97 259 121 50 25 96 42 105 39 9 -4 30 -25 46 -47 74 -101 212 -153 346 -130
90 16 141 42 204 107 55 57 84 110 109 196 20 71 20 110 -1 153 -16 34 -16 37
2 56 10 11 27 22 39 26 11 3 35 12 51 19 17 8 64 28 105 45 41 18 127 57 190
87 63 30 129 61 145 68 105 47 312 146 365 175 8 4 38 18 65 30 28 12 64 28
80 35 32 14 270 131 295 145 8 4 53 25 100 45 47 20 109 48 138 61 29 13 55
24 57 24 4 0 61 27 333 156 63 30 117 54 122 54 4 0 13 6 19 14 7 8 24 17 39
21 39 8 100 61 87 74 -19 19 -109 -15 -370 -139 -44 -21 -102 -48 -130 -59
-27 -12 -57 -26 -65 -31 -8 -6 -22 -13 -30 -16 -8 -3 -36 -17 -61 -30 -26 -13
-50 -24 -53 -24 -12 0 -46 84 -46 115 0 17 -7 39 -15 49 -8 11 -15 27 -15 37
0 9 -7 22 -15 29 -8 7 -15 18 -15 26 0 18 -48 88 -111 159 -57 66 -95 97 -140
115 -39 17 -36 50 6 63 36 11 67 36 59 48 -2 5 -57 8 -122 7 -64 -1 -127 1
-139 6 -33 11 -29 44 11 86 18 19 75 87 125 150 50 63 111 140 135 170 24 30
90 114 147 185 56 72 135 171 174 220 39 50 110 140 158 200 47 61 177 225
289 366 112 140 248 313 303 383 55 70 132 167 170 214 108 134 207 262 243
315 34 49 54 57 81 33 9 -8 41 -23 71 -33 l55 -18 3 -48 c3 -52 21 -69 48 -47
10 9 13 22 9 40 -7 32 15 60 47 60 34 0 126 30 138 45 7 8 17 15 24 15 20 0
115 111 142 167 25 50 28 66 27 162 0 117 -12 155 -79 237 -19 23 -34 48 -34
57 0 9 26 43 58 75 61 63 88 95 203 237 41 50 110 133 154 187 156 188 241
293 318 396 43 57 81 101 85 98 3 -4 8 -25 11 -49 5 -37 9 -42 31 -42 25 0 25
1 28 95 l3 95 43 45 c52 54 233 272 324 390 36 47 95 119 132 160 128 146 187
240 151 240 -18 0 -121 -102 -168 -166 -26 -35 -50 -64 -54 -64 -4 0 -14 8
-21 18 -43 61 -101 120 -162 164 -82 60 -175 108 -209 108 -27 0 -37 16 -37
61 0 26 -4 29 -30 29 -18 0 -30 -5 -30 -13 0 -7 -6 -22 -14 -33 -14 -18 -16
-18 -44 -1 -21 11 -51 17 -96 17 -36 0 -66 3 -66 6 0 3 9 19 21 35 19 28 20
59 2 59 -5 0 -31 -15 -58 -32 -62 -41 -159 -88 -179 -88 -22 0 -20 24 10 105
14 39 32 95 39 125 7 30 21 84 30 120 9 36 23 92 30 125 25 104 43 177 68 265
13 47 36 132 51 190 30 115 46 176 70 261 9 31 16 67 16 81 0 36 30 119 45
125 8 2 35 -5 61 -16 25 -12 54 -21 64 -21 10 0 35 -7 56 -16 22 -9 62 -23 89
-30 28 -7 82 -22 120 -33 112 -33 110 -34 140 93 8 33 21 88 29 121 8 33 20
80 26 105 7 25 16 59 22 75 39 115 42 134 23 155 -22 25 -30 25 -53 2 -12 -12
-21 -41 -26 -76 -3 -32 -11 -67 -17 -78 -6 -11 -14 -40 -19 -66 -14 -74 -61
-236 -73 -250 -6 -8 -19 -11 -31 -7 -12 3 -43 13 -71 21 -27 8 -71 19 -96 24
-25 4 -62 15 -82 24 -36 15 -37 17 -31 54 4 28 2 41 -10 51 -23 19 -46 -3 -46
-45 0 -19 -4 -34 -10 -34 -24 0 -118 23 -147 36 -17 8 -37 14 -43 14 -7 0 -38
9 -69 19 -76 27 -188 58 -233 66 -20 3 -46 13 -57 23 l-20 17 25 73 c14 40 30
99 35 130 15 82 32 104 73 97 23 -5 36 -2 46 10 17 20 3 35 -36 39 -16 2 -33
4 -38 5 -12 1 2 63 17 73 20 13 54 9 67 -7 7 -9 29 -15 55 -15 27 0 51 -7 68
-20 16 -13 40 -20 66 -20 34 0 44 -5 67 -36 26 -33 30 -35 69 -29 55 8 64 -5
64 -86 0 -35 0 -73 0 -84 0 -11 -2 -52 -5 -92 -5 -64 -3 -74 16 -93 43 -43 48
-19 49 216 0 176 3 219 16 237 8 12 15 34 15 49 0 15 9 50 20 78 11 28 20 63
20 78 1 15 7 38 15 52 8 14 14 41 15 60 0 19 7 48 15 63 8 15 17 45 20 65 4
20 13 57 20 82 8 25 19 68 25 95 6 28 18 75 25 105 8 30 19 75 25 100 7 25 16
59 22 75 11 31 28 137 31 190 1 21 -3 31 -15 33 -14 3 -19 -6 -24 -37z m-390
-3150 c31 -11 69 -27 84 -35 15 -8 48 -18 74 -21 25 -3 52 -13 58 -20 7 -8 17
-15 23 -15 20 0 147 -92 217 -157 45 -42 70 -72 70 -86 0 -17 -125 -179 -159
-207 -16 -13 -160 -199 -180 -233 -26 -43 -38 -39 -43 12 -4 40 -30 63 -50 43
-14 -14 -14 -93 0 -132 8 -21 -1 -36 -71 -119 -44 -53 -103 -121 -132 -151
-28 -30 -60 -68 -70 -85 -10 -16 -37 -50 -61 -75 -41 -45 -63 -71 -252 -305
-53 -66 -99 -122 -103 -125 -3 -3 -22 -26 -41 -51 -19 -26 -52 -67 -72 -91
-21 -25 -43 -55 -49 -68 -21 -41 -40 -45 -81 -19 -43 28 -43 22 4 159 7 19 16
58 20 86 4 28 12 60 18 70 6 11 13 41 17 68 4 27 14 61 21 75 8 14 14 38 14
53 0 15 5 39 11 55 11 29 42 138 59 208 6 22 16 63 24 90 8 28 21 77 29 110 8
33 20 80 26 105 7 25 18 70 26 100 7 30 20 82 29 115 8 33 24 92 35 130 17 59
80 310 113 447 10 45 31 53 88 33 23 -8 54 -15 69 -15 15 0 44 -9 66 -20 74
-38 134 -18 79 27 -16 13 -35 28 -42 34 -40 32 46 39 132 10z m-852 -2014 c77
-53 113 -104 137 -197 17 -65 18 -75 4 -133 -20 -81 -20 -81 -66 -148 -16 -23
-77 -68 -134 -98 -38 -19 -164 -14 -218 10 -57 25 -120 86 -159 154 -26 45
-29 59 -29 141 -1 81 2 96 26 137 40 67 74 104 124 134 56 33 90 41 180 42 69
1 74 -1 135 -42z m-2205 -2995 c15 -15 51 -55 78 -90 28 -34 61 -65 74 -69 35
-9 44 15 21 54 -11 18 -17 33 -14 33 39 0 211 -196 256 -290 36 -76 58 -130
58 -143 0 -7 7 -22 15 -33 8 -10 15 -36 15 -57 0 -32 -4 -39 -27 -48 -31 -11
-90 -37 -113 -51 -8 -4 -21 -10 -27 -13 -7 -3 -19 -7 -25 -10 -7 -3 -20 -9
-28 -15 -21 -13 -107 -50 -118 -50 -5 0 -15 -7 -22 -15 -7 -8 -19 -15 -27 -15
-8 0 -81 -32 -161 -71 -81 -39 -160 -77 -177 -84 -16 -7 -78 -36 -138 -64 -59
-28 -113 -51 -121 -51 -7 0 -19 -7 -26 -15 -7 -8 -18 -15 -25 -15 -8 0 -26 -6
-42 -14 -15 -8 -100 -50 -188 -93 -88 -42 -164 -83 -168 -90 -15 -24 -51 -14
-72 20 -44 73 -47 66 56 188 35 42 111 136 169 210 58 73 132 167 165 209 33
41 98 125 145 185 46 61 107 137 135 170 29 33 63 77 77 98 14 20 40 54 59 75
19 20 50 60 69 87 73 105 83 111 127 67z m-1237 -1195 c214 -59 302 -315 168
-489 -47 -61 -116 -105 -185 -118 -235 -46 -426 166 -358 397 48 160 215 254
375 210z m-2601 -1635 c24 -53 52 -116 62 -140 11 -24 25 -42 32 -39 6 2 14
28 17 57 3 30 10 55 18 58 6 2 12 -5 12 -15 0 -10 18 -49 40 -88 132 -235 177
-349 230 -582 34 -151 24 -520 -15 -553 -7 -6 -608 -10 -1645 -10 l-1634 -1
-14 47 c-7 25 -11 52 -8 59 2 7 29 22 58 33 49 18 100 41 278 124 36 17 106
48 155 70 50 22 122 55 160 73 129 62 287 135 291 135 2 0 62 27 132 61 70 33
141 66 157 74 17 7 46 20 65 28 19 9 55 25 80 36 25 10 99 45 165 76 66 32
172 79 235 107 63 27 151 67 195 88 44 21 107 50 140 65 102 46 146 66 275
127 131 62 145 69 250 115 35 15 91 42 125 60 91 48 93 47 144 -65z m-3197
-1026 c69 -17 141 -69 184 -134 87 -130 54 -320 -73 -420 -53 -41 -70 -49
-136 -61 -133 -24 -260 43 -330 174 -84 158 9 375 187 437 61 21 93 22 168 4z"/>
<path d="M11626 11025 c-3 -9 -6 -36 -6 -60 0 -46 17 -69 47 -63 15 3 18 14
18 68 0 63 -1 65 -26 68 -17 2 -29 -3 -33 -13z"/>
<path d="M11626 10858 c-3 -13 -6 -58 -6 -100 0 -66 3 -79 19 -88 11 -5 27 -7
36 -4 13 5 15 22 13 108 -3 101 -3 101 -29 104 -20 2 -28 -2 -33 -20z"/>
<path d="M11626 10625 c-3 -9 -6 -45 -6 -79 0 -73 18 -108 47 -90 15 9 18 25
18 95 0 83 0 84 -26 87 -17 2 -29 -3 -33 -13z"/>
<path d="M10492 8910 c-12 -12 -22 -27 -22 -34 0 -24 41 -66 64 -66 49 0 75
70 38 103 -25 23 -54 21 -80 -3z"/>
<path d="M7126 4681 c-24 -26 -9 -72 27 -85 58 -21 104 54 55 88 -30 21 -61
20 -82 -3z"/>
<path d="M1336 2024 c-11 -28 -6 -71 9 -84 9 -8 28 -10 50 -6 33 7 35 9 35 46
0 29 -5 42 -19 50 -29 15 -68 12 -75 -6z"/>
<path d="M12298 14226 c-31 -24 -36 -47 -13 -66 12 -10 20 -7 46 14 37 32 44
32 63 3 14 -20 13 -27 -10 -75 l-25 -53 -45 7 c-74 11 -104 -38 -41 -67 27
-13 36 -13 57 -2 31 16 65 17 92 2 29 -16 91 4 112 36 9 13 16 27 16 30 0 9
-49 5 -55 -5 -3 -5 -17 -10 -31 -10 -22 0 -24 3 -24 54 0 65 15 80 73 78 58
-3 74 9 61 45 l-9 28 -120 2 c-110 1 -122 -1 -147 -21z"/>
<path d="M12615 14013 c-70 -36 -97 -90 -57 -112 29 -16 62 -2 62 25 0 12 10
30 22 38 20 14 24 14 40 -1 24 -22 23 -38 -7 -57 -28 -19 -24 -38 11 -54 29
-14 33 -61 8 -87 -23 -23 -47 -15 -64 22 -17 37 -41 49 -68 34 -71 -38 6 -121
113 -121 38 0 52 5 76 29 33 34 37 66 13 117 -13 27 -14 40 -5 67 16 48 0 86
-39 94 -17 3 -33 10 -36 14 -7 13 -34 9 -69 -8z"/>
<path d="M1337 13943 c-9 -8 -9 -56 -1 -77 7 -19 35 -21 52 -4 18 18 15 75 -4
82 -20 8 -39 8 -47 -1z"/>
<path d="M1334 13786 c-3 -14 -3 -53 0 -88 7 -79 7 -77 1 -173 -7 -91 1 -111
39 -101 25 6 26 9 26 79 0 50 -5 80 -16 95 -15 21 -15 25 0 41 19 21 22 141 4
159 -20 20 -47 14 -54 -12z"/>
<path d="M9397 13772 c-28 -29 -34 -56 -17 -82 9 -13 13 -11 29 9 38 50 46 -7
10 -82 -11 -25 -10 -33 6 -63 18 -34 18 -35 -3 -50 -29 -20 -29 -64 1 -92 28
-27 127 -32 147 -7 17 21 50 87 50 102 0 7 20 64 45 128 47 118 48 144 11 158
-21 8 -52 -34 -60 -81 -6 -43 -31 -101 -60 -145 -16 -24 -17 -33 -8 -48 17
-26 15 -43 -7 -63 -12 -11 -31 -16 -53 -14 -29 3 -33 7 -36 34 -3 27 1 33 22
38 28 7 32 22 15 59 -9 20 -7 36 10 81 25 68 26 94 5 124 -22 32 -73 30 -107
-6z"/>
<path d="M10420 13668 c-41 -4 -100 -13 -131 -18 -88 -16 -249 -12 -308 7 -38
12 -55 13 -63 5 -20 -20 0 -39 99 -92 54 -29 114 -66 134 -81 20 -16 40 -29
44 -29 10 0 125 -88 170 -131 50 -48 113 -76 121 -55 7 19 -16 62 -60 110 -20
22 -36 45 -36 51 0 7 -9 20 -20 30 -43 39 -10 78 105 125 92 36 123 63 95 80
-17 11 -44 11 -150 -2z"/>
<path d="M11951 13571 c-11 -7 -11 -13 2 -39 16 -33 14 -53 -18 -172 -21 -80
-41 -120 -69 -142 -29 -23 -12 -38 46 -40 58 -3 78 13 71 55 -7 46 10 100 35
113 14 7 42 8 79 3 78 -11 100 -4 134 44 22 31 29 51 29 88 0 48 0 49 -50 74
-43 22 -62 25 -147 25 -54 0 -104 -4 -112 -9z m224 -75 c14 -22 15 -28 1 -60
l-15 -36 -72 0 -72 0 6 36 c11 65 31 84 87 84 41 0 52 -4 65 -24z"/>
<path d="M9735 13540 c-23 -9 -59 -48 -68 -71 -7 -21 11 -39 40 -39 12 0 27
-9 33 -20 6 -11 19 -20 30 -20 43 0 66 -82 32 -113 -35 -32 -62 -16 -62 34 0
22 -45 37 -69 22 -31 -19 -24 -49 17 -82 32 -25 49 -31 89 -31 42 0 55 5 86
34 43 39 47 70 16 110 -17 22 -19 34 -14 80 7 50 5 57 -18 80 -27 27 -71 33
-112 16z m66 -61 c9 -17 8 -24 -4 -36 -21 -22 -57 -8 -57 22 0 38 43 47 61 14z"/>
<path d="M1336 13355 c-3 -9 -6 -41 -6 -71 0 -41 4 -56 16 -61 34 -13 49 11
49 78 0 62 -1 64 -26 67 -17 2 -29 -3 -33 -13z"/>
<path d="M625 13300 c-30 -20 -49 -55 -39 -71 8 -14 36 -11 55 7 47 42 48 -39
3 -152 -13 -33 -24 -66 -24 -72 0 -6 -15 -25 -32 -41 -27 -25 -31 -34 -22 -48
12 -19 62 -28 101 -18 24 6 25 9 19 58 -9 67 -1 90 27 81 12 -4 27 -13 35 -20
18 -19 25 -18 81 10 45 24 49 29 71 95 22 69 22 71 4 117 -24 62 -64 81 -135
63 -38 -10 -52 -10 -61 -1 -18 18 -49 15 -83 -8z m205 -55 c20 -24 6 -122 -21
-151 -26 -28 -46 -30 -71 -7 -24 21 -23 69 2 118 29 56 64 72 90 40z"/>
<path d="M1625 13171 c-54 -7 -69 -26 -40 -55 19 -18 95 -22 126 -6 28 15 24
49 -7 60 -14 6 -26 9 -27 8 -1 0 -24 -4 -52 -7z"/>
<path d="M1828 13173 c-91 -8 -66 -73 29 -73 48 0 55 3 65 26 11 22 10 28 -7
40 -10 8 -24 13 -29 12 -6 -1 -32 -3 -58 -5z"/>
<path d="M1995 13167 c-18 -10 -20 -38 -3 -55 7 -7 35 -12 63 -12 28 0 56 5
63 12 15 15 16 45 2 53 -16 10 -108 12 -125 2z"/>
<path d="M2202 13169 c-27 -10 -29 -45 -3 -59 45 -24 142 -5 141 28 -1 28 -91
48 -138 31z"/>
<path d="M2435 13171 c-87 -10 -66 -71 25 -71 73 0 110 49 54 70 -14 6 -26 9
-27 8 -1 0 -24 -4 -52 -7z"/>
<path d="M2643 13173 c-53 -5 -68 -22 -47 -51 12 -18 25 -22 68 -22 54 0 76
12 76 42 0 17 -30 40 -47 36 -4 -1 -27 -3 -50 -5z"/>
<path d="M2806 13168 c-19 -11 -21 -39 -4 -56 7 -7 36 -12 64 -12 43 0 56 4
68 22 13 18 13 25 3 34 -16 15 -110 24 -131 12z"/>
<path d="M3013 13169 c-28 -10 -30 -44 -4 -59 45 -24 142 -5 141 28 -1 31 -87
50 -137 31z"/>
<path d="M3247 13173 c-52 -4 -65 -19 -47 -52 9 -17 20 -21 65 -21 55 0 85 16
85 46 0 12 -46 39 -53 32 -1 -1 -24 -3 -50 -5z"/>
<path d="M3410 13165 c-7 -8 -9 -26 -6 -40 6 -23 11 -25 57 -25 60 0 89 13 89
41 0 23 -6 25 -77 33 -38 3 -55 1 -63 -9z"/>
<path d="M3620 13168 c-22 -8 -26 -38 -8 -56 17 -17 113 -15 128 3 25 30 8 50
-47 55 -29 3 -62 2 -73 -2z"/>
<path d="M3850 13171 c-48 -6 -63 -28 -40 -56 13 -15 93 -21 124 -9 20 8 22
64 2 64 -8 0 -20 2 -28 3 -7 2 -33 1 -58 -2z"/>
<path d="M4021 13171 c-7 -5 -11 -21 -9 -37 3 -27 6 -29 55 -32 29 -2 62 2 73
8 22 12 27 48 8 54 -31 10 -115 14 -127 7z"/>
<path d="M4226 13168 c-19 -11 -21 -39 -4 -56 7 -7 35 -12 63 -12 28 0 56 5
63 12 16 16 15 48 0 53 -31 9 -107 11 -122 3z"/>
<path d="M4843 13172 c-26 -4 -36 -27 -23 -53 8 -15 22 -19 61 -19 28 0 59 5
70 10 19 11 26 44 11 54 -12 7 -92 13 -119 8z"/>
<path d="M5073 13173 c-54 -5 -73 -26 -48 -53 14 -15 31 -20 72 -20 48 0 55 3
65 26 11 22 10 28 -7 40 -10 8 -24 13 -29 12 -6 -1 -30 -3 -53 -5z"/>
<path d="M5241 13168 c-29 -10 -35 -28 -15 -49 14 -16 28 -19 72 -17 62 3 86
24 66 56 -12 18 -85 24 -123 10z"/>
<path d="M5442 13169 c-25 -9 -29 -41 -8 -58 8 -7 38 -11 72 -9 47 2 58 7 64
24 5 11 5 25 2 31 -9 14 -103 22 -130 12z"/>
<path d="M5675 13171 c-54 -7 -69 -26 -40 -55 19 -18 95 -22 126 -6 28 15 24
49 -7 60 -14 6 -26 9 -27 8 -1 0 -24 -4 -52 -7z"/>
<path d="M5877 13173 c-55 -5 -69 -23 -42 -53 14 -15 31 -20 72 -20 48 0 55 3
65 26 11 22 10 28 -7 40 -10 8 -24 13 -29 12 -6 -1 -33 -3 -59 -5z"/>
<path d="M6048 13169 c-21 -12 -23 -40 -6 -57 18 -18 129 -15 156 3 19 14 24
14 51 0 68 -35 163 -5 133 42 -5 8 -50 11 -143 11 -75 0 -144 2 -155 5 -10 4
-27 2 -36 -4z"/>
<path d="M6485 13171 c-87 -10 -66 -71 25 -71 73 0 110 49 54 70 -14 6 -26 9
-27 8 -1 0 -24 -4 -52 -7z"/>
<path d="M6698 13173 c-57 -5 -73 -21 -52 -51 12 -18 25 -22 68 -22 54 0 76
12 76 42 0 14 -32 42 -42 36 -2 -1 -24 -3 -50 -5z"/>
<path d="M6856 13168 c-19 -11 -21 -39 -4 -56 7 -7 36 -12 64 -12 43 0 56 4
68 22 13 18 13 25 3 34 -16 15 -110 24 -131 12z"/>
<path d="M7063 13169 c-29 -10 -30 -45 -3 -59 33 -18 110 -8 126 15 7 11 10
26 5 33 -9 15 -97 23 -128 11z"/>
<path d="M7297 13173 c-52 -4 -65 -19 -47 -52 9 -17 20 -21 61 -21 28 0 59 5
70 10 28 15 24 49 -7 60 -14 6 -26 9 -27 8 -1 -1 -24 -3 -50 -5z"/>
<path d="M7460 13165 c-7 -8 -10 -25 -6 -40 6 -24 10 -25 72 -25 44 0 75 6 95
17 26 16 29 16 47 0 27 -24 126 -23 150 1 18 18 19 18 42 0 14 -11 38 -18 65
-18 61 0 75 8 75 41 l0 29 -68 0 c-38 0 -73 -5 -80 -12 -8 -8 -15 -8 -24 0 -9
7 -69 11 -164 10 -83 0 -160 3 -171 6 -12 4 -25 1 -33 -9z"/>
<path d="M8070 13170 c-7 -4 -10 -20 -8 -36 3 -27 6 -29 55 -32 29 -2 62 2 73
8 20 11 27 44 11 54 -14 9 -119 13 -131 6z"/>
<path d="M8271 13167 c-14 -14 -14 -40 1 -55 7 -7 35 -12 63 -12 54 0 75 12
75 42 0 22 -7 24 -76 32 -32 3 -56 0 -63 -7z"/>
<path d="M8480 13168 c-22 -8 -26 -38 -8 -56 17 -17 113 -15 128 3 25 30 8 50
-47 55 -29 3 -62 2 -73 -2z"/>
<path d="M8679 13168 c-22 -9 -25 -40 -5 -57 9 -7 38 -11 73 -9 57 3 58 3 61
36 3 25 -1 32 -15 33 -64 4 -97 3 -114 -3z"/>
<path d="M9938 13173 c-58 -5 -78 -25 -53 -53 14 -15 31 -20 72 -20 48 0 55 3
65 26 11 22 10 28 -7 40 -10 8 -21 13 -24 12 -3 -1 -27 -3 -53 -5z"/>
<path d="M10095 13167 c-18 -10 -20 -38 -3 -55 7 -7 35 -12 63 -12 28 0 56 5
63 12 15 15 16 45 2 53 -16 10 -108 12 -125 2z"/>
<path d="M1347 13163 c-3 -5 -8 -27 -12 -50 -8 -52 2 -103 20 -103 24 0 47 31
41 55 -8 33 16 49 62 42 51 -9 68 5 63 51 -1 13 -166 18 -174 5z"/>
<path d="M4413 13154 c-13 -34 11 -49 85 -52 64 -3 72 -1 82 18 22 41 7 50
-80 50 -65 0 -82 -3 -87 -16z"/>
<path d="M4617 13163 c-14 -13 -6 -43 13 -53 11 -6 44 -10 73 -8 51 3 52 4 55
36 l3 32 -69 0 c-38 0 -72 -3 -75 -7z"/>
<path d="M8866 13154 c-3 -9 -1 -24 4 -35 9 -16 22 -19 73 -19 35 0 74 7 90
15 26 13 31 13 50 0 30 -21 125 -20 149 2 18 16 21 16 47 0 19 -11 51 -17 90
-17 51 0 62 3 71 21 25 46 20 47 -284 47 -243 0 -285 -2 -290 -14z"/>
<path d="M9477 13163 c-14 -13 -6 -43 13 -53 11 -6 44 -10 73 -8 51 3 52 4 55
36 l3 32 -69 0 c-38 0 -72 -3 -75 -7z"/>
<path d="M9682 13158 c-29 -29 5 -58 67 -58 57 0 93 28 71 55 -15 18 -120 21
-138 3z"/>
<path d="M10287 13163 c-14 -13 -7 -43 12 -53 34 -18 106 -12 126 10 29 32 5
50 -70 50 -34 0 -65 -3 -68 -7z"/>
<path d="M11307 13164 c-12 -12 -8 -52 6 -57 8 -3 38 -2 68 1 49 6 54 9 54 32
0 24 -3 25 -60 28 -34 2 -64 0 -68 -4z"/>
<path d="M1334 12936 c-3 -19 -3 -59 0 -88 3 -29 5 -66 4 -83 -2 -29 -1 -157
1 -192 1 -10 -1 -45 -5 -78 -7 -71 7 -99 44 -84 19 7 22 16 22 65 0 39 -5 63
-17 76 -15 17 -15 19 0 36 23 26 23 138 1 171 -16 22 -16 24 0 33 12 7 16 25
16 81 0 75 -9 97 -42 97 -12 0 -19 -11 -24 -34z"/>
<path d="M831 12914 c-27 -35 -26 -43 7 -55 26 -9 27 -11 25 -75 -1 -53 -6
-70 -22 -86 -27 -24 -26 -44 2 -62 78 -50 165 -15 178 71 4 27 19 80 34 120
31 82 28 103 -14 103 -30 0 -41 -14 -41 -53 0 -44 -21 -95 -45 -111 -23 -15
-25 -15 -35 4 -8 14 -7 29 5 56 21 51 19 91 -4 104 -34 18 -68 12 -90 -16z
m113 -237 c-8 -22 -20 -22 -28 0 -7 18 14 37 27 24 4 -4 5 -15 1 -24z"/>
<path d="M11636 12501 c-5 -8 -8 -80 -6 -161 1 -14 -2 -53 -6 -87 -9 -87 -1
-115 34 -111 l27 3 2 160 c2 88 0 170 -2 183 -5 22 -38 31 -49 13z"/>
<path d="M1342 12353 c-10 -18 -15 -333 -6 -365 6 -21 34 -24 52 -6 15 15 16
129 0 163 -9 19 -8 30 1 48 7 13 11 49 9 86 -2 52 -7 66 -25 78 -19 13 -23 13
-31 -4z"/>
<path d="M11627 12084 c-4 -4 -7 -33 -7 -64 0 -61 14 -85 47 -78 15 3 18 14
18 73 0 67 -1 70 -25 73 -14 2 -29 0 -33 -4z"/>
<path d="M11817 11985 c-24 -23 -22 -87 3 -110 11 -10 20 -25 20 -32 0 -8 9
-26 20 -40 34 -43 -2 -133 -52 -133 l-28 0 0 99 c0 64 -4 102 -11 107 -17 10
-120 5 -134 -6 -14 -12 -11 -108 4 -123 17 -17 41 2 55 43 8 25 18 36 34 38
19 3 23 0 19 -15 -18 -60 -18 -110 1 -158 11 -27 26 -54 35 -59 30 -19 69 6
105 66 21 35 44 60 63 68 32 14 38 40 14 60 -13 10 -14 27 -9 84 5 61 4 74
-13 94 -25 32 -102 42 -126 17z m78 -95 c0 -50 -16 -62 -33 -25 -16 34 -15 62
1 68 24 10 32 0 32 -43z"/>
<path d="M1340 11911 c-15 -28 -12 -114 4 -136 14 -19 15 -19 35 -1 28 26 30
115 3 139 -24 22 -29 21 -42 -2z"/>
<path d="M1340 11710 c-21 -40 -7 -150 20 -150 24 0 40 34 40 83 0 56 -6 70
-32 80 -12 4 -21 0 -28 -13z"/>
<path d="M11636 11674 c-24 -24 -22 -120 3 -134 38 -20 51 -3 51 66 0 52 -3
65 -19 74 -15 7 -23 6 -35 -6z"/>
<path d="M11979 11630 c-39 -39 -38 -83 3 -88 21 -3 30 3 42 26 25 49 76 53
76 6 0 -17 -8 -28 -27 -35 l-27 -10 27 -22 c37 -31 48 -65 31 -99 -25 -49 -74
-34 -74 23 0 11 -11 24 -25 31 -33 15 -55 -4 -55 -48 0 -42 32 -65 100 -72 67
-6 109 12 127 56 13 31 12 37 -6 72 -14 27 -19 55 -18 95 3 72 -20 95 -95 95
-42 0 -54 -5 -79 -30z"/>
<path d="M1334 11495 c-9 -37 0 -153 13 -166 8 -8 17 -5 32 10 17 17 21 33 21
89 0 40 -5 73 -12 80 -20 20 -47 14 -54 -13z"/>
<path d="M12645 11500 c-8 -24 -238 -200 -262 -200 -3 0 -24 -13 -47 -28 -22
-15 -76 -43 -118 -62 -79 -35 -92 -48 -82 -75 8 -19 41 -19 119 0 84 20 108
19 138 -9 27 -25 27 -25 20 -136 l-6 -112 24 4 c26 3 33 18 90 198 45 142 109
287 171 388 18 28 19 35 7 43 -24 15 -47 10 -54 -11z"/>
<path d="M11624 11467 c-3 -8 -4 -47 -2 -88 l3 -74 33 -3 32 -3 0 90 0 91 -30
0 c-17 0 -33 -6 -36 -13z"/>
<path d="M10303 11358 c-43 -46 -53 -70 -53 -125 0 -80 68 -138 134 -114 15 6
51 8 80 5 50 -6 54 -5 79 26 15 17 27 36 27 41 0 16 -32 23 -51 10 -17 -10
-19 -8 -19 17 0 16 7 51 15 78 8 27 12 56 10 65 -6 19 -53 29 -136 29 -49 0
-58 -3 -86 -32z m107 -28 c37 -20 43 -46 21 -94 -46 -105 -135 -72 -101 37 19
61 43 77 80 57z"/>
<path d="M1336 11293 c-4 -14 -1 -275 3 -368 1 -5 -2 -48 -5 -95 -5 -70 -4
-88 9 -99 12 -9 21 -10 36 -1 18 9 21 20 21 83 0 48 -5 80 -15 94 -13 18 -13
22 0 33 19 15 21 131 3 159 -9 15 -9 25 0 46 16 34 15 138 0 153 -18 18 -46
15 -52 -5z"/>
<path d="M10593 11114 c-33 -8 -63 -51 -63 -91 0 -31 2 -34 26 -31 26 3 37 14
48 51 4 11 16 17 36 17 40 0 49 -24 21 -54 -27 -29 -27 -42 3 -61 33 -22 39
-43 21 -72 -22 -32 -78 -30 -83 4 -4 29 -27 46 -51 38 -35 -11 -36 -43 -3 -83
27 -34 33 -37 90 -40 94 -5 100 6 100 162 0 76 -5 132 -12 141 -11 16 -93 27
-133 19z"/>
<path d="M7958 11089 c-28 -16 -21 -36 28 -87 54 -55 68 -71 77 -92 4 -8 16
-28 27 -45 11 -16 29 -46 40 -65 11 -19 30 -51 42 -70 12 -19 42 -75 67 -124
48 -94 72 -119 92 -99 9 9 5 32 -15 98 -18 57 -24 93 -19 108 4 12 8 38 8 57
l0 35 70 -5 c39 -2 97 -4 130 -5 56 0 60 1 60 23 0 20 -9 26 -60 43 -33 10
-82 26 -110 35 -27 9 -64 22 -82 30 -17 8 -36 14 -41 14 -6 0 -23 6 -39 14
-168 82 -205 102 -224 122 -25 27 -27 27 -51 13z"/>
<path d="M12310 10713 c-23 -8 -60 -45 -60 -59 0 -20 31 -25 56 -9 43 28 54
20 54 -38 0 -40 -5 -58 -18 -70 -21 -20 -43 -22 -59 -6 -19 19 -53 -7 -53 -41
0 -17 3 -31 8 -31 4 -1 56 -3 115 -4 92 -2 111 1 132 16 35 28 45 24 43 -21
-1 -22 1 -43 5 -46 11 -12 44 7 55 31 9 20 19 25 47 25 70 0 54 -55 -28 -95
-62 -31 -87 -58 -87 -95 0 -43 13 -49 146 -66 36 -5 44 -2 58 17 35 50 14 78
-46 61 -36 -10 -83 1 -73 18 4 6 23 19 44 29 50 26 101 80 101 107 0 12 -12
37 -27 54 -25 31 -28 32 -82 26 -31 -4 -68 -9 -82 -12 -21 -4 -28 0 -32 15 -6
25 -39 28 -57 6 -18 -22 -57 -19 -65 5 -6 20 28 109 47 121 6 4 24 3 41 -2 23
-6 37 -5 54 6 55 37 1 75 -78 56 -32 -9 -53 -9 -73 -1 -29 11 -61 12 -86 3z"/>
<path d="M1342 10668 c-12 -12 -17 -104 -6 -132 7 -19 35 -21 52 -4 7 7 12 38
12 70 0 46 -4 59 -19 68 -24 13 -24 13 -39 -2z"/>
<path d="M1342 10468 c-12 -12 -17 -104 -6 -132 7 -19 35 -21 52 -4 7 7 12 38
12 70 0 46 -4 59 -19 68 -24 13 -24 13 -39 -2z"/>
<path d="M8066 10334 c-18 -17 -22 -69 -6 -79 6 -3 22 3 36 14 15 12 30 21 34
21 17 0 19 -33 5 -60 -8 -16 -15 -51 -15 -79 0 -57 10 -64 92 -62 52 1 57 -6
31 -47 -36 -56 -73 -67 -91 -28 -17 38 -46 49 -67 26 -14 -16 -15 -24 -6 -52
24 -71 158 -70 202 1 27 44 111 300 107 326 -2 15 -11 20 -32 20 -27 0 -29 -4
-50 -76 -31 -105 -49 -131 -89 -127 -38 4 -48 34 -23 70 10 13 16 43 16 75 0
41 -4 54 -19 63 -30 16 -107 12 -125 -6z"/>
<path d="M1340 10261 c-11 -21 -14 -100 -4 -125 7 -19 35 -21 52 -4 7 7 12 38
12 70 0 46 -4 59 -19 68 -26 14 -29 13 -41 -9z"/>
<path d="M1336 10055 c-3 -9 -6 -47 -6 -85 0 -77 14 -99 50 -80 19 10 21 18
18 93 -3 80 -4 82 -29 85 -17 2 -29 -3 -33 -13z"/>
<path d="M11630 10015 c-5 -14 -10 -52 -10 -84 0 -62 14 -86 47 -79 16 3 18
15 18 93 0 86 -1 90 -22 93 -17 3 -26 -3 -33 -23z"/>
<path d="M8362 9965 c-42 -36 -46 -61 -13 -85 28 -19 51 -13 51 15 0 7 9 20
20 30 18 16 23 17 45 5 43 -23 32 -45 -38 -83 -47 -24 -107 -99 -107 -131 0
-20 24 -36 46 -30 10 3 38 -2 62 -10 71 -26 125 -4 125 50 0 39 -16 48 -51 30
-56 -29 -110 -15 -81 20 7 9 34 26 59 39 57 29 66 40 73 88 5 32 2 43 -18 63
-20 20 -34 24 -84 24 -49 0 -65 -4 -89 -25z"/>
<path d="M1340 9851 c-11 -21 -14 -129 -4 -155 7 -19 35 -21 52 -4 7 7 12 41
12 85 0 61 -3 74 -19 83 -26 14 -29 13 -41 -9z"/>
<path d="M11626 9784 c-3 -9 -6 -35 -6 -59 0 -61 8 -75 41 -75 l29 0 0 75 0
75 -29 0 c-17 0 -31 -6 -35 -16z"/>
<path d="M1339 9619 c-6 -12 -8 -42 -5 -73 8 -67 8 -68 1 -161 -7 -91 1 -111
39 -101 25 6 26 9 26 79 0 51 -5 79 -16 96 -16 22 -16 24 0 33 22 12 23 110 0
132 -21 21 -31 20 -45 -5z"/>
<path d="M11626 9585 c-8 -21 -8 -98 0 -119 4 -10 18 -16 36 -16 l29 0 -3 73
c-3 69 -4 72 -29 75 -17 2 -29 -3 -33 -13z"/>
<path d="M11631 9386 c-7 -9 -11 -37 -9 -73 3 -58 3 -58 36 -61 l33 -3 -3 73
c-3 65 -5 73 -24 76 -11 2 -26 -4 -33 -12z"/>
<path d="M1335 9208 c-2 -13 -4 -89 -2 -170 2 -164 12 -193 49 -148 16 20 19
33 14 75 -7 60 -7 68 0 163 6 78 -3 102 -37 102 -11 0 -21 -9 -24 -22z"/>
<path d="M11631 9186 c-10 -11 -11 -38 -7 -93 7 -94 7 -94 0 -161 -11 -95 14
-153 52 -121 10 9 13 51 11 197 -2 181 -3 187 -23 190 -11 2 -26 -4 -33 -12z"/>
<path d="M505 9011 c-4 -3 -42 -6 -85 -6 -70 0 -81 -3 -105 -25 -26 -24 -30
-60 -8 -67 6 -2 21 5 33 17 22 22 50 21 50 -3 0 -7 -14 -53 -30 -102 -17 -50
-35 -105 -40 -124 -5 -19 -16 -38 -24 -43 -9 -5 -16 -19 -16 -32 0 -27 39 -40
91 -29 28 5 30 8 24 37 -16 78 6 135 43 108 51 -36 61 -37 105 -6 113 79 114
237 2 271 -18 6 -37 8 -40 4z m45 -70 c24 -46 -1 -132 -49 -168 -21 -16 -27
-16 -45 3 -27 27 -20 95 14 142 33 46 63 54 80 23z"/>
<path d="M1366 8839 c-24 -25 -31 -42 -34 -88 -5 -67 11 -91 49 -71 18 10 21
18 16 54 -8 54 0 64 48 68 37 3 40 5 40 33 0 28 -2 30 -45 33 -39 2 -49 -1
-74 -29z"/>
<path d="M1544 8856 c-3 -8 -4 -23 -2 -33 3 -15 15 -19 69 -21 75 -3 99 11 79
47 -9 18 -20 21 -76 21 -47 0 -66 -4 -70 -14z"/>
<path d="M1747 8864 c-4 -4 -7 -18 -7 -30 0 -29 24 -36 110 -32 65 3 65 3 65
33 l0 30 -80 3 c-45 1 -84 0 -88 -4z"/>
<path d="M1952 8858 c-19 -19 -14 -45 11 -52 33 -9 140 -7 155 3 8 4 12 19 10
32 -3 23 -7 24 -83 27 -54 2 -84 -1 -93 -10z"/>
<path d="M2149 8848 c-20 -37 12 -50 106 -44 44 3 85 5 90 5 6 0 42 -1 80 -2
l70 -2 0 30 c0 30 0 30 -63 33 -39 2 -69 -2 -78 -9 -11 -9 -18 -9 -26 -1 -7 7
-44 12 -90 12 -69 0 -79 -2 -89 -22z"/>
<path d="M2557 8864 c-4 -4 -7 -18 -7 -30 0 -28 25 -37 96 -32 47 3 49 4 49
33 0 30 0 30 -65 33 -36 2 -69 0 -73 -4z"/>
<path d="M2759 8854 c-24 -29 1 -49 68 -52 66 -3 90 11 78 48 -5 17 -15 20
-69 20 -46 0 -67 -4 -77 -16z"/>
<path d="M2964 8856 c-14 -36 0 -51 50 -54 76 -5 98 3 94 36 -3 26 -5 27 -71
30 -52 2 -69 0 -73 -12z"/>
<path d="M3164 8856 c-15 -38 -1 -51 61 -54 83 -4 125 5 125 26 0 33 -22 42
-102 42 -59 0 -80 -4 -84 -14z"/>
<path d="M3374 8856 c-3 -8 -4 -23 -2 -33 3 -16 13 -18 88 -16 47 1 93 1 103
1 9 0 53 0 97 0 44 0 88 0 98 0 9 0 55 0 102 -1 l85 -2 0 30 0 30 -81 3 c-63
2 -84 -1 -93 -12 -12 -14 -15 -14 -28 0 -13 12 -32 14 -92 10 -92 -6 -87 -6
-189 0 -67 5 -83 3 -88 -10z"/>
<path d="M3975 8851 c-12 -39 3 -51 70 -51 72 0 94 15 75 49 -9 18 -20 21 -75
21 -53 0 -65 -3 -70 -19z"/>
<path d="M4177 8848 c-10 -37 10 -49 76 -46 43 2 63 8 70 20 20 31 -8 48 -78
48 -56 0 -63 -2 -68 -22z"/>
<path d="M4375 8850 c-11 -35 12 -50 75 -50 63 0 86 15 75 50 -6 18 -15 20
-75 20 -60 0 -69 -2 -75 -20z"/>
<path d="M4584 8856 c-3 -8 -4 -23 -2 -33 3 -15 14 -18 73 -18 l70 0 0 30 0
30 -68 3 c-52 2 -69 0 -73 -12z"/>
<path d="M4785 8851 c-12 -40 3 -51 74 -51 89 0 111 7 111 35 0 30 -16 35
-105 35 -63 0 -75 -3 -80 -19z"/>
<path d="M4994 8856 c-3 -8 -4 -23 -2 -33 3 -16 14 -18 83 -18 l80 0 0 30 0
30 -78 3 c-61 2 -78 0 -83 -12z"/>
<path d="M5192 8858 c-7 -7 -12 -20 -12 -30 0 -21 43 -31 120 -26 54 3 55 4
58 36 l3 32 -78 0 c-48 0 -84 -5 -91 -12z"/>
<path d="M5394 8856 c-3 -8 -4 -23 -2 -33 3 -16 14 -18 87 -18 67 0 86 3 94
17 8 12 7 21 -2 32 -18 22 -169 23 -177 2z"/>
<path d="M5600 8855 c-10 -12 -11 -21 -3 -33 8 -13 25 -17 74 -17 l64 0 0 30
c0 30 -1 30 -61 33 -47 2 -64 -1 -74 -13z"/>
<path d="M5797 8864 c-4 -4 -7 -18 -7 -30 0 -28 25 -37 96 -32 47 3 49 4 49
33 0 30 0 30 -65 33 -36 2 -69 0 -73 -4z"/>
<path d="M5995 8850 c-11 -36 12 -50 81 -50 52 0 64 3 69 19 12 40 -3 51 -75
51 -60 0 -69 -2 -75 -20z"/>
<path d="M6204 8856 c-3 -8 -4 -23 -2 -33 3 -18 33 -20 183 -16 11 1 56 1 100
0 44 0 89 0 100 1 11 0 55 -2 98 -4 53 -4 83 -2 92 6 12 10 21 10 44 0 19 -7
55 -10 98 -6 37 3 77 4 88 4 16 -1 102 -1 193 0 9 1 49 0 87 -1 l70 -2 0 30
c0 30 0 30 -65 33 -49 2 -67 -1 -76 -13 -10 -14 -13 -14 -24 0 -16 19 -160 21
-178 3 -9 -9 -15 -9 -24 0 -19 19 -162 16 -178 -3 -12 -14 -15 -14 -30 0 -21
19 -150 21 -168 3 -10 -10 -17 -10 -32 0 -26 16 -162 16 -178 0 -9 -9 -15 -9
-24 0 -18 18 -167 16 -174 -2z"/>
<path d="M7417 8848 c-10 -37 10 -49 76 -46 43 2 63 8 70 20 20 31 -8 48 -78
48 -56 0 -63 -2 -68 -22z"/>
<path d="M7619 8854 c-9 -11 -10 -20 -2 -32 10 -17 30 -18 193 -13 8 0 43 -2
78 -5 89 -8 114 0 110 34 -3 27 -4 27 -82 30 -61 2 -82 -1 -96 -13 -16 -14
-18 -14 -23 0 -9 22 -159 22 -178 -1z"/>
<path d="M8025 8850 c-12 -37 11 -50 85 -50 84 0 100 6 100 35 0 30 -16 35
-105 35 -65 0 -74 -2 -80 -20z"/>
<path d="M8234 8856 c-3 -8 -4 -23 -2 -33 3 -15 15 -18 77 -21 41 -2 78 2 86
8 9 7 21 7 39 0 15 -5 56 -10 90 -10 73 0 95 15 76 49 -9 18 -20 21 -81 21
-39 0 -80 -5 -91 -11 -14 -8 -23 -8 -31 0 -17 17 -156 14 -163 -3z"/>
<path d="M8634 8856 c-3 -8 -4 -23 -2 -33 3 -16 14 -18 88 -18 l85 0 0 30 0
30 -83 3 c-65 2 -83 0 -88 -12z"/>
<path d="M8842 8838 c3 -33 3 -33 64 -36 70 -3 94 12 74 47 -9 18 -20 21 -76
21 l-65 0 3 -32z"/>
<path d="M9039 8854 c-24 -29 1 -49 68 -52 69 -3 92 12 73 47 -9 18 -20 21
-69 21 -41 0 -62 -5 -72 -16z"/>
<path d="M9234 8844 c-9 -37 8 -45 96 -42 l75 3 3 33 3 32 -85 0 c-84 0 -86
-1 -92 -26z"/>
<path d="M9444 8856 c-3 -8 -4 -23 -2 -33 3 -15 15 -18 84 -21 91 -3 115 9 94
47 -9 19 -20 21 -91 21 -60 0 -81 -4 -85 -14z"/>
<path d="M9650 8855 c-10 -12 -11 -21 -3 -33 10 -16 50 -19 178 -14 11 0 58 0
105 -1 l85 -2 0 30 0 30 -85 -2 c-47 0 -89 -1 -95 -1 -5 0 -46 2 -91 4 -67 5
-83 3 -94 -11z"/>
<path d="M11632 8778 c-16 -16 -16 -139 1 -162 7 -10 22 -16 33 -14 17 3 19
12 19 93 0 83 -2 90 -20 93 -11 1 -26 -3 -33 -10z"/>
<path d="M612 8702 c-7 -5 -11 -27 -10 -58 1 -27 -4 -89 -11 -137 -14 -94 -9
-114 26 -103 13 4 26 30 42 81 30 94 47 93 43 -2 -2 -53 1 -73 12 -82 13 -11
17 -8 27 15 6 16 17 44 25 62 8 18 14 40 14 50 0 9 7 26 15 36 8 11 15 27 15
36 0 8 14 28 31 43 36 32 35 61 -3 65 -18 2 -31 -4 -42 -20 -12 -17 -18 -20
-28 -10 -22 22 -57 14 -64 -14 -4 -14 -14 -41 -24 -61 -15 -31 -18 -33 -30
-18 -12 14 -11 21 4 50 10 18 16 41 14 51 -3 20 -35 29 -56 16z"/>
<path d="M880 8603 c-24 -31 -22 -47 9 -51 21 -3 22 -7 17 -46 -4 -24 -2 -55
3 -69 9 -23 7 -29 -14 -43 -15 -10 -25 -26 -25 -39 0 -37 26 -55 80 -55 75 0
89 18 145 175 38 109 41 124 22 142 -25 26 -49 6 -65 -53 -23 -83 -42 -114
-70 -114 -22 0 -24 3 -18 38 19 107 19 115 0 129 -28 21 -61 15 -84 -14z m108
-225 c-3 -7 -11 -13 -18 -13 -7 0 -15 6 -17 13 -3 7 4 12 17 12 13 0 20 -5 18
-12z"/>
<path d="M1341 8612 c-11 -20 -10 -367 1 -378 5 -4 19 -2 33 4 23 11 25 17 25
76 0 36 -5 77 -12 91 -9 21 -9 31 0 46 18 29 15 144 -4 163 -20 21 -31 20 -43
-2z"/>
<path d="M11627 8574 c-4 -4 -7 -40 -7 -79 0 -77 12 -100 47 -93 16 3 18 14
18 88 0 84 0 85 -25 88 -14 2 -29 0 -33 -4z"/>
<path d="M10992 8488 c-17 -17 -15 -25 9 -59 13 -18 18 -36 14 -47 -4 -9 -13
-71 -21 -136 -14 -122 -11 -146 22 -146 18 0 30 24 54 116 l21 78 -25 18 c-40
30 -42 69 -6 108 33 35 39 65 14 74 -26 10 -69 7 -82 -6z"/>
<path d="M11267 8489 c-13 -8 -17 -20 -15 -42 5 -55 -37 -135 -60 -112 -3 2 1
31 8 64 14 67 9 81 -25 81 -25 0 -32 -11 -65 -102 -13 -35 -12 -39 8 -61 22
-23 22 -25 7 -108 -12 -70 -12 -86 -1 -97 16 -17 56 0 56 23 0 8 7 31 16 52
39 92 47 109 55 123 4 8 18 35 30 59 12 24 37 52 55 63 36 21 42 36 22 56 -15
15 -67 15 -91 1z"/>
<path d="M11632 8348 c-7 -7 -12 -37 -12 -69 0 -60 14 -84 47 -77 15 3 18 14
18 78 0 68 -2 75 -20 78 -11 1 -26 -3 -33 -10z"/>
<path d="M10480 8301 c-5 -11 -10 -46 -10 -79 0 -69 16 -92 53 -75 21 10 23
17 22 80 -1 38 -5 75 -9 81 -11 19 -44 14 -56 -7z"/>
<path d="M1336 8174 c-3 -9 -6 -37 -6 -64 0 -60 7 -80 29 -80 30 0 41 22 41
82 0 46 -4 59 -19 68 -27 14 -38 13 -45 -6z"/>
<path d="M11624 8136 c-3 -7 -4 -40 -2 -72 3 -59 3 -59 36 -62 l32 -3 0 75 0
76 -30 0 c-17 0 -33 -6 -36 -14z"/>
<path d="M10480 8100 c-6 -11 -10 -44 -8 -73 3 -51 4 -52 35 -55 28 -3 33 1
39 24 4 15 3 47 -2 73 -7 36 -14 47 -31 49 -14 2 -26 -4 -33 -18z"/>
<path d="M1334 7965 c-10 -25 1 -124 15 -138 10 -9 17 -7 32 12 16 19 19 36
17 80 -3 53 -5 56 -31 59 -18 2 -29 -2 -33 -13z"/>
<path d="M11633 7944 c-9 -4 -13 -28 -13 -69 0 -53 3 -66 19 -75 40 -21 52 -3
49 74 -3 63 -5 71 -23 73 -11 1 -26 -1 -32 -3z"/>
<path d="M10487 7908 c-22 -12 -24 -126 -3 -166 12 -24 12 -30 0 -47 -17 -23
-19 -136 -2 -153 17 -17 45 -15 56 4 11 21 3 144 -11 162 -6 8 -6 16 1 25 13
15 24 149 14 164 -11 16 -37 22 -55 11z"/>
<path d="M5716 7792 c-3 -10 1 -42 9 -72 44 -160 70 -351 65 -487 -4 -99 -3
-103 24 -103 18 0 27 9 40 43 9 23 16 59 16 80 0 28 8 45 30 69 17 17 30 37
30 44 0 8 9 14 19 14 19 0 111 -45 153 -75 29 -20 62 -19 79 1 11 14 9 19 -16
37 -105 75 -385 385 -385 426 0 38 -54 57 -64 23z"/>
<path d="M1347 7783 c-4 -3 -7 -36 -7 -72 -1 -38 -7 -77 -15 -91 -8 -14 -14
-41 -15 -61 0 -20 -7 -42 -15 -49 -8 -7 -15 -27 -15 -44 0 -17 -6 -40 -14 -51
-7 -11 -16 -36 -20 -56 -4 -21 -13 -42 -21 -49 -8 -7 -15 -18 -15 -25 0 -6
-11 -34 -25 -61 -28 -55 -26 -74 7 -74 17 0 37 20 78 75 30 41 62 75 71 75 9
0 19 7 23 15 11 29 36 14 93 -57 75 -94 89 -108 112 -108 29 0 31 22 5 76 -13
27 -24 54 -24 60 0 6 -6 17 -14 23 -7 6 -16 29 -20 50 -3 21 -13 44 -21 51 -8
7 -15 27 -15 44 0 17 -7 40 -15 50 -8 11 -15 32 -15 47 0 14 -6 42 -14 60 -8
19 -17 61 -21 94 -4 33 -12 66 -17 73 -11 13 -40 16 -51 5z"/>
<path d="M11632 7738 c-14 -14 -17 -135 -3 -156 4 -8 19 -12 32 -10 23 3 24 6
24 88 0 78 -2 85 -20 88 -11 1 -26 -3 -33 -10z"/>
<path d="M8265 7528 c-15 -12 -41 -42 -56 -67 -40 -63 -40 -120 1 -172 l31
-38 111 3 c108 3 111 4 134 32 42 52 24 95 -21 50 -27 -27 -40 -32 -49 -17 -5
7 29 114 58 182 11 24 -21 46 -45 31 -26 -16 -54 -15 -69 3 -18 22 -63 18 -95
-7z m97 -73 c14 -49 0 -102 -34 -130 -34 -29 -37 -29 -60 -12 -40 31 -28 91
31 160 22 26 53 17 63 -18z"/>
<path d="M11630 7530 c-6 -11 -10 -51 -8 -88 l3 -67 33 -3 33 -3 -3 88 c-3 82
-5 88 -25 91 -14 2 -26 -4 -33 -18z"/>
<path d="M10482 7468 c-7 -7 -12 -38 -12 -70 0 -53 2 -58 25 -64 15 -4 32 -1
40 6 17 14 20 91 5 121 -12 21 -40 25 -58 7z"/>
<path d="M11627 7333 c-9 -8 -9 -136 -1 -157 4 -10 18 -16 35 -16 l29 0 0 90
0 90 -28 0 c-16 0 -32 -3 -35 -7z"/>
<path d="M8539 7250 c-41 -41 -38 -85 6 -85 23 0 30 5 35 25 5 21 12 25 40 25
32 0 35 -3 38 -32 3 -30 0 -34 -57 -63 -73 -36 -99 -69 -85 -108 6 -18 18 -28
34 -30 14 -1 49 -10 78 -20 l54 -17 30 33 c48 55 31 76 -47 58 -37 -8 -69 11
-59 37 3 9 16 17 28 17 11 0 43 20 70 43 46 40 48 45 36 68 -7 13 -24 36 -38
52 -22 23 -34 27 -80 27 -46 0 -58 -4 -83 -30z"/>
<path d="M10480 7261 c-14 -27 -13 -114 2 -129 33 -33 68 2 68 68 0 69 -44
108 -70 61z"/>
<path d="M435 7200 c-35 -13 -87 -68 -83 -87 5 -26 30 -27 58 -3 36 32 46 11
26 -58 -9 -32 -16 -64 -16 -71 0 -18 47 -61 67 -61 16 0 18 12 20 128 2 70 -1
132 -5 138 -10 17 -44 24 -67 14z"/>
<path d="M636 7178 c-9 -12 -16 -34 -16 -48 0 -47 -29 -126 -55 -150 -29 -28
-32 -45 -7 -59 15 -9 16 -12 2 -37 -20 -36 -46 -52 -64 -39 -61 45 -68 48 -85
38 -50 -31 0 -93 77 -93 82 0 140 57 157 155 4 22 12 49 18 60 6 11 14 38 18
60 4 22 11 57 15 79 5 28 3 40 -7 47 -22 14 -37 11 -53 -13z"/>
<path d="M11632 7128 c-18 -18 -16 -143 4 -162 17 -18 24 -19 42 -7 9 5 12 31
10 92 -3 75 -5 84 -23 87 -11 1 -26 -3 -33 -10z"/>
<path d="M10485 7063 c-14 -14 -16 -29 -11 -87 8 -84 8 -101 0 -183 -4 -44 -2
-69 9 -89 13 -25 13 -31 0 -51 -12 -18 -14 -39 -9 -91 4 -37 6 -80 5 -97 -1
-16 -1 -57 -1 -90 0 -33 0 -73 1 -90 1 -16 -1 -60 -5 -96 -7 -74 5 -109 37
-109 11 0 23 10 28 23 9 23 0 138 -13 168 -4 10 -3 20 3 24 14 8 14 140 0 166
-7 13 -7 24 -1 32 17 20 19 142 3 161 -12 14 -12 21 -1 44 15 30 14 150 -2
169 -6 7 -6 18 0 30 18 34 21 140 5 162 -17 25 -26 26 -48 4z"/>
<path d="M5378 7013 c-33 -35 -45 -78 -25 -86 8 -3 23 3 32 13 30 33 38 13 30
-75 -8 -96 -5 -100 70 -100 44 0 50 -3 53 -22 4 -27 -41 -76 -65 -71 -9 2 -24
17 -33 33 -25 45 -54 40 -58 -8 -5 -58 17 -77 87 -77 90 1 107 23 175 230 47
143 48 170 2 170 -32 0 -45 -19 -52 -76 -13 -110 -44 -153 -101 -142 -20 4
-20 13 -8 118 6 58 5 68 -15 93 -12 15 -31 27 -44 27 -12 0 -34 -12 -48 -27z"/>
<path d="M724 6942 c-7 -4 -22 -27 -35 -52 -19 -36 -24 -60 -24 -122 1 -72 3
-80 30 -108 23 -24 37 -30 73 -30 57 0 78 12 102 60 37 72 24 184 -28 243 -16
18 -95 24 -118 9z m71 -62 c27 -30 31 -116 8 -159 -24 -47 -39 -49 -63 -9 -25
41 -26 105 -3 153 19 40 32 43 58 15z"/>
<path d="M11631 6896 c-7 -9 -11 -37 -9 -73 3 -58 3 -58 36 -61 l33 -3 -3 73
c-3 65 -5 73 -24 76 -11 2 -26 -4 -33 -12z"/>
<path d="M5682 6747 c-28 -30 -28 -42 1 -67 22 -19 23 -25 15 -78 -4 -31 -15
-73 -24 -94 -9 -20 -13 -41 -10 -47 4 -6 31 -11 61 -11 71 0 85 20 48 68 -24
32 -25 39 -22 140 l4 107 -25 3 c-17 2 -33 -5 -48 -21z"/>
<path d="M11632 6698 c-7 -7 -12 -37 -12 -69 0 -60 14 -84 47 -77 15 3 18 14
18 78 0 68 -2 75 -20 78 -11 1 -26 -3 -33 -10z"/>
<path d="M9022 6502 c-7 -5 -15 -25 -18 -44 -5 -29 1 -47 35 -104 23 -37 41
-77 41 -89 0 -30 -47 -95 -70 -95 -25 0 -28 11 -22 116 4 87 3 92 -19 108 -35
24 -54 20 -94 -21 -55 -57 -44 -116 13 -68 16 14 34 25 40 25 6 0 8 -34 4 -90
-5 -101 4 -123 58 -135 39 -8 65 8 96 58 14 23 37 52 52 64 25 21 25 23 16 88
-6 36 -7 68 -2 71 17 11 8 84 -12 104 -21 21 -92 28 -118 12z m63 -58 c8 -4
22 -19 30 -34 13 -25 13 -30 -1 -40 -27 -23 -83 48 -57 73 8 8 8 8 28 1z"/>
<path d="M11624 6475 c-3 -14 -3 -54 0 -88 8 -74 8 -73 0 -163 -7 -83 5 -117
39 -112 22 3 22 6 24 196 l2 192 -29 0 c-23 0 -31 -5 -36 -25z"/>
<path d="M9240 6203 c-56 -5 -80 -26 -80 -70 0 -51 26 -55 63 -10 31 39 57 47
77 22 19 -23 8 -38 -63 -85 -49 -33 -70 -54 -81 -82 -13 -34 -13 -40 1 -54 9
-8 25 -13 35 -11 11 3 38 -1 60 -9 22 -8 50 -14 62 -14 31 1 65 34 72 69 8 40
-16 51 -52 22 -32 -25 -76 -27 -98 -5 -23 22 -20 33 12 40 67 17 130 63 138
101 4 23 0 36 -21 61 -28 33 -28 33 -125 25z"/>
<path d="M10195 6097 c-31 -21 -136 -47 -193 -47 -28 0 -81 -7 -119 -16 -50
-12 -93 -14 -163 -9 -132 8 -157 -13 -65 -55 24 -11 49 -20 56 -20 7 0 26 -4
43 -10 17 -5 43 -12 58 -15 25 -5 26 -8 26 -60 -1 -45 -7 -66 -34 -111 -54
-90 -40 -164 19 -101 12 13 51 59 87 101 83 99 261 260 317 287 34 17 43 26
41 43 -4 26 -44 33 -73 13z"/>
<path d="M11627 6053 c-14 -13 -7 -120 8 -133 12 -10 12 -15 -2 -36 -12 -19
-14 -39 -9 -96 3 -40 6 -80 6 -88 -1 -8 -3 -54 -6 -102 -6 -98 4 -131 39 -126
22 3 22 6 24 202 1 112 -2 207 -8 217 -6 11 -6 20 1 24 5 3 10 37 10 76 l0 69
-28 0 c-16 0 -32 -3 -35 -7z"/>
<path d="M10482 6018 c-18 -18 -15 -113 3 -132 32 -32 65 6 65 76 0 46 -13 68
-40 68 -9 0 -21 -5 -28 -12z"/>
<path d="M10482 5818 c-18 -18 -15 -113 4 -132 21 -21 30 -20 48 6 43 61 -4
174 -52 126z"/>
<path d="M10480 5611 c-12 -24 -13 -130 -1 -149 4 -8 19 -12 32 -10 22 3 25 9
30 68 4 36 3 75 -2 88 -10 27 -44 29 -59 3z"/>
<path d="M9445 5445 c-52 -63 -25 -92 38 -39 27 22 32 24 45 10 13 -13 12 -21
-8 -76 -12 -33 -26 -63 -30 -65 -4 -3 -22 0 -40 6 -37 13 -50 2 -50 -42 0 -43
21 -53 78 -39 41 11 52 10 80 -4 30 -15 34 -15 69 1 40 19 66 64 46 84 -7 7
-19 2 -41 -15 -56 -48 -81 -4 -46 80 22 53 44 67 67 46 18 -16 20 -15 43 11
19 22 22 32 14 47 -19 35 -45 42 -73 20 -32 -25 -43 -25 -74 0 -43 33 -77 26
-118 -25z"/>
<path d="M11632 5448 c-12 -12 -17 -94 -6 -122 4 -10 18 -16 36 -16 l29 0 -3
73 c-3 63 -5 72 -23 75 -11 1 -26 -3 -33 -10z"/>
<path d="M10485 5413 c-19 -19 -20 -132 -2 -157 7 -10 22 -17 33 -14 16 3 20
14 24 74 3 39 4 78 2 87 -4 21 -40 28 -57 10z"/>
<path d="M9757 5261 c-33 -35 -33 -35 -6 -62 19 -19 21 -30 17 -91 -4 -46 -11
-75 -23 -88 -30 -33 -13 -50 50 -50 60 0 75 13 56 48 -6 11 -11 69 -12 129 0
59 -3 116 -5 126 -8 26 -46 20 -77 -12z"/>
<path d="M11636 5247 c-14 -10 -17 -25 -14 -71 3 -62 20 -85 52 -73 23 9 24
142 0 151 -20 8 -17 8 -38 -7z"/>
<path d="M10486 5208 c-20 -11 -22 -121 -2 -157 12 -21 12 -28 1 -45 -18 -28
-17 -165 2 -187 11 -13 11 -21 -3 -47 -9 -19 -14 -50 -12 -79 3 -48 3 -48 38
-48 34 0 35 1 38 43 2 28 -4 57 -16 82 -16 33 -17 39 -3 47 12 8 15 27 12 94
-1 46 -7 90 -13 96 -7 9 -7 22 0 40 9 23 16 105 13 149 -1 16 -35 23 -55 12z"/>
<path d="M11632 5048 c-7 -7 -12 -40 -12 -84 0 -76 12 -99 47 -92 16 3 18 15
18 93 0 83 -2 90 -20 93 -11 1 -26 -3 -33 -10z"/>
<path d="M11630 4840 c-6 -11 -10 -53 -8 -93 l3 -72 33 -3 32 -3 0 89 c0 73
-3 91 -16 96 -25 10 -33 7 -44 -14z"/>
<path d="M11631 4606 c-7 -8 -11 -38 -9 -72 3 -60 20 -83 52 -71 23 9 24 142
0 151 -23 9 -30 8 -43 -8z"/>
<path d="M10487 4578 c-13 -7 -17 -23 -17 -66 0 -60 11 -82 42 -82 24 0 38 30
38 82 0 61 -26 87 -63 66z"/>
<path d="M11636 4407 c-14 -10 -17 -25 -14 -71 3 -62 20 -85 52 -73 23 9 24
142 0 151 -20 8 -17 8 -38 -7z"/>
<path d="M10487 4372 c-20 -22 -23 -112 -5 -130 18 -18 46 -14 58 8 18 34 8
110 -16 126 -18 13 -23 12 -37 -4z"/>
<path d="M11632 4208 c-7 -7 -12 -40 -12 -84 0 -78 13 -101 50 -89 19 6 21 13
18 93 -3 78 -5 87 -23 90 -11 1 -26 -3 -33 -10z"/>
<path d="M10480 4160 c-17 -32 -8 -141 13 -154 33 -21 51 4 53 75 0 35 -3 72
-8 82 -12 23 -45 22 -58 -3z"/>
<path d="M3959 4068 c-8 -8 -23 -19 -33 -25 -38 -21 -74 -170 -46 -188 6 -3
10 -15 10 -26 0 -37 98 -77 116 -48 4 8 26 9 66 5 50 -6 63 -4 88 14 18 13 30
30 30 44 0 32 -10 39 -31 20 -21 -19 -49 -12 -49 11 0 8 9 50 20 91 12 42 19
79 16 82 -6 5 -73 20 -132 28 -28 4 -45 2 -55 -8z m94 -67 c22 -38 21 -62 -4
-110 -26 -50 -42 -63 -71 -59 -21 3 -23 9 -26 74 -2 59 1 75 18 97 28 36 61
35 83 -2z"/>
<path d="M11626 3995 c-3 -9 -6 -47 -6 -85 0 -74 13 -97 50 -85 19 6 21 13 18
93 -3 86 -3 87 -29 90 -17 2 -29 -3 -33 -13z"/>
<path d="M10480 3961 c-14 -27 -13 -144 2 -159 16 -16 33 -15 51 3 18 17 15
138 -3 160 -17 21 -37 19 -50 -4z"/>
<path d="M4232 3817 c-26 -27 -27 -45 -8 -82 17 -33 11 -118 -10 -152 -28 -45
-13 -63 49 -63 55 0 63 11 48 69 -7 28 -11 89 -10 138 2 49 0 94 -5 101 -12
19 -41 14 -64 -11z"/>
<path d="M11632 3798 c-12 -12 -16 -95 -6 -122 4 -10 18 -16 35 -16 l29 0 0
69 c0 54 -4 70 -16 75 -22 8 -28 8 -42 -6z"/>
<path d="M10484 3733 c-13 -13 -15 -28 -9 -72 8 -66 8 -80 2 -188 -3 -58 0
-91 10 -109 12 -24 11 -29 -3 -45 -13 -15 -15 -31 -10 -86 8 -81 8 -102 1
-168 -7 -60 9 -91 42 -81 35 11 45 94 18 134 -12 16 -13 27 -6 40 5 10 11 49
12 87 2 56 -1 70 -16 81 -17 13 -17 15 -2 32 13 14 17 39 17 108 0 51 -5 95
-11 101 -8 8 -6 19 5 41 38 73 -2 172 -50 125z"/>
<path d="M11631 3596 c-8 -9 -11 -41 -9 -88 l3 -73 30 0 30 0 0 85 c0 79 -2
85 -21 88 -11 2 -26 -4 -33 -12z"/>
<path d="M11631 3391 c-6 -11 -11 -51 -11 -90 0 -68 1 -71 26 -77 14 -4 30 -2
35 3 5 5 9 48 7 94 -3 78 -5 84 -25 87 -14 2 -26 -4 -32 -17z"/>
<path d="M11625 3147 c-4 -13 -5 -46 -3 -73 3 -47 4 -49 36 -52 l33 -3 -3 73
c-3 71 -4 73 -30 76 -22 3 -29 -2 -33 -21z"/>
<path d="M5426 3021 c-32 -51 -23 -104 32 -183 17 -26 32 -55 32 -65 0 -29
-58 -102 -81 -103 -12 0 -20 64 -19 142 1 76 1 78 -25 88 -43 16 -65 12 -97
-20 -31 -32 -34 -56 -6 -74 13 -8 22 -5 42 17 14 15 30 27 36 27 14 0 13 -46
-2 -70 -9 -15 -10 -27 -1 -52 6 -18 14 -48 18 -66 8 -40 43 -60 80 -46 14 5
42 34 63 64 20 30 47 59 60 65 24 11 27 26 12 55 -7 13 -7 34 -1 62 13 54 5
89 -28 128 -19 23 -37 33 -67 37 -26 3 -44 1 -48 -6z m83 -75 c7 -8 15 -31 18
-52 5 -33 4 -37 -11 -31 -10 4 -21 7 -26 7 -12 0 -33 67 -25 80 9 14 31 12 44
-4z"/>
<path d="M11632 2958 c-18 -18 -15 -113 4 -132 18 -18 24 -19 42 -7 9 5 12 28
10 77 -3 60 -6 69 -23 72 -11 1 -26 -3 -33 -10z"/>
<path d="M10486 2924 c-18 -18 -22 -95 -6 -125 14 -25 46 -25 60 0 15 29 12
93 -6 119 -18 26 -27 27 -48 6z"/>
<path d="M11638 2759 c-15 -8 -18 -24 -18 -80 0 -38 5 -78 12 -89 9 -15 9 -24
-1 -43 -9 -16 -11 -46 -7 -93 7 -91 7 -88 0 -170 -7 -83 5 -117 39 -112 22 3
22 3 24 293 2 313 0 323 -49 294z"/>
<path d="M5641 2721 c-31 -29 -39 -55 -21 -66 13 -8 13 -130 -1 -178 -14 -52
0 -67 63 -67 57 0 68 15 41 56 -15 24 -18 46 -15 142 3 147 -9 167 -67 113z"/>
<path d="M10482 2718 c-17 -17 -15 -127 3 -161 13 -25 13 -30 0 -44 -18 -17
-21 -124 -5 -154 14 -25 36 -24 54 4 19 32 15 130 -7 155 -15 16 -15 21 -4 31
18 14 29 151 15 169 -13 15 -40 16 -56 0z"/>
<path d="M10480 2281 c-14 -27 -13 -114 2 -129 33 -33 68 2 68 68 0 69 -44
108 -70 61z"/>
<path d="M6410 2185 c-19 -23 -8 -37 77 -105 87 -70 106 -96 81 -114 -9 -6
-17 -19 -19 -28 -2 -9 -35 -40 -74 -70 -71 -55 -93 -92 -60 -104 9 -4 55 13
110 40 52 25 103 46 113 46 11 0 25 7 32 15 7 8 26 15 42 15 17 0 42 6 56 14
51 26 117 39 220 43 99 4 102 5 102 28 0 28 -6 31 -112 46 -45 6 -98 18 -117
25 -18 8 -45 14 -58 14 -14 0 -36 9 -50 20 -17 13 -33 18 -50 14 -17 -5 -30 0
-44 15 -13 13 -32 21 -54 21 -19 0 -37 5 -40 10 -5 9 -127 70 -138 70 -3 0
-10 -7 -17 -15z"/>
<path d="M11631 2146 c-9 -10 -10 -32 -6 -70 6 -47 4 -60 -15 -91 -16 -27 -18
-36 -8 -39 7 -2 83 -7 169 -10 175 -6 202 1 179 43 -11 21 -17 22 -78 17 -75
-6 -92 -6 -142 -3 l-35 2 -5 80 c-4 72 -7 80 -26 83 -11 2 -26 -4 -33 -12z"/>
<path d="M10478 2048 c-3 -41 -5 -43 -38 -46 -41 -4 -60 -18 -60 -42 0 -23 28
-30 95 -23 52 5 55 7 61 37 3 18 4 50 2 71 -3 35 -6 40 -30 43 -25 3 -27 0
-30 -40z"/>
<path d="M7147 1994 c-4 -4 -7 -17 -7 -30 0 -25 23 -34 85 -34 51 0 68 11 63
41 -3 22 -8 24 -68 27 -36 2 -69 0 -73 -4z"/>
<path d="M7344 1975 c-4 -14 -3 -29 0 -33 4 -3 35 -8 69 -10 69 -4 94 10 82
48 -6 18 -15 20 -75 20 -66 0 -70 -1 -76 -25z"/>
<path d="M7549 1979 c-16 -31 11 -49 75 -49 62 0 79 10 74 41 -3 22 -8 24 -70
27 -60 3 -68 1 -79 -19z"/>
<path d="M7751 1978 c-13 -32 0 -41 66 -46 72 -5 102 12 84 46 -10 19 -20 22
-77 22 -58 0 -66 -2 -73 -22z"/>
<path d="M7957 1994 c-4 -4 -7 -18 -7 -30 0 -26 37 -38 105 -32 37 3 40 5 40
33 0 30 0 30 -65 33 -36 2 -69 0 -73 -4z"/>
<path d="M8162 1988 c-16 -16 -15 -48 1 -49 6 -1 128 -2 270 -3 279 -2 300 1
277 43 -11 21 -17 22 -78 17 -82 -7 -82 -7 -165 0 -37 3 -81 1 -97 -5 -18 -6
-32 -6 -35 0 -9 14 -159 11 -173 -3z"/>
<path d="M8772 1988 c-17 -17 -15 -45 4 -52 29 -11 110 -6 130 8 15 12 17 18
8 33 -14 22 -122 31 -142 11z"/>
<path d="M8972 1988 c-24 -24 -14 -47 24 -54 35 -6 111 -1 121 10 3 3 3 17 -1
31 -6 23 -10 25 -69 25 -36 0 -68 -5 -75 -12z"/>
<path d="M9169 1979 c-16 -30 10 -49 65 -49 69 0 87 9 84 39 -3 25 -6 26 -70
29 -60 3 -68 1 -79 -19z"/>
<path d="M9377 1993 c-13 -12 -7 -51 9 -57 28 -11 110 -6 128 7 15 11 17 17 7
35 -10 19 -20 22 -75 22 -34 0 -66 -3 -69 -7z"/>
<path d="M9582 1988 c-17 -17 -15 -45 4 -52 20 -8 92 -8 122 0 24 7 29 33 10
52 -7 7 -37 12 -68 12 -31 0 -61 -5 -68 -12z"/>
<path d="M9774 1975 c-4 -14 -3 -29 0 -33 4 -4 40 -8 79 -10 86 -4 117 11 98
46 -11 20 -20 22 -91 22 -77 0 -80 -1 -86 -25z"/>
<path d="M9980 1979 c-18 -32 1 -43 73 -44 94 -2 109 2 105 34 -3 25 -5 26
-85 29 -75 3 -83 1 -93 -19z"/>
<path d="M10194 1986 c-14 -37 0 -51 56 -54 69 -4 98 13 81 46 -10 19 -20 22
-72 22 -43 0 -61 -4 -65 -14z"/>
<path d="M10589 1978 c-16 -31 11 -48 77 -48 57 0 76 14 67 48 -5 20 -12 22
-69 22 -55 0 -65 -3 -75 -22z"/>
<path d="M10794 1986 c-14 -36 0 -51 50 -54 76 -5 98 3 94 36 -3 26 -5 27 -71
30 -52 2 -69 0 -73 -12z"/>
<path d="M10997 1993 c-13 -12 -7 -51 9 -57 28 -11 110 -6 128 7 15 11 17 17
7 35 -10 19 -20 22 -75 22 -34 0 -66 -3 -69 -7z"/>
<path d="M11203 1993 c-22 -8 -15 -50 10 -57 35 -9 126 -7 146 4 11 5 31 6 47
1 16 -4 62 -6 102 -3 59 3 72 7 72 21 0 31 -22 41 -94 41 -52 0 -74 -4 -89
-17 -18 -17 -19 -17 -28 0 -8 14 -24 17 -82 16 -40 0 -78 -3 -84 -6z"/>
<path d="M12007 1994 c-4 -4 -7 -18 -7 -30 0 -26 37 -38 105 -32 37 3 40 5 40
33 0 30 0 30 -65 33 -36 2 -69 0 -73 -4z"/>
<path d="M12212 1988 c-19 -19 -14 -45 11 -52 33 -9 110 -7 126 3 9 6 11 18 7
35 -6 25 -10 26 -69 26 -36 0 -68 -5 -75 -12z"/>
<path d="M12409 1979 c-16 -30 10 -49 65 -49 69 0 87 9 84 39 -3 25 -6 26 -70
29 -60 3 -68 1 -79 -19z"/>
<path d="M12617 1993 c-4 -3 -7 -17 -7 -29 0 -31 32 -39 118 -30 37 4 74 7 82
7 8 0 88 -2 177 -5 179 -4 206 2 184 42 -10 19 -20 22 -74 22 -35 0 -68 -5
-74 -11 -8 -8 -17 -8 -31 0 -11 6 -52 11 -91 11 -56 0 -72 -3 -80 -17 -9 -17
-10 -17 -28 0 -15 13 -38 17 -95 17 -41 0 -78 -3 -81 -7z"/>
<path d="M10115 1751 c-86 -9 -101 -16 -110 -48 -9 -36 9 -51 34 -29 22 20 41
14 41 -13 0 -10 -9 -44 -20 -76 -11 -32 -20 -68 -20 -79 0 -12 -12 -43 -26
-69 -32 -61 -27 -77 25 -77 47 0 51 5 56 71 4 65 14 75 51 53 34 -19 61 -15
112 16 45 28 65 79 60 153 -7 97 -42 114 -203 98z m131 -77 c9 -36 -1 -97 -21
-128 -19 -28 -61 -36 -83 -14 -19 19 -14 86 11 128 18 33 27 40 54 40 27 0 34
-5 39 -26z"/>
<path d="M11760 1753 c-65 -4 -79 -8 -102 -30 -36 -34 -37 -63 -3 -63 14 0 28
7 31 15 9 22 34 18 34 -4 0 -61 -55 -227 -87 -262 -28 -31 -16 -49 33 -49 55
0 64 8 64 54 0 23 6 51 14 61 12 17 17 18 40 7 40 -18 66 -15 103 14 53 40 73
80 73 145 0 53 -3 59 -35 88 -24 21 -45 30 -63 29 -15 -1 -61 -4 -102 -5z
m131 -86 c15 -56 -34 -147 -80 -147 -46 0 -52 101 -9 155 28 36 78 32 89 -8z"/>
<path d="M5879 1691 c-22 -21 -39 -46 -39 -55 0 -22 33 -20 55 4 13 15 22 17
36 9 22 -12 24 -30 5 -84 -13 -37 -17 -40 -57 -43 -49 -4 -69 -16 -69 -42 0
-40 65 -66 90 -35 16 19 32 19 67 -2 45 -25 103 -3 118 45 9 30 -19 40 -45 17
-11 -10 -26 -15 -35 -12 -20 8 -19 43 5 94 18 40 20 42 54 36 30 -5 37 -2 46
19 13 27 -2 78 -22 78 -7 0 -28 -9 -47 -21 l-33 -20 -37 25 c-20 14 -41 26
-45 26 -5 0 -26 -17 -47 -39z"/>
<path d="M6199 1550 c-9 -5 -28 -37 -44 -71 -31 -69 -29 -111 5 -180 54 -105
174 -76 200 48 25 115 -25 213 -108 213 -20 0 -44 -5 -53 -10z m81 -65 c18
-22 23 -125 8 -155 -16 -30 -50 -37 -69 -14 -18 21 -18 130 -1 162 14 25 44
29 62 7z"/>
<path d="M10443 1460 c-19 -8 -23 -17 -23 -51 0 -28 -4 -39 -12 -36 -7 2 -13
15 -13 28 0 19 -6 25 -27 27 -24 3 -28 -1 -38 -37 -6 -23 -15 -41 -21 -41 -16
0 -22 29 -9 45 18 22 3 53 -32 60 -35 8 -52 -8 -42 -40 10 -28 8 -79 -5 -165
-9 -59 -8 -77 2 -87 18 -18 52 7 62 44 7 30 23 53 36 53 4 0 3 -13 -2 -29 -7
-21 -7 -36 1 -50 15 -29 39 -26 50 7 13 34 29 70 46 104 8 14 14 33 14 42 0 9
15 30 34 46 42 37 51 67 26 80 -21 11 -18 11 -47 0z"/>
<path d="M11859 1383 c-19 -8 -29 -19 -29 -33 0 -18 5 -20 38 -18 36 3 37 2
34 -27 -5 -41 -19 -55 -58 -55 -40 0 -61 -28 -44 -59 14 -27 42 -34 74 -20 20
9 32 9 51 1 37 -17 59 -15 79 7 23 26 18 66 -9 66 -28 0 -45 13 -45 35 0 30
30 53 61 46 37 -7 56 15 41 48 -10 22 -16 24 -87 23 -42 -1 -90 -7 -106 -14z"/>
<path d="M10558 1353 c-14 -9 -31 -27 -37 -40 -9 -20 -8 -23 8 -23 11 0 21 6
24 13 9 24 29 -10 25 -44 -3 -33 -4 -34 -44 -31 -46 2 -58 -14 -43 -55 7 -19
16 -21 81 -23 40 0 83 -1 96 -1 68 2 85 56 17 56 -37 0 -40 2 -43 31 -4 40 21
68 48 54 33 -18 41 -12 38 28 l-3 37 -55 0 c-30 0 -62 4 -70 8 -8 3 -27 -1
-42 -10z"/>
</g>
</svg>
