<?xml version="1.0" standalone="no"?>
<!DOCTYPE svg PUBLIC "-//W3C//DTD SVG 20010904//EN"
 "http://www.w3.org/TR/2001/REC-SVG-20010904/DTD/svg10.dtd">
<svg version="1.0" xmlns="http://www.w3.org/2000/svg"
 width="1500.000000pt" height="1080.000000pt" viewBox="0 0 1500.000000 1080.000000"
 preserveAspectRatio="xMidYMid meet">
<metadata>
Created by potrace 1.10, written by Peter Selinger 2001-2011
</metadata>
<g transform="translate(0.000000,1080.000000) scale(0.100000,-0.100000)"
fill="#000000" stroke="none">
<path d="M12378 10427 c-7 -8 -31 -44 -52 -80 -21 -36 -73 -103 -115 -149 -43
-45 -80 -91 -84 -101 -9 -25 17 -32 45 -13 34 24 67 20 78 -9 5 -14 14 -25 19
-25 5 0 13 -9 16 -20 14 -44 45 -16 45 41 0 32 14 102 36 170 8 26 14 53 14
60 1 8 9 32 20 54 23 48 24 59 6 74 -11 9 -17 8 -28 -2z"/>
<path d="M11652 10170 c-29 -12 -50 -56 -34 -72 9 -9 19 -8 41 5 16 9 36 17
45 17 25 0 19 -36 -10 -55 -42 -27 -104 -86 -104 -99 1 -28 16 -37 43 -25 22
10 31 9 51 -5 29 -18 59 -21 86 -6 15 8 20 6 25 -10 4 -14 15 -20 34 -20 33 0
54 -20 49 -47 -2 -15 4 -18 32 -18 33 0 35 2 43 45 6 30 5 50 -2 62 -6 10 -11
45 -11 77 0 33 -4 63 -10 66 -22 14 -64 -29 -86 -87 -7 -20 -25 -23 -41 -7 -8
8 -17 8 -31 0 -25 -13 -72 -14 -92 -1 -8 5 -12 10 -10 12 3 2 23 17 45 34 22
17 55 39 73 49 33 20 50 51 35 65 -4 4 -26 10 -48 13 -22 3 -53 8 -70 11 -16
3 -40 1 -53 -4z m242 -195 c5 -15 -18 -45 -35 -45 -16 0 -10 39 9 49 9 6 18
11 18 11 1 0 4 -7 8 -15z"/>
<path d="M12199 10018 c-7 -13 -15 -25 -18 -28 -10 -8 -111 -214 -111 -227 0
-6 -3 -13 -7 -15 -13 -5 -77 -141 -125 -264 -13 -34 -30 -71 -38 -83 -14 -20
-17 -20 -44 -6 -15 8 -60 23 -98 32 -60 14 -76 15 -121 3 -88 -22 -129 -64
-196 -203 -170 -356 -230 -484 -237 -511 -10 -40 -32 -51 -118 -58 -45 -3
-133 -14 -196 -22 -63 -9 -151 -21 -195 -26 -44 -6 -87 -13 -95 -16 -8 -3 -71
-12 -140 -19 -69 -8 -159 -19 -200 -26 -79 -12 -199 -7 -287 13 -28 6 -59 8
-69 4 -15 -6 -16 -8 0 -24 36 -40 23 -49 -86 -56 -57 -3 -117 -12 -135 -18
-42 -15 -53 -5 -60 53 -6 51 -43 133 -76 169 -64 72 -102 82 -232 59 -132 -23
-390 -62 -545 -84 -58 -8 -148 -21 -200 -29 -52 -8 -131 -20 -175 -26 -108
-16 -157 -40 -193 -92 -33 -49 -57 -151 -48 -201 8 -42 -12 -67 -52 -68 -35 0
-150 -14 -292 -34 -196 -28 -219 -29 -225 -13 -3 8 1 31 10 51 8 20 15 49 15
64 0 16 9 45 20 66 24 45 26 75 4 84 -40 15 -86 -102 -83 -208 1 -38 -1 -72
-5 -76 -4 -4 -69 -16 -144 -26 -75 -10 -186 -24 -247 -33 -144 -19 -171 -23
-290 -35 -55 -6 -152 -17 -215 -25 -63 -8 -153 -18 -200 -24 -47 -5 -130 -16
-184 -25 -54 -9 -105 -14 -112 -11 -9 3 -14 30 -16 81 l-3 76 -75 41 c-41 22
-96 53 -122 68 -139 85 -174 87 -583 34 -66 -8 -142 -18 -170 -21 -27 -3 -53
-11 -57 -17 -4 -6 -8 -99 -8 -207 l0 -196 -108 -7 c-201 -14 -273 -37 -228
-75 11 -9 40 -9 133 3 65 8 133 20 152 25 19 6 38 8 42 5 5 -3 9 -40 9 -83 0
-51 4 -82 13 -89 7 -6 89 -49 182 -96 191 -97 203 -99 365 -71 75 14 86 14 99
0 36 -36 -43 -72 -163 -74 -27 -1 -76 -5 -110 -11 -33 -5 -108 -14 -166 -20
-58 -6 -148 -17 -200 -25 -52 -8 -135 -19 -185 -25 -49 -6 -103 -15 -119 -20
-16 -6 -47 -10 -70 -10 -23 0 -131 -11 -240 -25 -110 -14 -201 -23 -204 -20
-3 2 -4 105 -3 228 1 123 -1 236 -5 251 -9 36 -38 46 -104 35 -30 -5 -113 -16
-185 -24 -180 -21 -350 -42 -480 -60 -168 -24 -330 -44 -435 -56 -52 -5 -111
-14 -130 -19 -58 -16 -92 -12 -119 14 -15 14 -69 48 -121 77 -52 28 -113 62
-135 74 -118 64 -186 102 -240 132 -210 117 -246 127 -351 98 -55 -15 -75 -27
-127 -77 -54 -53 -68 -61 -109 -65 -40 -5 -52 -2 -78 21 -18 14 -40 26 -50 26
-11 0 -24 9 -30 20 -6 11 -21 20 -34 20 -13 0 -26 7 -30 15 -3 8 -16 15 -29
15 -14 0 -30 7 -37 15 -7 8 -20 15 -29 15 -9 0 -24 9 -34 20 -9 11 -28 20 -41
20 -14 0 -28 4 -31 10 -3 5 -32 22 -63 37 -31 15 -63 33 -70 40 -7 7 -20 13
-28 13 -8 0 -22 9 -31 20 -10 11 -25 20 -34 20 -9 0 -28 9 -42 20 -14 11 -32
20 -40 20 -8 0 -20 7 -27 15 -7 8 -21 15 -31 15 -10 0 -21 5 -24 10 -4 6 -37
24 -73 41 -37 17 -74 34 -82 40 -8 5 -24 13 -35 18 -12 5 -27 16 -34 25 -7 9
-23 16 -35 16 -12 0 -27 5 -34 12 -16 16 -35 -3 -26 -25 7 -18 68 -57 89 -57
8 0 19 -9 25 -20 6 -11 20 -20 31 -20 11 0 27 -7 35 -15 9 -8 24 -15 33 -15
10 0 24 -7 31 -15 7 -8 18 -15 24 -15 7 0 27 -11 46 -25 19 -14 42 -25 52 -25
10 0 21 -7 24 -15 4 -8 17 -15 30 -15 14 0 27 -7 30 -15 4 -8 14 -15 24 -15
10 0 25 -7 34 -15 8 -8 21 -15 29 -15 8 0 24 -9 37 -20 13 -11 31 -20 40 -20
9 0 25 -9 35 -20 10 -11 28 -20 40 -20 13 0 29 -7 36 -16 7 -9 22 -20 34 -25
11 -5 27 -13 35 -17 65 -36 102 -52 110 -47 5 3 14 -4 20 -15 6 -12 21 -20 35
-20 14 0 25 -4 25 -10 0 -5 12 -13 28 -16 15 -4 32 -10 37 -15 6 -4 26 -9 45
-11 42 -4 50 -31 26 -83 -24 -50 -21 -179 5 -248 36 -94 66 -115 399 -281 30
-15 65 -33 78 -40 l23 -13 -1 -930 c0 -548 -5 -953 -10 -984 -15 -84 -26 -129
-45 -192 -13 -46 -14 -62 -5 -70 9 -9 16 -7 27 10 9 13 24 23 34 23 15 0 19
-7 19 -34 0 -18 -6 -38 -13 -43 -6 -6 -49 -13 -94 -16 -88 -5 -150 -28 -197
-72 l-26 -24 -2 -413 c-2 -397 -3 -483 -7 -520 0 -9 -13 -27 -28 -41 -16 -14
-57 -51 -93 -82 -36 -32 -110 -101 -165 -154 -55 -53 -127 -121 -160 -151 -33
-30 -147 -138 -254 -240 -261 -248 -251 -239 -396 -375 -177 -167 -331 -313
-444 -424 l-96 -94 0 -324 c0 -300 1 -326 18 -338 18 -13 76 -21 217 -30 41
-3 113 -9 160 -14 47 -6 157 -13 245 -16 87 -4 167 -11 176 -16 10 -5 85 -14
166 -19 81 -6 209 -17 283 -25 118 -13 327 -27 540 -37 l65 -3 2 310 c1 171 2
313 3 318 0 10 35 9 62 -3 22 -9 83 -14 518 -45 209 -15 473 -40 530 -49 38
-7 221 -22 415 -36 66 -4 174 -13 240 -19 66 -6 185 -15 265 -21 245 -15 542
-40 605 -50 33 -6 94 -10 135 -10 41 0 93 -5 115 -9 22 -5 100 -12 174 -16 74
-3 139 -9 144 -12 5 -3 104 -12 220 -19 275 -19 428 -32 502 -45 57 -9 166
-19 440 -39 66 -4 181 -13 255 -20 147 -12 302 -25 506 -40 72 -5 160 -14 195
-19 35 -5 125 -12 199 -16 74 -3 162 -10 195 -15 33 -6 132 -15 220 -21 397
-26 554 -39 600 -48 28 -5 83 -10 123 -10 40 -1 92 -5 115 -11 39 -9 217 -26
382 -36 160 -9 585 -45 648 -54 37 -6 95 -10 130 -10 l62 0 80 78 c44 42 107
101 140 131 109 99 359 333 395 370 19 20 60 59 90 86 79 70 253 232 640 595
512 479 520 487 520 498 0 14 -36 22 -110 22 -37 0 -71 5 -76 10 -6 6 -68 15
-140 20 -229 16 -378 30 -435 40 -30 6 -86 10 -125 10 -38 0 -114 5 -169 11
-143 14 -440 39 -580 49 -66 5 -144 13 -174 19 -29 6 -83 11 -120 11 -36 0
-104 4 -151 9 -47 6 -155 15 -240 21 -85 6 -207 15 -270 21 -63 6 -176 14
-250 19 -208 14 -380 30 -435 41 -27 6 -111 14 -185 20 -425 30 -550 40 -685
54 -82 8 -163 17 -180 20 -34 6 -231 23 -410 35 -66 5 -176 13 -245 19 -69 7
-186 16 -260 21 -239 16 -514 39 -550 46 -19 3 -89 10 -155 15 -66 4 -183 13
-260 18 -77 6 -151 13 -165 17 -14 3 -119 12 -235 20 -115 7 -237 18 -270 23
-33 5 -92 10 -131 10 -39 1 -84 5 -100 11 -27 9 -156 21 -424 40 -170 11 -511
39 -620 50 -218 21 -336 31 -530 44 -113 8 -212 17 -220 19 -19 7 -255 20
-382 22 -123 1 -130 6 -126 94 l3 66 115 7 c63 3 171 14 240 23 69 9 179 20
245 25 66 5 145 14 175 20 30 5 96 12 145 15 50 3 115 11 145 16 30 5 118 14
195 19 192 14 332 26 429 39 111 15 344 39 501 51 214 18 442 39 575 54 332
38 413 47 515 56 61 5 153 14 205 20 112 13 253 27 405 40 61 6 126 15 146 20
20 6 61 10 90 10 30 0 88 5 129 11 41 5 154 16 250 24 302 25 777 72 805 80
11 3 72 10 135 15 156 13 406 37 575 55 77 8 190 19 250 25 61 6 117 13 125
16 15 6 167 22 490 49 96 8 243 21 325 30 83 8 218 22 300 30 83 8 164 17 180
20 17 3 84 10 150 16 284 24 438 39 565 54 74 8 182 19 240 25 58 5 128 14
155 19 28 6 104 15 170 20 215 19 310 32 331 46 41 26 47 -12 9 -57 -14 -16
-25 -34 -25 -39 0 -19 40 -8 91 26 89 58 114 42 59 -38 -46 -68 -39 -93 38
-144 22 -15 31 -63 12 -63 -6 0 -26 -34 -45 -75 -50 -107 -46 -169 6 -87 39
59 49 80 49 101 0 10 9 29 20 42 l20 24 50 -55 c44 -48 51 -53 64 -40 12 13
12 24 1 75 -7 33 -18 74 -25 91 -6 17 -10 62 -8 99 3 63 1 71 -24 96 -16 15
-28 32 -28 38 0 15 37 51 53 51 26 0 74 -82 81 -139 9 -66 33 -170 46 -193 5
-9 13 -35 16 -57 4 -23 13 -46 20 -52 15 -12 19 -41 7 -52 -3 -4 -21 4 -39 18
-66 50 -77 25 -27 -63 41 -71 93 -186 93 -205 0 -23 42 -97 56 -97 16 0 18 16
15 155 -2 88 7 177 24 240 14 51 -36 55 -54 4 -5 -16 -15 -29 -20 -29 -13 0
-20 26 -62 235 -15 78 -39 178 -49 205 -4 14 -11 37 -14 53 -5 21 -12 27 -31
27 -14 0 -34 -5 -44 -12 -10 -6 -25 -8 -34 -5 -18 7 -11 35 29 122 12 28 39
91 58 140 20 50 40 96 45 104 13 21 28 5 35 -36 19 -132 66 -375 76 -392 21
-40 47 -22 41 29 -1 14 1 590 3 734 1 87 -17 84 -60 -11 -19 -43 -41 -91 -49
-108 -7 -16 -23 -50 -33 -75 -58 -132 -82 -180 -90 -180 -6 0 -16 33 -22 73
-7 39 -19 99 -27 132 -22 87 -22 86 32 114 115 60 175 129 194 222 11 51 10
64 -10 120 -12 35 -26 82 -30 104 -32 159 -61 292 -85 390 -30 124 -30 141 1
170 32 29 50 32 59 9 8 -21 22 -10 31 23 3 15 20 53 36 86 34 68 36 87 11 87
-21 0 -121 -108 -140 -151 -24 -57 -62 -30 -62 45 0 16 -4 45 -10 65 -5 20
-11 47 -14 62 -7 31 -69 95 -116 119 -52 25 -155 43 -179 30 -11 -5 -27 -7
-35 -4 -16 6 -18 11 -35 99 -14 69 -31 144 -41 180 -5 18 -3 78 4 150 7 66 11
126 8 133 -7 19 -18 15 -36 -13 -9 -14 -21 -23 -25 -20 -5 2 -12 39 -16 81 -4
42 -21 128 -37 193 -45 173 -46 158 9 263 27 51 55 109 63 128 7 19 39 89 70
155 131 275 208 454 216 506 4 25 1 48 -10 70 -9 18 -16 37 -16 44 0 16 -93
118 -124 134 -32 18 -33 38 -3 83 25 39 46 81 77 153 29 69 34 81 68 155 16
36 39 93 52 128 12 34 28 62 35 62 14 0 25 -44 25 -101 0 -27 6 -45 20 -56 12
-11 20 -30 20 -50 0 -17 4 -34 9 -37 5 -4 12 -25 16 -48 4 -23 11 -49 15 -58
5 -8 18 -58 30 -110 13 -52 26 -99 31 -104 5 -6 9 -19 9 -29 0 -10 6 -33 14
-50 14 -32 24 -69 51 -177 7 -30 23 -91 35 -135 12 -44 25 -93 27 -110 3 -16
9 -35 14 -41 5 -6 13 -31 19 -55 5 -24 17 -73 26 -109 9 -36 21 -86 27 -112 7
-31 17 -50 29 -54 45 -14 47 23 8 161 -12 44 -25 94 -27 110 -3 17 -9 35 -13
40 -4 6 -11 26 -14 45 -4 19 -11 44 -16 55 -4 11 -18 61 -30 110 -12 50 -26
98 -31 107 -5 10 -9 26 -9 35 0 10 -7 31 -15 47 -8 15 -15 36 -15 45 0 9 -6
28 -13 42 -8 14 -17 45 -21 70 -4 24 -11 58 -16 74 -5 17 -17 57 -26 90 -31
117 -65 219 -76 232 -8 11 -6 21 10 42 l21 29 -34 53 c-19 30 -35 59 -35 65 0
6 -7 17 -15 24 -8 7 -15 28 -15 46 0 39 -14 44 -31 12z m-387 -665 c56 -18 70
-45 39 -74 -12 -11 -21 -24 -21 -30 0 -5 -11 -26 -23 -47 -13 -20 -33 -64 -45
-97 -25 -73 -41 -75 -115 -13 -61 52 -107 121 -107 163 0 49 45 102 100 117
34 9 114 0 172 -19z m154 -90 c60 -61 86 -107 86 -155 2 -90 -50 -125 -171
-114 -41 4 -81 12 -88 18 -16 13 -17 44 -2 53 5 4 22 32 36 63 14 32 37 83 51
115 14 31 32 57 38 57 7 0 29 -17 50 -37z m-447 -107 c20 -40 85 -107 158
-162 l27 -22 -37 -73 c-20 -41 -45 -96 -56 -124 -18 -49 -20 -50 -67 -56 -27
-3 -62 -13 -78 -22 -18 -9 -41 -14 -57 -10 -43 8 -79 -4 -79 -28 0 -18 -4 -19
-37 -13 -65 12 -67 19 -22 96 17 29 54 100 81 158 27 58 60 128 73 155 13 28
33 71 44 98 11 26 22 47 25 47 2 0 14 -20 25 -44z m301 -212 c37 -11 70 -14
111 -9 46 5 59 4 59 -7 0 -7 -20 -53 -43 -103 -24 -49 -52 -108 -62 -130 -10
-22 -44 -95 -76 -163 -33 -68 -59 -128 -59 -133 0 -5 -9 -28 -20 -50 -19 -37
-40 -45 -40 -15 0 8 -7 19 -15 26 -9 7 -15 29 -15 51 0 21 -4 40 -9 43 -4 3
-11 33 -14 67 -3 34 -10 66 -16 72 -23 23 -12 85 27 149 21 35 49 92 61 128
22 64 37 90 50 90 4 0 31 -7 61 -16z m-2366 -258 c44 -18 70 -57 101 -152 47
-144 34 -334 -28 -392 -26 -24 -77 -37 -202 -52 -127 -14 -242 -29 -300 -40
-27 -5 -117 -18 -200 -30 -82 -12 -180 -28 -216 -36 -109 -23 -140 -18 -116
20 37 57 47 191 23 306 -18 85 -33 124 -74 188 -19 29 -31 56 -27 60 3 4 43
10 88 14 83 7 232 26 407 53 52 8 131 19 175 25 44 6 87 13 95 16 8 4 65 12
125 19 61 7 111 13 113 14 1 0 18 -5 36 -13z m2119 -72 c4 -21 12 -68 17 -104
6 -36 12 -71 15 -78 9 -23 47 -216 47 -239 1 -32 -30 -94 -63 -125 -79 -76
-288 -37 -399 75 -49 50 -90 132 -90 181 0 44 32 119 65 152 20 20 25 33 20
51 -14 59 24 85 71 48 24 -19 26 -25 15 -38 -7 -9 -10 -20 -7 -26 3 -5 -2 -23
-11 -40 -13 -21 -15 -33 -7 -41 7 -7 34 10 90 58 114 100 207 171 219 168 5
-1 14 -20 18 -42z m-423 -15 c0 -50 -86 -149 -130 -149 -6 0 -75 -31 -153 -69
-78 -38 -164 -78 -192 -90 -52 -23 -60 -27 -110 -54 -16 -9 -68 -34 -115 -56
-47 -22 -101 -49 -120 -60 -52 -29 -282 -137 -310 -146 -14 -4 -29 -11 -35
-15 -13 -11 -357 -182 -420 -210 -84 -37 -358 -172 -395 -195 -19 -12 -46 -26
-60 -30 -24 -7 -315 -144 -355 -167 -34 -19 -145 -74 -250 -123 -55 -26 -218
-105 -362 -176 -144 -71 -264 -129 -268 -129 -6 0 -42 -18 -280 -138 -77 -38
-167 -82 -200 -97 -33 -15 -110 -51 -171 -81 -61 -30 -113 -54 -117 -54 -4 0
-35 -17 -70 -39 -35 -21 -74 -42 -88 -46 -25 -8 -291 -133 -344 -161 -68 -37
-147 -76 -270 -134 -71 -34 -238 -115 -370 -181 -132 -65 -244 -119 -248 -119
-7 0 -359 -173 -402 -198 -11 -6 -42 -21 -70 -33 -27 -12 -158 -74 -290 -139
-132 -65 -298 -146 -370 -180 -71 -34 -220 -106 -330 -160 -110 -54 -245 -119
-300 -145 -55 -26 -131 -63 -170 -83 -145 -73 -282 -140 -340 -167 -33 -15
-168 -80 -300 -145 -132 -65 -280 -137 -330 -160 -49 -23 -97 -47 -105 -55 -8
-7 -28 -17 -44 -21 l-29 -7 6 109 c3 60 2 163 -1 228 l-7 119 -62 34 c-52 29
-75 35 -148 40 -75 5 -88 9 -94 27 -8 20 -3 56 7 56 3 0 14 -8 24 -17 15 -14
21 -15 27 -4 8 13 5 34 -18 118 -6 24 -15 60 -21 81 -5 22 -10 414 -10 987 -2
1046 -6 977 61 933 91 -62 161 -89 229 -90 56 0 75 5 138 37 51 26 82 50 107
82 19 25 35 50 35 54 0 5 6 9 14 9 8 0 16 14 19 33 3 17 11 57 17 87 14 64 7
148 -16 192 -11 21 -13 33 -5 37 6 4 50 8 98 10 48 1 91 5 95 7 5 3 63 12 131
20 151 18 228 28 387 48 69 8 170 21 225 27 55 6 164 19 243 30 79 10 145 19
147 19 3 0 5 -110 5 -244 0 -134 3 -251 6 -260 7 -19 64 -21 169 -5 39 6 122
17 185 25 63 8 160 21 215 29 55 8 138 19 185 25 47 5 112 14 145 20 33 5 110
14 170 20 61 6 162 18 225 26 63 8 142 17 175 21 79 7 88 16 83 75 l-5 47 53
16 c28 8 72 15 96 16 84 1 150 15 165 35 12 15 14 54 11 204 l-3 185 50 7 c28
4 93 12 145 18 52 6 118 15 145 20 28 5 95 14 150 20 239 28 337 40 440 55 61
9 157 22 215 30 58 8 139 19 180 25 86 12 100 4 100 -59 0 -45 38 -127 76
-164 25 -25 27 -31 17 -58 -11 -30 -11 -30 42 -54 30 -14 57 -30 60 -35 10
-16 65 -41 75 -35 21 13 -79 164 -123 185 -58 28 -135 220 -94 235 6 3 71 12
142 20 251 31 280 35 322 45 70 17 83 14 83 -19 0 -35 35 -132 66 -181 41 -66
111 -109 156 -96 13 4 61 11 108 16 109 11 301 37 320 44 8 3 51 10 95 16 44
6 123 18 175 25 52 8 140 21 195 29 243 35 242 35 289 81 50 48 68 105 71 220
1 39 3 73 4 76 0 4 31 9 69 13 58 6 154 27 230 51 31 10 28 -7 -8 -48 -60 -68
-28 -75 81 -19 119 63 192 83 379 107 63 8 158 22 210 30 87 14 179 27 382 55
43 6 88 15 100 20 39 15 58 12 58 -11z m-2795 -83 c41 -29 89 -149 106 -264
18 -121 -10 -255 -60 -282 -49 -26 -92 4 -133 93 -31 67 -53 135 -46 143 4 3
32 9 63 13 56 8 78 22 68 47 -7 20 -28 23 -72 12 -66 -17 -74 -9 -66 68 15
141 76 215 140 170z m2696 -183 c-4 -104 17 -153 96 -228 32 -30 70 -66 84
-80 15 -14 36 -25 48 -25 12 0 38 -7 59 -16 24 -10 67 -16 124 -16 79 0 90 2
130 28 24 16 51 46 62 67 26 54 40 36 55 -75 7 -51 19 -110 27 -131 8 -20 14
-46 14 -56 0 -11 7 -26 15 -35 33 -33 7 -35 -52 -4 -51 27 -64 18 -38 -25 45
-76 145 -308 165 -387 25 -98 28 -115 24 -122 -3 -5 -33 -21 -67 -37 -152 -69
-210 -189 -174 -359 9 -45 18 -88 20 -94 4 -23 -34 -19 -67 6 -18 14 -45 28
-59 31 -14 4 -35 18 -48 31 -13 14 -34 24 -51 24 -23 0 -28 -4 -28 -24 0 -28
52 -63 135 -90 27 -10 54 -21 60 -26 5 -4 23 -10 39 -12 32 -3 35 -9 61 -128
34 -158 34 -157 89 -376 20 -77 36 -149 36 -160 0 -28 56 -105 103 -140 58
-44 143 -67 198 -55 62 14 75 3 83 -71 4 -35 11 -76 16 -93 5 -16 19 -69 31
-117 l22 -87 -33 -78 c-18 -43 -42 -97 -54 -121 l-21 -43 -65 7 c-36 4 -82 13
-103 20 -55 19 -93 -1 -47 -26 11 -6 20 -18 20 -28 0 -15 -13 -18 -107 -20
-60 -1 -144 -7 -188 -12 -44 -5 -125 -14 -180 -19 -55 -6 -129 -14 -165 -20
-36 -5 -126 -15 -200 -21 -418 -35 -487 -41 -875 -80 -60 -6 -139 -15 -175
-21 -36 -5 -119 -14 -185 -20 -179 -14 -414 -37 -560 -54 -71 -8 -179 -19
-240 -25 -60 -5 -126 -14 -145 -19 -19 -6 -102 -15 -185 -21 -82 -6 -217 -17
-300 -25 -82 -7 -204 -19 -270 -25 -66 -6 -194 -20 -285 -31 -91 -11 -248 -26
-350 -35 -257 -20 -445 -40 -875 -89 -71 -9 -182 -20 -245 -25 -63 -5 -149
-14 -190 -19 -41 -6 -113 -13 -160 -16 -47 -3 -119 -10 -160 -15 -140 -18
-455 -49 -750 -75 -314 -26 -405 -35 -480 -46 -41 -5 -118 -14 -170 -20 -52
-5 -153 -16 -225 -24 -71 -7 -179 -18 -240 -24 -60 -6 -125 -13 -143 -16 -31
-6 -227 -26 -437 -45 -55 -5 -136 -16 -180 -24 -111 -21 -167 -24 -172 -9 -5
14 85 58 207 103 79 29 106 53 80 70 -8 6 -33 7 -55 3 -22 -4 -109 -6 -192 -6
-123 1 -153 -2 -153 -13 0 -7 18 -23 41 -34 22 -12 39 -26 36 -33 -2 -7 -33
-15 -73 -18 -92 -8 -143 -18 -181 -35 -17 -8 -41 -14 -54 -14 -12 0 -30 -6
-38 -14 -25 -21 -100 -30 -107 -12 -11 28 15 52 93 85 89 37 197 89 263 125
52 29 275 136 283 136 9 0 165 76 179 87 7 6 34 18 61 28 26 10 47 21 47 26 0
4 10 10 23 14 12 3 58 24 102 45 44 21 123 59 175 83 173 81 265 126 300 146
19 11 94 47 165 81 72 33 239 115 371 180 133 66 245 120 248 120 8 0 369 179
434 215 24 13 53 27 65 31 12 3 78 33 147 66 126 60 151 72 270 133 36 18 115
57 175 85 61 29 214 103 340 165 127 62 286 140 355 173 217 104 244 117 300
149 30 16 66 34 80 38 27 9 361 172 429 210 24 14 48 25 52 25 5 0 137 63 294
140 157 77 288 140 291 140 2 0 22 11 44 25 22 14 44 25 50 25 14 0 392 185
442 217 21 13 43 23 50 23 15 0 236 106 433 207 143 74 398 193 414 193 5 0
11 3 13 8 3 7 272 143 363 182 48 21 276 134 400 199 33 17 64 31 69 31 17 0
555 272 567 286 25 30 34 9 30 -73z m-5178 -97 c62 -29 121 -57 132 -60 20 -7
20 -8 1 -22 -11 -8 -27 -14 -35 -15 -17 0 -210 -21 -365 -39 -86 -10 -90 -10
-135 15 -25 14 -83 44 -128 66 -46 23 -81 45 -78 49 2 4 62 13 132 20 229 22
296 29 301 35 16 16 75 -1 175 -49z m-611 -71 c35 -20 91 -49 124 -66 34 -16
67 -35 73 -43 12 -14 21 -526 10 -526 -10 0 -73 32 -89 45 -8 7 -44 27 -80 46
-118 60 -120 61 -120 134 l0 63 91 13 c61 9 93 18 97 28 6 17 -27 44 -45 36
-7 -2 -42 -7 -78 -11 l-65 -7 0 162 c0 91 4 161 9 161 5 0 38 -16 73 -35z
m815 -67 c4 -7 7 -121 5 -253 -1 -132 -2 -245 -2 -251 0 -6 -19 -14 -42 -18
-98 -16 -259 -37 -353 -46 -55 -6 -106 -12 -112 -15 -36 -13 -38 0 -37 256 1
138 6 254 10 259 5 4 72 15 149 24 230 27 346 43 352 50 10 10 21 7 30 -6z
m-3868 -190 c36 -18 129 -66 206 -108 144 -77 177 -94 208 -104 27 -9 14 -21
-58 -57 -35 -17 -81 -50 -103 -73 -82 -88 -131 -252 -97 -332 15 -38 20 -74 9
-74 -4 0 -30 14 -58 32 -28 17 -116 65 -196 106 -221 113 -255 136 -279 185
-63 131 -23 309 91 398 85 68 174 77 277 27z m533 -295 c59 -22 104 -57 136
-105 23 -36 26 -50 26 -129 0 -75 -3 -93 -22 -118 -12 -17 -22 -37 -22 -46 0
-22 -55 -77 -116 -114 -43 -26 -61 -31 -115 -31 -53 0 -72 5 -109 29 -25 15
-58 47 -75 70 -26 39 -29 50 -28 124 0 67 5 92 26 137 35 74 95 134 170 170
73 35 74 35 129 13z m9354 -449 c92 -38 98 -49 144 -249 11 -49 27 -115 34
-145 8 -30 19 -82 26 -115 7 -33 26 -112 43 -175 48 -185 47 -192 -11 -151
-44 31 -118 43 -203 33 -105 -13 -177 -50 -241 -123 -29 -32 -55 -59 -59 -59
-3 0 -11 35 -17 78 -13 91 -27 163 -42 212 -19 67 -62 245 -71 297 -5 29 -14
64 -19 78 -6 15 -10 49 -10 76 0 104 76 191 215 246 45 17 166 16 211 -3z
m155 -868 c54 -13 124 -50 145 -77 6 -8 16 -33 24 -56 24 -77 -16 -159 -113
-229 -26 -18 -58 -34 -72 -34 -26 0 -28 5 -40 85 -3 22 -8 57 -11 77 -8 47
-24 62 -49 44 -18 -13 -18 -18 -6 -82 8 -38 17 -73 21 -79 8 -10 13 -40 11
-62 -2 -20 -69 -16 -143 7 -47 15 -75 32 -104 61 -37 38 -39 43 -42 114 l-4
75 53 54 c68 68 119 90 269 114 3 1 30 -5 61 -12z m235 -638 c-6 -103 -18
-137 -36 -108 -5 8 -10 27 -10 42 0 15 -5 39 -10 54 -8 19 -8 30 0 38 5 5 10
18 10 27 0 10 7 25 16 33 32 33 37 19 30 -86z m-286 -615 c0 -43 -3 -88 -6
-100 -9 -34 -34 -37 -63 -9 -24 24 -25 28 -12 68 7 24 15 57 18 73 6 33 18 45
46 45 15 0 17 -10 17 -77z m33 -152 c6 -24 -7 -46 -22 -37 -16 10 -14 56 3 56
7 0 16 -9 19 -19z m-9969 -17 c11 -4 16 -19 16 -49 0 -63 -7 -75 -44 -75 -36
1 -139 23 -179 39 -24 9 -26 14 -17 30 5 11 18 22 27 24 71 19 129 31 170 36
6 0 18 -2 27 -5z m196 -15 c53 -13 96 -29 106 -40 16 -18 15 -20 -28 -39 -24
-10 -80 -22 -124 -26 -67 -5 -82 -4 -93 10 -11 13 -11 20 -3 28 7 7 12 26 12
44 0 29 9 41 33 43 5 1 48 -8 97 -20z m-368 -139 c36 -16 81 -24 171 -29 4 -1
7 -111 7 -245 0 -135 4 -256 9 -269 5 -14 26 -31 48 -41 40 -18 53 -25 120
-69 24 -15 47 -27 52 -27 19 0 91 -42 92 -54 0 -6 0 -105 -1 -221 l-1 -210
-27 -22 c-15 -13 -43 -25 -62 -29 -19 -3 -43 -9 -52 -15 -23 -12 -250 -12
-280 0 -13 6 -39 12 -58 15 -19 4 -48 17 -64 29 l-29 24 1 379 c1 208 4 393 7
409 3 17 1 109 -3 205 -5 96 -7 178 -5 183 7 12 28 8 75 -13z m498 13 c1 -13
1 -357 1 -370 -1 -6 -36 -29 -78 -49 -43 -21 -95 -49 -116 -62 -71 -43 -71
-45 -70 208 l1 225 80 7 c43 4 99 17 123 28 48 21 59 24 59 13z m477 -399 c3
-10 -4 -26 -20 -42 -22 -21 -40 -28 -99 -33 -103 -11 -208 -11 -208 0 0 12 25
21 58 21 15 0 45 7 67 15 22 8 54 14 71 15 18 0 42 9 55 20 29 24 67 26 76 4z
m-469 -48 c5 -25 -17 -46 -49 -46 -15 0 -39 -4 -53 -10 -16 -6 -27 -6 -31 0
-4 6 -2 10 4 10 5 0 16 6 23 13 21 21 82 55 93 53 6 -2 11 -10 13 -20z m126
-57 c-7 -11 -51 -12 -58 0 -9 14 2 18 34 13 16 -2 27 -8 24 -13z m-130 -55 c9
-25 7 -122 -3 -129 -5 -3 -30 8 -54 25 -25 16 -47 30 -50 30 -2 0 -26 9 -52
21 -60 27 -50 39 47 55 100 16 105 16 112 -2z m456 -214 c118 -11 258 -25 310
-31 110 -12 265 -26 435 -38 66 -5 147 -14 180 -19 33 -6 134 -14 225 -17 91
-4 181 -11 200 -16 19 -4 96 -11 170 -14 74 -4 200 -13 280 -21 80 -8 175 -14
212 -14 37 0 77 -4 90 -10 21 -9 95 -16 428 -40 63 -4 149 -13 190 -19 41 -5
140 -13 220 -16 80 -3 165 -11 190 -16 43 -9 139 -18 420 -39 69 -5 146 -14
170 -19 25 -6 79 -11 121 -11 42 0 111 -4 155 -9 43 -5 151 -15 239 -21 199
-13 353 -26 565 -46 168 -17 280 -26 520 -43 74 -5 180 -14 235 -20 55 -7 163
-16 240 -21 77 -5 167 -13 200 -19 33 -5 92 -10 131 -10 39 -1 84 -5 100 -10
27 -9 165 -22 439 -41 113 -8 431 -34 540 -44 28 -3 109 -10 180 -15 72 -6
182 -15 245 -21 63 -6 177 -15 253 -20 75 -5 140 -11 145 -14 4 -2 59 -7 122
-10 63 -4 162 -11 220 -16 58 -6 168 -15 245 -20 160 -11 283 -25 291 -32 2
-3 -6 -12 -19 -21 -20 -13 -56 -44 -153 -132 -48 -44 -270 -252 -309 -290 -23
-22 -83 -78 -135 -125 -51 -47 -116 -108 -144 -135 -28 -28 -121 -115 -206
-194 -85 -79 -169 -158 -186 -176 -18 -18 -42 -39 -54 -48 -12 -9 -72 -64
-134 -124 -61 -59 -155 -148 -209 -198 -54 -49 -131 -120 -170 -158 l-72 -67
-85 4 c-47 3 -137 10 -200 16 -63 5 -177 14 -252 19 -75 5 -140 11 -145 14 -4
3 -66 8 -138 11 -71 4 -202 13 -290 21 -88 8 -191 15 -228 15 -38 0 -77 4 -87
10 -10 5 -69 12 -131 15 -63 4 -135 11 -160 16 -25 6 -106 14 -180 20 -653 46
-798 58 -847 69 -23 6 -77 10 -120 10 -42 0 -117 6 -167 14 -49 8 -160 17
-245 21 -85 3 -186 11 -224 16 -38 5 -119 12 -180 15 -61 3 -180 11 -265 19
-85 8 -189 15 -232 15 -43 0 -80 4 -83 9 -3 5 -59 12 -123 15 -65 4 -140 11
-168 16 -27 5 -102 12 -165 15 -63 3 -137 10 -165 15 -27 5 -122 12 -210 15
-88 3 -180 10 -205 16 -44 9 -163 20 -435 39 -71 5 -139 12 -150 16 -11 3 -76
9 -145 14 -255 16 -723 53 -965 76 -171 16 -265 24 -540 43 -82 6 -184 15
-225 20 -41 6 -145 13 -230 16 -85 3 -175 10 -200 16 -44 9 -168 21 -420 39
-69 5 -145 14 -170 19 -25 5 -102 12 -171 16 -70 3 -230 15 -355 27 -202 19
-309 26 -421 28 -21 0 -33 5 -33 14 0 7 33 42 72 77 40 35 78 68 84 74 21 19
297 279 414 390 63 61 196 187 295 280 99 94 225 213 280 266 55 53 133 127
174 165 40 38 103 99 139 137 36 37 72 67 80 67 11 0 13 -21 7 -130 l-8 -130
37 -35 c21 -19 49 -38 64 -41 15 -4 33 -11 39 -16 7 -6 51 -13 98 -16 62 -3
85 -8 85 -18 1 -8 1 -98 1 -201 l1 -188 -47 2 c-65 2 -156 43 -211 95 -27 25
-35 28 -53 19 -29 -16 -27 -28 17 -71 44 -44 132 -79 221 -88 62 -7 64 -8 75
-42 16 -49 41 -50 63 -3 17 36 21 38 76 44 32 4 66 14 76 23 14 13 28 16 54
11 28 -6 39 -3 51 12 101 123 108 134 87 147 -5 3 -47 -12 -95 -35 -64 -30
-86 -45 -86 -59 0 -12 -12 -25 -32 -34 -35 -16 -120 -37 -126 -31 -6 6 -4 393
2 403 3 5 41 12 85 15 44 4 88 10 98 15 10 5 36 17 58 28 63 30 66 43 64 268
-2 174 0 200 14 208 12 6 21 3 34 -12 10 -11 21 -20 24 -20 4 0 30 -15 57 -33
28 -18 87 -46 131 -61 92 -32 104 -51 36 -62 -68 -10 -55 -54 17 -54 47 0 153
-29 239 -65 85 -35 92 -37 109 -25 18 11 6 37 -25 54 -49 27 -146 105 -211
169 -77 74 -99 80 -88 21 4 -23 2 -34 -5 -34 -10 0 -65 34 -81 50 -7 7 -89 46
-137 65 -24 10 -40 21 -37 26 8 14 90 11 324 -11z m-2670 -1685 c-7 -8 -16
-15 -21 -15 -5 0 -9 7 -9 15 0 9 9 15 21 15 18 0 19 -2 9 -15z m319 -22 c62
-8 130 -12 151 -9 43 7 70 0 69 -18 0 -6 -29 -35 -65 -65 -60 -50 -277 -254
-401 -378 -93 -92 -90 -98 -88 161 2 237 2 237 51 292 42 47 59 48 283 17z
m584 -44 c103 -7 187 -16 187 -20 0 -3 -30 -34 -67 -68 -75 -68 -139 -130
-345 -330 l-138 -134 -40 7 c-55 9 -335 28 -387 27 -37 -1 -43 2 -43 19 0 11
4 20 9 20 5 0 35 24 66 54 31 30 75 70 98 90 23 19 74 65 113 103 39 37 114
110 168 161 l98 94 46 -5 c26 -3 131 -11 235 -18z m452 -40 c207 -16 273 -24
279 -30 4 -3 -17 -24 -46 -46 -29 -22 -74 -60 -99 -84 -25 -24 -82 -77 -125
-118 -43 -41 -127 -121 -187 -178 l-107 -104 -118 6 c-64 4 -128 10 -142 15
-14 5 -62 11 -108 13 -45 2 -86 7 -89 11 -4 4 4 14 18 23 30 22 135 121 352
333 92 91 176 168 185 172 9 3 26 4 37 2 11 -2 79 -9 150 -15z m411 -40 c3 -6
6 -101 5 -212 l-2 -201 -47 -51 c-26 -28 -64 -63 -85 -79 -35 -26 -42 -28 -75
-18 -21 6 -121 14 -224 18 -219 8 -221 9 -130 88 101 87 315 288 402 377 71
74 90 88 117 88 17 1 35 -4 39 -10z m10 -512 c9 -26 -14 -67 -38 -67 -46 0
-52 15 -18 49 34 34 48 38 56 18z"/>
<path d="M2950 7185 c0 -9 11 -20 25 -25 14 -5 25 -13 25 -17 0 -8 97 -58 112
-58 4 0 13 -6 20 -12 6 -7 18 -13 26 -13 7 0 28 -11 46 -25 18 -14 38 -25 43
-25 6 0 16 -7 23 -15 7 -8 21 -15 31 -15 9 0 24 -7 32 -15 8 -7 26 -17 40 -20
14 -4 28 -13 31 -21 3 -8 13 -14 21 -14 9 0 33 -11 53 -25 20 -14 44 -25 53
-25 9 0 22 -6 28 -13 6 -8 30 -20 53 -27 24 -7 53 -22 64 -32 15 -14 29 -17
48 -12 23 5 26 3 26 -20 0 -35 -51 -87 -123 -125 -75 -40 -137 -42 -202 -5
-53 29 -75 26 -75 -10 0 -52 155 -94 243 -65 68 21 177 98 177 123 0 7 9 21
19 30 15 14 24 15 39 7 24 -13 52 -5 52 15 0 7 -11 16 -25 20 -30 7 -33 38 -9
92 44 103 44 92 13 157 -16 33 -29 65 -29 72 0 17 -40 42 -57 36 -11 -4 -13
-14 -8 -37 4 -17 9 -62 11 -101 2 -38 3 -73 4 -77 0 -5 8 -8 19 -8 17 0 17 -2
3 -45 -11 -35 -19 -45 -37 -45 -12 0 -30 9 -40 20 -10 11 -24 20 -32 20 -7 0
-16 7 -19 15 -3 8 -21 17 -39 21 -19 3 -36 12 -39 20 -3 8 -16 14 -30 14 -13
0 -26 7 -30 15 -3 8 -16 15 -30 15 -14 0 -27 4 -30 9 -9 14 -114 71 -130 71
-8 0 -16 7 -20 15 -3 8 -16 15 -28 15 -13 0 -31 9 -41 20 -9 11 -25 20 -36 20
-10 0 -21 7 -25 15 -3 8 -14 15 -25 15 -11 0 -22 4 -25 8 -10 16 -116 64 -130
59 -8 -3 -17 1 -20 9 -7 19 -46 18 -46 -1z"/>
<path d="M6512 7034 c-23 -16 -29 -48 -11 -59 5 -4 18 0 28 9 10 9 21 16 26
16 26 0 -43 -232 -77 -260 -30 -24 -14 -40 40 -40 61 0 81 12 65 39 -17 28 1
91 27 91 10 0 22 -4 25 -10 8 -13 61 -13 87 1 11 6 28 29 39 52 53 117 -24
218 -122 160 -26 -16 -29 -16 -47 0 -23 21 -51 22 -80 1z m198 -50 c13 -33 3
-88 -19 -116 -14 -16 -24 -19 -44 -14 -24 6 -27 11 -27 49 0 81 68 141 90 81z"/>
<path d="M6925 6807 c-20 -13 -84 -15 -104 -2 -6 3 -20 3 -31 0 -16 -5 -20
-15 -20 -50 0 -24 -5 -67 -11 -96 -9 -41 -8 -54 2 -65 19 -18 29 -8 59 51 l25
50 5 -50 c9 -89 40 -67 75 52 3 12 19 36 36 54 16 18 29 39 27 48 -4 21 -38
25 -63 8z"/>
<path d="M11210 7945 c0 -14 -7 -28 -15 -31 -8 -4 -15 -18 -15 -34 0 -15 -9
-35 -20 -45 -11 -10 -20 -28 -20 -40 0 -13 -7 -28 -15 -35 -8 -7 -15 -19 -15
-27 0 -8 -7 -21 -15 -29 -8 -9 -15 -25 -15 -37 0 -12 -7 -31 -15 -41 -8 -11
-15 -30 -15 -42 0 -12 -7 -24 -15 -28 -8 -3 -15 -14 -15 -24 0 -11 -7 -25 -15
-32 -8 -7 -15 -22 -15 -34 0 -13 -11 -33 -25 -46 -14 -13 -25 -33 -25 -46 0
-12 -7 -27 -15 -34 -9 -7 -14 -19 -11 -26 3 -7 -4 -24 -15 -37 -10 -14 -19
-31 -19 -39 0 -8 -7 -23 -15 -34 -8 -10 -15 -29 -15 -40 0 -12 -7 -24 -15 -28
-8 -3 -15 -16 -15 -29 0 -14 -7 -30 -15 -37 -8 -7 -15 -22 -15 -35 0 -12 -9
-30 -20 -40 -11 -10 -20 -29 -20 -42 0 -12 -4 -23 -10 -23 -5 0 -13 -12 -16
-27 -4 -16 -13 -37 -20 -48 -8 -11 -14 -26 -14 -33 0 -7 -7 -20 -15 -28 -8 -9
-15 -29 -15 -45 0 -16 -4 -29 -10 -29 -16 0 -80 -148 -80 -185 0 -13 -7 -25
-15 -29 -8 -3 -15 -17 -15 -31 0 -14 -5 -25 -10 -25 -6 0 -18 -17 -26 -37 -9
-21 -20 -46 -25 -55 -5 -10 -9 -24 -9 -32 0 -28 -21 -28 -58 0 -85 65 -122
129 -122 210 0 60 -18 85 -44 59 -27 -27 -29 -62 -10 -126 21 -69 78 -140 150
-190 45 -31 55 -53 29 -63 -8 -3 -15 -14 -15 -23 0 -10 -7 -29 -16 -41 -8 -12
-12 -27 -9 -32 10 -16 45 -11 51 8 3 9 10 25 15 34 5 10 9 27 9 38 0 31 23 34
75 10 32 -15 62 -20 93 -18 41 3 46 1 52 -21 8 -35 22 -35 62 -4 20 16 46 35
58 43 50 34 70 52 70 65 0 19 -35 24 -66 9 -14 -8 -52 -17 -83 -20 -31 -4 -63
-13 -72 -21 -16 -14 -60 -10 -84 7 -5 4 -22 10 -37 14 -31 7 -39 40 -13 50 8
3 15 15 15 26 0 11 9 29 20 40 11 11 20 29 20 40 0 11 4 20 9 20 5 0 13 10 16
23 7 23 32 82 47 107 4 8 11 22 14 30 3 8 14 32 24 52 11 20 20 45 20 55 0 10
9 24 20 31 11 7 20 23 20 36 0 14 4 27 9 30 4 3 16 27 26 53 29 78 66 153 75
153 5 0 12 16 16 35 3 19 10 35 14 35 5 0 12 14 15 32 4 17 14 38 22 46 8 8
12 20 9 27 -2 7 4 21 15 31 10 9 19 30 19 46 0 15 4 28 8 28 11 0 52 91 52
113 0 9 4 17 9 17 5 0 13 10 16 23 4 12 22 54 40 92 18 39 45 95 59 127 13 31
30 59 35 63 6 3 11 17 11 30 0 12 7 25 15 29 9 3 15 18 15 34 0 16 6 35 14 41
13 11 19 30 28 86 2 14 -3 21 -19 23 -19 3 -23 -1 -23 -23z"/>
<path d="M10531 5571 c-17 -16 -31 -36 -31 -45 0 -21 28 -21 52 0 16 16 18 15
24 -1 4 -10 -1 -51 -11 -92 -16 -62 -16 -76 -5 -83 30 -19 54 5 70 73 17 70
50 117 81 117 27 0 32 -17 19 -70 -15 -63 -6 -104 26 -119 37 -16 52 -14 79
14 41 40 26 77 -15 40 -23 -20 -56 -9 -38 12 20 25 16 127 -6 152 -24 26 -66
27 -97 2 -23 -19 -24 -19 -71 5 l-46 24 -31 -29z"/>
<path d="M11310 5453 c-90 -2 -169 -8 -174 -13 -11 -11 20 -50 41 -50 24 0
162 -61 242 -106 41 -24 78 -41 83 -38 15 9 8 35 -18 70 -24 31 -25 34 -9 40
10 4 27 2 37 -5 28 -17 194 -54 358 -80 62 -9 149 -1 153 14 1 6 -18 12 -43
15 -25 3 -50 9 -56 12 -13 8 -140 33 -297 57 -115 18 -143 31 -108 50 33 18
27 41 -11 39 -18 -1 -107 -4 -198 -5z"/>
<path d="M10965 5421 c-50 -21 -80 -90 -59 -139 14 -33 42 -46 90 -40 26 3 29
7 29 38 0 20 8 48 18 63 20 30 12 59 -23 77 -22 12 -28 12 -55 1z m35 -48 c0
-5 -4 -15 -10 -23 -11 -18 -25 -7 -17 15 6 15 27 21 27 8z"/>
<path d="M7432 5242 c-34 -29 -43 -62 -15 -62 9 0 24 7 34 16 19 17 39 12 39
-10 0 -27 -69 -219 -85 -236 -27 -30 -12 -50 38 -50 53 0 67 13 60 56 -11 68
15 104 51 69 20 -20 69 -19 94 3 29 24 62 91 62 125 0 40 -26 84 -60 102 -41
21 -52 19 -87 -15 l-30 -29 -22 29 c-27 37 -37 37 -79 2z m204 -57 c9 -36 -3
-88 -27 -113 -27 -30 -45 -28 -63 8 -13 27 -13 35 1 68 21 51 32 62 59 62 17
0 25 -7 30 -25z"/>
<path d="M7685 4955 c-72 -72 -24 -162 76 -140 37 8 37 42 0 37 -12 -1 -30 2
-39 7 -14 8 -12 11 13 21 95 34 111 73 41 98 -47 17 -51 16 -91 -23z"/>
<path d="M3529 4733 c-23 -6 -43 -53 -29 -67 8 -8 16 -4 30 14 15 20 21 22 31
13 10 -10 8 -24 -9 -66 -12 -29 -22 -62 -22 -74 0 -26 55 -63 94 -63 31 0 34
-20 8 -43 -28 -25 -61 -21 -72 8 -10 27 -29 32 -48 13 -40 -40 12 -83 95 -76
63 5 73 14 92 80 15 49 30 91 60 165 25 62 27 91 4 100 -21 8 -53 -30 -53 -64
0 -29 -42 -124 -63 -141 -38 -32 -69 25 -43 76 23 44 21 109 -3 122 -20 10
-43 11 -72 3z"/>
<path d="M3812 4613 c-25 -5 -43 -30 -63 -85 -11 -31 -10 -43 5 -81 13 -36 24
-47 57 -60 l40 -16 34 35 c34 33 41 55 36 114 -3 38 -22 80 -42 90 -18 10 -27
11 -67 3z m37 -42 c10 -6 14 -28 14 -71 0 -64 -11 -87 -37 -77 -35 14 -42 87
-14 140 10 19 17 21 37 8z"/>
<path d="M2677 7353 c-24 -23 41 -83 89 -83 10 0 25 -7 35 -16 19 -17 39 -11
39 12 0 8 -9 14 -20 14 -10 0 -24 9 -30 20 -6 11 -19 20 -29 20 -10 0 -26 9
-36 20 -18 20 -36 25 -48 13z"/>
<path d="M2846 3565 c-14 -13 -26 -31 -26 -40 0 -19 34 -20 50 0 7 8 21 15 31
15 24 0 25 -34 3 -89 -15 -38 -18 -40 -57 -38 -39 2 -42 0 -45 -25 -4 -36 27
-54 69 -39 16 5 51 7 77 4 37 -4 52 -2 65 11 22 22 37 12 37 -23 0 -62 50
-121 103 -121 58 0 95 73 84 167 -9 84 -77 113 -147 63 -51 -36 -103 -61 -117
-55 -18 6 -16 48 5 95 16 39 19 41 57 38 38 -3 40 -2 40 27 0 26 -4 30 -29 33
-16 2 -40 -2 -53 -9 -18 -10 -26 -10 -35 -1 -21 21 -83 14 -112 -13z m328
-157 c30 -43 9 -138 -30 -138 -33 0 -46 110 -17 142 21 23 29 23 47 -4z"/>
<path d="M11103 9224 c-8 -3 -13 -24 -13 -48 0 -23 -4 -46 -9 -51 -5 -6 -13
-25 -18 -43 -13 -52 -28 -32 -28 40 0 74 -4 83 -34 73 -29 -9 -39 -60 -36
-195 2 -101 4 -115 19 -115 10 0 23 11 31 25 25 46 45 93 45 107 0 7 4 13 9
13 5 0 22 26 36 58 15 31 36 67 47 79 26 28 20 57 -12 60 -14 1 -31 -1 -37 -3z"/>
<path d="M10840 9201 c0 -10 7 -24 15 -31 19 -16 19 -58 -1 -182 -12 -74 -13
-103 -5 -111 19 -19 45 6 64 64 15 44 17 62 8 97 -15 58 -14 92 4 126 25 48
20 56 -35 56 -42 0 -50 -3 -50 -19z"/>
<path d="M9796 9009 c-17 -14 -26 -30 -26 -50 0 -33 5 -34 40 -14 30 17 90 20
90 4 0 -13 -12 -23 -86 -74 -33 -22 -53 -43 -56 -60 -6 -31 14 -50 39 -37 13
7 26 6 43 -4 40 -22 76 -17 99 12 37 47 20 74 -30 46 -28 -17 -59 -11 -59 11
0 7 21 29 48 47 61 43 82 69 82 103 0 28 -17 36 -36 17 -7 -7 -22 -6 -47 5
-49 20 -69 19 -101 -6z"/>
<path d="M10012 8907 c-27 -29 -28 -53 -2 -67 18 -10 22 -7 31 19 7 19 18 31
29 31 26 0 34 -30 14 -51 -16 -18 -16 -20 -1 -37 21 -24 22 -56 1 -73 -14 -12
-20 -9 -39 16 -20 24 -26 27 -39 16 -18 -15 -20 -39 -6 -61 7 -11 25 -14 72
-12 82 4 103 21 93 77 -4 22 -7 59 -6 83 1 34 -4 48 -21 62 -34 28 -99 26
-126 -3z"/>
<path d="M5588 8561 c-10 -14 -25 -19 -64 -19 -28 0 -67 -6 -87 -13 -32 -11
-39 -11 -55 4 -23 21 -46 21 -80 2 -15 -8 -45 -19 -68 -25 -44 -11 -80 -42
-69 -59 3 -7 44 -11 99 -11 76 0 98 3 117 19 15 11 50 21 93 26 38 4 80 12 93
18 19 8 27 6 48 -13 l24 -22 33 20 c18 11 57 28 86 37 38 13 52 22 50 34 -3
13 -21 16 -105 19 -90 2 -103 1 -115 -17z"/>
<path d="M12714 8422 c-7 -4 -11 -30 -11 -60 1 -67 -12 -81 -56 -60 -28 14
-38 14 -64 3 -39 -16 -83 -84 -90 -137 -5 -34 -2 -42 36 -79 38 -39 43 -41 78
-33 21 4 58 6 82 5 48 -2 81 19 81 51 0 22 -18 24 -26 3 -7 -17 -44 -21 -44
-4 0 13 46 169 66 222 16 42 17 57 6 73 -10 16 -45 25 -58 16z m-60 -174 c21
-29 20 -47 -3 -101 -23 -54 -44 -64 -72 -36 -26 26 -22 83 11 129 25 36 43 38
64 8z"/>
<path d="M12855 8219 c-45 -23 -60 -59 -57 -139 4 -93 16 -110 82 -110 48 0
60 8 88 57 17 31 15 39 -10 74 -20 26 -27 30 -56 24 -35 -6 -50 10 -38 41 6
15 9 15 29 -5 32 -29 55 -27 63 6 12 47 -48 78 -101 52z m59 -141 c8 -13 8
-23 0 -35 -18 -29 -48 -27 -64 3 -13 24 -13 27 5 40 24 18 44 15 59 -8z"/>
<path d="M12012 8037 c-22 -23 -30 -67 -13 -67 5 0 24 7 43 14 33 14 78 12 78
-4 0 -9 -34 -40 -45 -40 -4 0 -28 -16 -51 -36 -29 -23 -44 -43 -44 -58 0 -20
6 -24 50 -30 27 -4 52 -11 55 -16 17 -27 77 -1 99 42 21 40 9 49 -34 27 -25
-13 -47 -18 -64 -13 -14 3 -26 8 -26 11 0 12 22 43 30 43 15 0 104 71 112 89
9 22 9 24 -1 39 -7 11 -12 12 -29 1 -17 -10 -24 -10 -46 4 -37 25 -88 22 -114
-6z"/>
<path d="M12276 7967 c-16 -12 -35 -70 -36 -110 0 -17 6 -18 48 -12 41 5 51 3
67 -14 16 -19 17 -24 5 -46 -18 -33 -53 -33 -68 0 -13 27 -31 32 -50 13 -19
-19 -14 -36 21 -68 38 -35 77 -38 118 -9 26 18 29 26 29 78 0 68 -8 77 -70 87
l-45 7 43 18 c46 20 63 46 41 60 -21 13 -83 11 -103 -4z"/>
<path d="M12776 7871 c-4 -5 -1 -22 5 -38 6 -15 14 -46 19 -68 5 -22 16 -65
25 -95 9 -30 21 -72 26 -93 5 -21 13 -45 19 -55 5 -9 19 -60 30 -112 12 -52
25 -104 30 -115 7 -18 13 -41 55 -187 40 -141 65 -260 59 -283 -4 -18 2 -43
23 -83 38 -73 60 -141 47 -150 -17 -13 -54 -71 -54 -86 0 -8 -5 -18 -10 -21
-6 -4 -26 -39 -46 -78 -19 -40 -46 -86 -60 -104 -13 -17 -24 -36 -24 -42 0
-13 -41 -91 -68 -129 -19 -26 -73 -126 -160 -294 -35 -68 -37 -98 -5 -98 12 0
29 24 53 73 19 39 44 86 55 103 12 17 43 73 69 125 62 121 71 138 85 152 6 6
11 17 11 25 0 7 11 28 24 45 13 18 27 42 31 55 3 12 10 22 14 22 5 0 18 21 30
48 12 26 26 55 31 65 6 9 14 25 20 35 57 101 59 112 52 227 -7 105 -8 109 -32
115 -25 6 -32 30 -56 173 -4 21 -11 40 -15 43 -5 3 -9 14 -9 26 0 11 -6 34
-14 51 -7 18 -23 73 -35 122 -12 50 -26 104 -31 120 -32 114 -43 154 -52 180
-10 31 -26 96 -52 223 -9 40 -20 82 -26 92 -11 21 -54 28 -64 11z"/>
<path d="M1669 5252 c-44 -40 -32 -55 36 -47 57 8 81 -6 44 -26 -12 -6 -41
-29 -65 -51 -32 -30 -44 -48 -44 -69 0 -24 4 -29 24 -29 12 0 50 -3 83 -6 l60
-7 22 37 c13 20 20 44 17 53 -6 14 -9 14 -27 -5 -14 -16 -32 -22 -60 -22 -57
0 -49 25 23 72 63 42 82 68 73 98 -7 21 -30 27 -40 11 -3 -6 -17 -4 -33 5 -42
22 -78 17 -113 -14z"/>
<path d="M1925 5151 c-41 -17 -50 -40 -50 -128 0 -76 2 -87 23 -103 26 -22 85
-17 115 8 40 35 46 157 9 202 -20 23 -68 33 -97 21z m53 -66 c17 -36 15 -97
-3 -121 -15 -19 -15 -19 -35 5 -25 29 -27 97 -3 123 21 24 28 23 41 -7z"/>
<path d="M12724 4860 c-23 -7 -36 -21 -52 -58 -27 -60 -27 -73 -2 -122 24 -46
55 -58 108 -42 26 8 48 8 80 0 41 -10 45 -9 69 15 17 17 24 31 19 42 -6 16 -8
17 -24 1 -24 -21 -52 -21 -52 2 0 9 9 46 20 80 11 35 18 68 14 73 -3 5 -26 8
-52 8 -26 -1 -58 1 -72 4 -14 3 -39 2 -56 -3z m91 -70 c9 -41 -27 -120 -54
-120 -39 0 -54 66 -26 120 25 47 70 47 80 0z"/>
<path d="M13023 4705 c-31 -22 -48 -89 -32 -127 20 -48 88 -60 120 -22 15 19
5 28 -31 29 -17 0 -30 5 -30 10 0 6 9 10 19 10 24 0 71 43 71 65 0 44 -74 65
-117 35z"/>
<path d="M11956 4658 c-3 -7 -12 -55 -20 -107 -15 -91 -22 -118 -52 -206 -8
-23 -14 -53 -14 -69 0 -48 30 -27 96 69 35 50 90 120 123 157 34 36 61 71 61
76 0 20 -18 22 -56 6 -35 -15 -39 -15 -50 0 -6 9 -18 16 -26 16 -7 0 -18 14
-23 32 -11 34 -32 48 -39 26z"/>
<path d="M12081 4295 c-32 -18 -40 -34 -34 -69 5 -24 16 -34 64 -55 47 -20 59
-30 59 -48 0 -20 -5 -23 -35 -23 -26 0 -39 6 -51 26 -21 31 -58 29 -62 -4 -5
-32 13 -50 60 -63 46 -12 89 -1 125 33 26 24 29 49 11 78 -11 18 -9 23 16 43
35 28 32 54 -9 78 -35 21 -110 23 -144 4z m97 -27 c7 -7 12 -23 12 -36 0 -19
-4 -22 -20 -18 -11 3 -29 9 -40 12 -19 5 -27 33 -13 47 11 11 48 8 61 -5z"/>
<path d="M12309 4138 c-30 -10 -59 -65 -59 -113 0 -26 7 -38 29 -54 36 -26 49
-26 81 -1 l25 20 -23 18 -23 18 25 12 c48 21 43 95 -7 104 -12 2 -34 1 -48 -4z
m31 -52 c0 -14 -29 -31 -38 -21 -6 6 18 35 29 35 5 0 9 -6 9 -14z"/>
</g>
</svg>
